<?xml version="1.0" encoding="UTF-8"?>
<svg version="1.1" xmlns="http://www.w3.org/2000/svg" width="1684" height="364">
<path d="M0 0 C0.64495926 -0.00335861 1.28991852 -0.00671722 1.954422 -0.01017761 C4.07542891 -0.01963015 6.19635616 -0.02162894 8.31738281 -0.02270508 C9.81268342 -0.02592544 11.30798372 -0.02929008 12.80328369 -0.03279114 C15.94031501 -0.038771 19.07731885 -0.0406326 22.21435547 -0.04003906 C25.39703107 -0.03995828 28.57956129 -0.04682255 31.76220703 -0.06054688 C73.72393308 -0.23864984 73.72393308 -0.23864984 90.14550781 4.45776367 C90.93521973 4.67650146 91.72493164 4.89523926 92.53857422 5.12060547 C112.80975388 10.90023337 132.64364003 22.27831124 143.27050781 41.14526367 C151.18812828 56.89582418 152.41069024 73.26925256 147.27050781 90.14526367 C140.40672796 108.05757805 127.50197765 119.75708799 110.21191406 127.65332031 C86.61617796 137.9705911 61.84139587 139.31316294 36.41113281 139.24291992 C34.41046179 139.24105139 32.4097903 139.23962954 30.40911865 139.2386322 C25.1813833 139.23484128 19.95367638 139.22504082 14.72595215 139.21392822 C9.37622461 139.20363989 4.02649242 139.19911878 -1.32324219 139.1940918 C-11.79200458 139.18341499 -22.26074601 139.16638044 -32.72949219 139.14526367 C-32.8229881 123.34210767 -32.89349703 107.53902649 -32.93674088 91.73566246 C-32.95735464 84.39765546 -32.9854523 77.05982044 -33.03125 69.72192383 C-33.0711544 63.32521976 -33.09693363 56.92864026 -33.10584617 50.53181517 C-33.11105492 47.14556875 -33.12327189 43.75967867 -33.15241241 40.3735466 C-33.18141458 36.59069366 -33.18544933 32.80858085 -33.18359375 29.02563477 C-33.19797485 27.90641632 -33.21235596 26.78719788 -33.22717285 25.63406372 C-33.18771203 18.20805763 -32.12829324 14.86657869 -27.12402344 9.38745117 C-18.99898588 2.36581378 -10.65892697 0.03508116 0 0 Z M14.27050781 26.14526367 C14.27050781 54.52526367 14.27050781 82.90526367 14.27050781 112.14526367 C56.15137964 114.33428049 56.15137964 114.33428049 91.07128906 96.55151367 C94.24808338 93.07566057 96.3604428 89.426155 98.27050781 85.14526367 C98.68300781 84.25838867 99.09550781 83.37151367 99.52050781 82.45776367 C102.69599983 72.66666328 101.69125648 62.73101834 98.27050781 53.14526367 C92.15596489 41.49600518 82.35973205 34.08406998 70.02050781 29.95385742 C51.92002584 24.63169866 32.93494705 26.14526367 14.27050781 26.14526367 Z " fill="#000000" transform="translate(819.7294921875,72.854736328125)"/>
<path d="M0 0 C13.9039173 11.86678575 23.75138467 25.56609807 25.74609375 44.21875 C26.39564693 61.77636917 20.36443502 76.2616807 8.74609375 89.34375 C8.215 89.95734375 7.68390625 90.5709375 7.13671875 91.203125 C-11.03449845 110.81364654 -39.31585743 119.10139019 -65.25390625 120.34375 C-96.45400841 121.37335337 -127.18764215 115.44584081 -151.25390625 94.34375 C-151.94742188 93.73789063 -152.6409375 93.13203125 -153.35546875 92.5078125 C-163.90238873 82.61136336 -171.84972463 68.4708127 -172.58984375 53.86328125 C-172.94761212 35.30038127 -167.71679913 20.51936286 -154.84960938 6.78198242 C-138.98246364 -9.32549458 -118.21092473 -18.67620265 -95.87890625 -21.34375 C-94.83234863 -21.4689502 -93.78579102 -21.59415039 -92.70751953 -21.72314453 C-60.15057907 -25.35265329 -26.30445193 -20.84369054 0 0 Z M-105.25390625 14.34375 C-106.38892578 14.99150391 -106.38892578 14.99150391 -107.546875 15.65234375 C-116.88295639 21.42288652 -122.50989616 28.74339622 -125.8359375 39.16796875 C-127.88595593 49.83955999 -126.42186979 60.18600107 -120.96875 69.55078125 C-113.41064004 80.56162111 -101.73615731 86.29880326 -89.00390625 89.15625 C-72.527599 92.07462426 -53.331355 91.16913828 -38.890625 81.8125 C-29.5402608 74.89794496 -23.0112478 67.25967403 -20.72265625 55.6484375 C-19.39977111 45.09542199 -21.41244784 35.27687088 -27.25390625 26.34375 C-36.37474939 14.9477745 -48.94191631 9.79713472 -63.03125 7.6953125 C-76.98852578 6.1727006 -92.81724751 7.21983868 -105.25390625 14.34375 Z " fill="#000000" transform="translate(731.25390625,93.65625)"/>
<path d="M0 0 C0.74765625 0.63421875 1.4953125 1.2684375 2.265625 1.921875 C10.40998607 9.4249478 17.58143944 20.13807177 20 31 C20.17917969 31.721875 20.35835937 32.44375 20.54296875 33.1875 C23.06877812 48.7309423 21.03429642 64.32867352 11.9609375 77.421875 C-4.88762875 99.57337644 -28.27636629 111.55064286 -55.5625 115.7421875 C-86.13294337 119.8877249 -120.25146355 116.35447356 -146.0546875 98.2578125 C-160.92334426 86.85982363 -173.04567994 73.03181544 -176 54 C-177.4454118 37.20627476 -174.25463731 21.91296043 -163.296875 8.60546875 C-146.45544602 -10.79994634 -123.35194972 -21.91617019 -98 -25 C-97.18144531 -25.11085938 -96.36289063 -25.22171875 -95.51953125 -25.3359375 C-61.21381296 -29.27178735 -26.593505 -22.77344351 0 0 Z M-123 22 C-130.33806733 31.32366202 -130.70311313 41.5460603 -130 53 C-128.57204187 62.78800388 -123.10857395 69.68701683 -115.5625 75.8125 C-101.13965186 86.34385454 -83.65068405 88.52295247 -66.18359375 86.57421875 C-51.4908393 84.07691012 -39.20499206 77.7218325 -29.625 66.125 C-24.21661857 55.72426647 -23.17568519 43.95598398 -26.125 32.5625 C-29.77943007 22.2961011 -38.11293621 14.92889589 -47.4375 9.75 C-71.75209779 -1.7318934 -104.53186904 2.07475045 -123 22 Z " fill="#000000" transform="translate(1614,97)"/>
<path d="M0 0 C-0.28358856 4.72647596 -1.00814706 8.02076419 -4.2734375 11.58203125 C-11.23556756 17.2997987 -18.78227396 19.17917751 -27.5625 19.1875 C-28.21541016 19.19974609 -28.86832031 19.21199219 -29.54101562 19.22460938 C-33.59234711 19.23632972 -37.33268375 18.80164405 -41.30859375 18.01171875 C-47.06667877 16.8955944 -52.64344945 16.61517687 -58.5 16.625 C-59.50450195 16.62661133 -60.50900391 16.62822266 -61.54394531 16.62988281 C-68.39393044 16.74349232 -75.13131404 17.07137551 -81 21 C-83.55720442 23.82927281 -83.55720442 23.82927281 -84 27.5 C-82.36582801 31.58542997 -79.22764282 33.46685352 -75.27124023 35.18505859 C-73.80473022 35.66193115 -73.80473022 35.66193115 -72.30859375 36.1484375 C-71.20870117 36.51090576 -70.10880859 36.87337402 -68.97558594 37.24682617 C-67.80801758 37.61912354 -66.64044922 37.9914209 -65.4375 38.375 C-64.23254883 38.76856689 -63.02759766 39.16213379 -61.78613281 39.56762695 C-54.63904129 41.88630728 -47.46095818 44.07741048 -40.25 46.1875 C-23.96751543 50.98175083 -5.07902145 56.89507567 4.34375 72.1796875 C8.7821634 80.83459362 9.35402033 90.46275536 7.38671875 99.9609375 C3.53094568 110.72992484 -5.06671009 117.89946603 -15 123 C-48.80325761 137.61762491 -89.81821458 133.98779647 -123.6875 121.25 C-128.80467091 119.19532909 -128.80467091 119.19532909 -130 118 C-130.44341984 114.18658939 -130.15445955 112.28603619 -128.3125 108.875 C-123.19671266 102.51483196 -117.990904 100.22237596 -110 99 C-102.41834491 98.84185505 -95.30575161 100.18330878 -88.046875 102.28125 C-80.94977899 103.95543675 -73.7656983 104.18157366 -66.5 104.1875 C-65.31470703 104.20586914 -65.31470703 104.20586914 -64.10546875 104.22460938 C-56.68774451 104.24281983 -49.10438137 103.57828602 -43 99 C-41.43064406 95.86128812 -41.64798897 93.46144178 -42 90 C-45.40620395 85.88233386 -48.5808973 83.99750054 -53.5625 82.1875 C-54.23087891 81.94451172 -54.89925781 81.70152344 -55.58789062 81.45117188 C-63.82869723 78.55497253 -72.27958832 76.32091509 -80.68701172 73.96826172 C-119.27288153 63.08747395 -119.27288153 63.08747395 -129.5 47.0625 C-134.03577295 38.7084775 -135.26907492 30.16034259 -132.75 20.9375 C-129.27011582 10.38661828 -121.4081466 2.98905688 -111.60107422 -1.97216797 C-104.28539847 -5.42373328 -97.00011512 -7.67597162 -89 -9 C-87.79085937 -9.20367187 -86.58171875 -9.40734375 -85.3359375 -9.6171875 C-56.9892671 -13.76409519 -26.68972661 -10.42141425 0 0 Z " fill="#000000" transform="translate(524,82)"/>
<path d="M0 0 C1.05426178 -0.00014603 2.10852356 -0.00029205 3.19473267 -0.0004425 C6.66841716 0.0002524 10.14204757 0.00802504 13.61572266 0.01586914 C16.02853364 0.01773482 18.441345 0.01915802 20.85415649 0.02015686 C27.19660493 0.02397022 33.53903036 0.03379044 39.88146973 0.04486084 C46.35668629 0.05510034 52.83190658 0.05965992 59.30712891 0.06469727 C72.00635745 0.07541376 84.70557008 0.09228308 97.40478516 0.11352539 C97.4866472 7.11349257 96.60713296 11.50466193 91.89697266 16.81274414 C84.88139861 23.28991366 76.50456313 26.24561157 67.07568359 26.22705078 C65.79465759 26.22697525 64.51363159 26.22689972 63.19378662 26.2268219 C61.8005774 26.22171565 60.40736858 26.21649966 59.01416016 26.21118164 C57.58498179 26.20931571 56.15580277 26.20789263 54.72662354 26.20689392 C50.97178368 26.20308254 47.21698273 26.19326406 43.4621582 26.18218994 C38.95336715 26.17014392 34.44456305 26.16556701 29.9357605 26.15973663 C23.09207502 26.15005154 16.24847485 26.13088537 9.40478516 26.11352539 C9.40478516 35.35352539 9.40478516 44.59352539 9.40478516 54.11352539 C28.21478516 54.11352539 47.02478516 54.11352539 66.40478516 54.11352539 C66.40478516 61.47389092 65.72839039 65.36801172 60.89697266 70.81274414 C49.99729418 80.87593567 35.82552286 81.44284847 21.71728516 81.23852539 C17.65416016 81.19727539 13.59103516 81.15602539 9.40478516 81.11352539 C9.40478516 91.34352539 9.40478516 101.57352539 9.40478516 112.11352539 C39.10478516 112.11352539 68.80478516 112.11352539 99.40478516 112.11352539 C98.38577919 122.30358503 97.07136755 126.5240969 89.53369141 132.72680664 C82.88837105 137.05540981 74.55556278 139.24288038 66.66545105 139.23377991 C65.74143494 139.23515457 64.81741882 139.23652924 63.86540222 139.23794556 C62.36352104 139.23255264 62.36352104 139.23255264 60.83129883 139.22705078 C59.7674295 139.22719681 58.70356018 139.22734283 57.60745239 139.22749329 C54.09586539 139.22679739 50.58433163 139.21902007 47.07275391 139.21118164 C44.63609343 139.20931631 42.19943259 139.20789295 39.76277161 139.20689392 C33.35290489 139.20307778 26.94306088 139.19325517 20.53320312 139.18218994 C13.9910513 139.17195643 7.4488958 139.16739214 0.90673828 139.16235352 C-11.92725577 139.15163212 -24.7612341 139.13475902 -37.59521484 139.11352539 C-37.68874901 123.45802436 -37.75923839 107.80259904 -37.80246353 92.14688778 C-37.82306921 84.87728968 -37.85115133 77.60786541 -37.89697266 70.33837891 C-37.9369019 64.00062887 -37.96266216 57.66300476 -37.97156882 51.32513243 C-37.97677338 47.97071047 -37.98896348 44.61664871 -38.01813507 41.26234245 C-38.04717507 37.51321945 -38.0511704 33.7648424 -38.04931641 30.015625 C-38.06369751 28.90935257 -38.07807861 27.80308014 -38.09289551 26.6632843 C-38.05316844 19.23803296 -36.88494411 15.00064331 -32.02490234 9.25805664 C-22.56645684 1.15421263 -12.02311268 -0.04373778 0 0 Z " fill="#000000" transform="translate(1042.59521484375,72.886474609375)"/>
<path d="M0 0 C-1.6267103 6.97161559 -3.8837995 11.14208892 -10 15 C-20.91740508 20.83258627 -31.28916432 20.77510712 -43.375 19 C-63.91726956 16.09819566 -84.79950177 18.53680901 -101.8125 31.1875 C-109.45253043 37.51781093 -113.72217143 44.90886504 -114.9375 54.8125 C-115.51423734 66.14538865 -111.99712287 75.22905483 -104.546875 83.640625 C-91.56823081 96.09487953 -72.41112845 99.30277509 -55.19140625 99.234375 C-50.73436452 99.07004068 -46.44014208 98.31487151 -42.0625 97.5 C-29.15519146 95.13877218 -16.79400866 93.94400318 -5.16796875 101.1328125 C-1.06763491 104.14570987 0.54053724 107.27820872 2 112 C1.828125 114.06640625 1.828125 114.06640625 1 116 C-10.4232632 124.40628398 -30.27147718 127.38611258 -44 129 C-44.83402344 129.10957031 -45.66804688 129.21914062 -46.52734375 129.33203125 C-77.07995604 132.77781459 -109.70566009 128.19468248 -134.54296875 109.0546875 C-148.13678801 97.68688316 -157.56679893 83.19492788 -159.78125 65.3515625 C-160.95294084 47.39958498 -155.50704695 31.55599467 -143.875 17.875 C-109.58817553 -18.20422171 -42.55043675 -24.03690537 0 0 Z " fill="#000000" transform="translate(1419,84)"/>
<path d="M0 0 C0.88870789 0.16836365 1.77741577 0.33672729 2.6930542 0.51019287 C8.13751258 1.54851642 13.57169983 2.63043332 19 3.75 C19.6724173 3.8861673 20.34483459 4.02233459 21.03762817 4.16262817 C37.24492432 7.47961655 37.24492432 7.47961655 43 12.875 C44.39578994 15.84105363 44.46348107 17.75563252 44 21 C41.59288539 25.31274701 38.85118301 26.7411691 34.27032471 28.37106323 C30.42085149 29.43746366 26.62429335 29.55472096 22.6484375 29.66015625 C21.76388885 29.69478973 20.87934021 29.72942322 19.96798706 29.7651062 C18.08014605 29.83784469 16.19207287 29.90475743 14.30383301 29.96627808 C10.34503366 30.09633783 6.38772383 30.25794951 2.43005371 30.41828918 C0.44190825 30.49873667 -1.54629245 30.57783039 -3.5345459 30.65556335 C-46.66318043 31.03996405 -46.66318043 31.03996405 -84 50 C-84.7940625 50.68964844 -85.588125 51.37929687 -86.40625 52.08984375 C-91.70446264 56.74213232 -96.6912779 61.65726626 -101.640625 66.67578125 C-103.65640445 68.66152425 -105.70694965 70.49832564 -107.875 72.3125 C-110.42089616 74.46592535 -112.70035026 76.73188139 -114.91796875 79.21484375 C-115.43697754 79.79516357 -115.95598633 80.3754834 -116.49072266 80.97338867 C-117.51324432 82.12916534 -118.52530191 83.29431377 -119.52490234 84.4699707 C-123.56774274 89.04799318 -127.63445148 91.48042297 -133.80859375 92.43359375 C-141.16336389 92.44452209 -146.47710531 91.19262331 -152 86.1875 C-154.39813365 80.94158265 -152.80846278 75.56745495 -150.98046875 70.37890625 C-150.65921272 69.45865158 -150.65921272 69.45865158 -150.33146667 68.51980591 C-149.63035692 66.52890149 -148.91093162 64.54539419 -148.1875 62.5625 C-147.9417926 61.88136139 -147.69608521 61.20022278 -147.44293213 60.4984436 C-133.34170112 21.51513502 -133.34170112 21.51513502 -122 12 C-121.12214844 11.195625 -121.12214844 11.195625 -120.2265625 10.375 C-86.2586982 -18.10460675 -39.19578764 -7.42786593 0 0 Z " fill="#EF7F12" transform="translate(281,143)"/>
<path d="M0 0 C0 45.87 0 91.74 0 139 C-15.84 139 -31.68 139 -48 139 C-48.09040463 123.49212918 -48.16404258 107.98438942 -48.20724869 92.47632599 C-48.22784613 85.27513676 -48.25591238 78.07412328 -48.30175781 70.87304688 C-48.34171241 64.59425087 -48.3674533 58.31558218 -48.37635398 52.03666258 C-48.38155431 48.71404425 -48.39583685 45.39187355 -48.42292023 42.0693512 C-48.45199885 38.3539581 -48.45595394 34.63931689 -48.45410156 30.92382812 C-48.46848267 29.83050171 -48.48286377 28.73717529 -48.49768066 27.61071777 C-48.45779532 20.20694636 -47.38563453 14.69610757 -42.2109375 9.046875 C-28.46336176 -0.6641785 -17.51739699 0 0 0 Z " fill="#000000" transform="translate(1224,73)"/>
<path d="M0 0 C3.09671235 1.6966861 5.83049875 3.57608619 8.58203125 5.7890625 C10.8671935 7.60955387 13.17377545 9.34221023 15.5390625 11.0546875 C24.47094504 17.5224735 33.16226766 24.10668851 41.42578125 31.4140625 C43.20292563 32.98020029 45.00368936 34.52093126 46.84765625 36.0078125 C54.08243546 41.87094212 57.79257052 48.89331582 59.38671875 58.0234375 C60.21330826 68.27314744 56.96997934 77.16613272 50.38671875 85.0234375 C44.03299196 90.794486 37.00162219 95.338097 29.57421875 99.5859375 C28.56319092 100.17020508 27.55216309 100.75447266 26.51049805 101.35644531 C18.01780726 106.20867679 9.38683452 110.7819118 0.69921875 115.2734375 C0.06857513 115.59958038 -0.56206848 115.92572327 -1.21182251 116.26174927 C-18.19407159 125.01970006 -18.19407159 125.01970006 -27.61328125 124.0234375 C-32.02075909 122.34058232 -35.4530555 120.50963553 -37.48828125 116.1484375 C-37.68085803 112.87463229 -36.59112143 111.66055774 -34.61328125 109.0234375 C-32.68295587 107.00635593 -30.70063192 105.05211175 -28.703125 103.1015625 C-26.24814005 100.66034382 -23.98099246 98.10953678 -21.73046875 95.48046875 C-20.005497 93.47861039 -18.25860855 91.5036997 -16.49609375 89.53515625 C-3.3904345 75.20579924 -3.3904345 75.20579924 0.64453125 56.84082031 C-0.1710068 47.92859579 -5.79118009 39.70758929 -10.10400391 32.06298828 C-11.11765422 30.26568378 -12.12199343 28.46341843 -13.125 26.66015625 C-16.76836586 20.12844981 -16.76836586 20.12844981 -20.79882812 13.83105469 C-22.96207571 10.48372594 -23.36152802 8.93094843 -22.61328125 5.0234375 C-16.94329844 -1.87248753 -8.33833299 -3.11596898 0 0 Z " fill="#EF7F12" transform="translate(89.61328125,72.9765625)"/>
<path d="M0 0 C7.92 0 15.84 0 24 0 C28.08543607 9.69425507 31.97023184 19.45748615 35.8125 29.25 C36.41590406 30.78520011 37.01941898 32.32035664 37.62304688 33.85546875 C39.08330652 37.56981274 40.5420762 41.28473857 42 45 C45.5646537 37.26394303 48.5800807 29.3481815 51.5625 21.375 C52.28820712 19.4384887 53.0147387 17.50229927 53.7431488 15.56680298 C54.40166844 13.81655474 55.05748861 12.06529152 55.71313477 10.31396484 C57.06084072 6.84332158 58.53338835 3.42209385 60 0 C68.58 0 77.16 0 86 0 C91.86865834 14.92680491 97.4614469 29.94787173 103 45 C106.60058662 36.39045744 110.15966437 27.76459746 113.6875 19.125 C114.17283203 17.94164062 114.65816406 16.75828125 115.15820312 15.5390625 C115.62548828 14.394375 116.09277344 13.2496875 116.57421875 12.0703125 C116.99276123 11.04695801 117.41130371 10.02360352 117.8425293 8.96923828 C118.99372633 6.01609372 119.99768681 3.00693958 121 0 C129.25 0 137.5 0 146 0 C139.12109389 18.17263256 131.86084622 36.11919729 124.26171875 53.99926758 C123.14542107 56.65414661 122.0696118 59.3259705 121 62 C109.78 62 98.56 62 87 62 C82.38 49.13 77.76 36.26 73 23 C70.875625 28.878125 68.75125 34.75625 66.5625 40.8125 C65.5581189 43.59071167 65.5581189 43.59071167 64.53344727 46.42504883 C64.00273759 47.89403237 63.47205538 49.36302584 62.94140625 50.83203125 C62.66582886 51.59398804 62.39025146 52.35594482 62.10632324 53.14099121 C61.04291474 56.08570233 59.99010416 59.02968753 59 62 C47.78 62 36.56 62 25 62 C22.01609419 55.43540721 19.08460888 48.93460475 16.40625 42.25390625 C16.09224243 41.47667709 15.77823486 40.69944794 15.45471191 39.89866638 C14.46756003 37.45417708 13.48361213 35.00841549 12.5 32.5625 C11.51838604 30.12688551 10.53607493 27.69155425 9.55322266 25.25643921 C8.91942833 23.68592347 8.28627796 22.11514769 7.65380859 20.5440979 C5.44133281 15.0579692 3.16430278 9.60333679 0.83007812 4.16772461 C0 2 0 2 0 0 Z " fill="#FCCF82" transform="translate(1311,229)"/>
<path d="M0 0 C9.9 0 19.8 0 30 0 C36.97944604 8.23574632 36.97944604 8.23574632 38.1796875 12.046875 C40.01764003 17.27271071 42.59799118 21.84770514 45.375 26.625 C46.17834722 28.07338216 46.97800588 29.52381814 47.7734375 30.9765625 C49.81102381 34.67335161 51.89643837 38.34037909 54 42 C56.88394113 38.57338809 59.12781377 35.17389322 61.20703125 31.2109375 C61.79419922 30.10363281 62.38136719 28.99632812 62.98632812 27.85546875 C63.8902832 26.13263672 63.8902832 26.13263672 64.8125 24.375 C66.0022245 22.10972303 67.19620827 19.84667769 68.39453125 17.5859375 C68.91893799 16.5861084 69.44334473 15.5862793 69.98364258 14.55615234 C72.79876665 9.59125377 75.93580264 4.81516728 79 0 C89.23 0 99.46 0 110 0 C110 20.46 110 40.92 110 62 C102.41 62 94.82 62 87 62 C86.67 49.46 86.34 36.92 86 24 C81.37844599 32.01591833 81.37844599 32.01591833 76.75756836 40.03222656 C75.49646164 42.21885474 74.22463973 44.39932077 72.94506836 46.57519531 C71.65462161 48.84736639 70.4348174 51.16121242 69.29125977 53.51074219 C65.26363825 61.49162912 65.26363825 61.49162912 61.67211914 62.93652344 C59.0310652 63.18396984 56.69477993 63.06227047 54.0625 62.75 C52.75055664 62.66878906 52.75055664 62.66878906 51.41210938 62.5859375 C49.2704339 62.44549976 47.13389099 62.23023 45 62 C44.64808594 61.37657715 44.29617188 60.7531543 43.93359375 60.11083984 C42.28943503 57.19868273 40.64471825 54.28684114 39 51.375 C38.44699219 50.3953125 37.89398437 49.415625 37.32421875 48.40625 C32.90813977 40.58928261 28.4545509 32.79546408 24 25 C23.67 37.21 23.34 49.42 23 62 C15.41 62 7.82 62 0 62 C0 41.54 0 21.08 0 0 Z " fill="#FCCF80" transform="translate(786,229)"/>
<path d="M0 0 C3.52105774 2.34217853 6.01147746 5.03070646 8.5625 8.375 C13.4125464 14.5753434 18.48326469 20.56400018 23.67236328 26.48193359 C24.75948034 27.72498138 25.83290652 28.97999063 26.90234375 30.23828125 C35.17650642 39.36211344 47.50094708 42.91688458 59.3515625 44.25390625 C60.24684662 44.35968491 61.14213074 44.46546356 62.06454468 44.57444763 C63.95528054 44.79666281 65.84637498 45.01584539 67.73779297 45.23217773 C70.59552072 45.55912731 73.45209752 45.89489871 76.30859375 46.23242188 C84.78772948 47.22537659 93.24842524 48.20142939 101.77246094 48.7265625 C106.05208958 49.25190052 109.00923689 51.00923689 112 54 C112.4375 56.875 112.4375 56.875 112 60 C108.349386 63.63620145 105.21533306 64.71879851 100.203125 65.6171875 C99.55160461 65.73593231 98.90008423 65.85467712 98.2288208 65.97702026 C91.45252569 67.17475633 84.63225692 68.06562292 77.80078125 68.88037109 C75.73622315 69.12664338 73.67278059 69.38098505 71.609375 69.63671875 C48.576021 72.46647338 23.15835809 75.47845261 3.25 60.6875 C-10.9890017 48.80910881 -15.34761397 28.85939928 -18 11 C-18.165 9.906875 -18.33 8.81375 -18.5 7.6875 C-17.90483055 4.48846422 -16.73876515 2.8541848 -14.11328125 0.91796875 C-9.67211457 -1.01118868 -4.69032823 -0.91533996 0 0 Z " fill="#EF7F12" transform="translate(181,52)"/>
<path d="M0 0 C6.48545865 6.10104332 9.91182051 12.21860948 10.41796875 21.234375 C10.19497905 28.51870533 7.52785936 34.707179 2.66796875 40.109375 C-12.06711421 53.58924719 -31.36420952 54.86207676 -50.30615234 54.09472656 C-56.04649367 53.72042543 -61.45398958 52.6196219 -66.95703125 50.921875 C-67.86453125 50.6434375 -68.77203125 50.365 -69.70703125 50.078125 C-79.75257909 46.52543125 -86.88588247 40.26727775 -91.95703125 30.921875 C-94.14960924 24.34414102 -94.28892077 15.66818414 -91.20703125 9.359375 C-85.04468626 -1.22909873 -74.52412248 -6.9335196 -62.95703125 -10.078125 C-42.561378 -14.74990421 -16.71518352 -13.84549714 0 0 Z M-66.95703125 10.921875 C-69.95146185 15.84819632 -70.4510627 19.90115488 -69.65234375 25.4921875 C-68.25360292 30.37992229 -65.25787604 33.35020586 -61.1328125 36.16796875 C-51.30949673 41.60765477 -39.77852356 42.16417782 -29.08203125 39.09765625 C-23.26527076 36.90771517 -18.74486259 34.51114797 -15.14453125 29.296875 C-13.53849852 24.73236093 -13.25526499 20.70948037 -13.95703125 15.921875 C-17.58885571 8.65822609 -23.17434123 5.23461169 -30.6640625 2.6875 C-43.18347136 -0.22329969 -57.82063976 1.10025415 -66.95703125 10.921875 Z " fill="#FCCF82" transform="translate(1295.95703125,239.078125)"/>
<path d="M0 0 C27 0 27 0 32.5 4.6875 C33.69945093 6.7731524 34.86462933 8.87878292 36 11 C37.73156946 13.25771065 39.61361531 15.37117559 41.5 17.5 C42.43136552 18.59121346 43.35978163 19.68495152 44.28515625 20.78125 C44.73777832 21.31621094 45.19040039 21.85117188 45.65673828 22.40234375 C50.52710716 28.19509074 55.27246503 34.09058128 60 40 C60.33 26.8 60.66 13.6 61 0 C68.26 0 75.52 0 83 0 C83 20.46 83 40.92 83 62 C57 62 57 62 49.4375 55.1875 C46.53515625 51.01953125 46.53515625 51.01953125 45.23486328 48.93603516 C43.50362898 46.22178288 41.46039149 43.82306827 39.375 41.375 C37.93125 39.60125 36.4875 37.8275 35 36 C31.37 31.71 27.74 27.42 24 23 C23.67 35.87 23.34 48.74 23 62 C15.41 62 7.82 62 0 62 C0 41.54 0 21.08 0 0 Z " fill="#FDCF81" transform="translate(1012,229)"/>
<path d="M0 0 C8.45625 -0.061875 16.9125 -0.12375 25.625 -0.1875 C29.5842749 -0.22846802 29.5842749 -0.22846802 33.62353516 -0.27026367 C66.48366849 -0.46842353 66.48366849 -0.46842353 77 8.75390625 C80.58194719 12.44417845 83.07855477 15.73164316 83.25390625 20.9921875 C82.62498 25.96554278 80.71329876 29.50410847 76.9375 32.80078125 C72.7705916 35.74999514 69.21647359 37.73248853 64 38 C72.83182895 48.37177557 72.83182895 48.37177557 82.26953125 58.171875 C84 60 84 60 84 62 C62.18136231 64.38194735 62.18136231 64.38194735 55.55712891 60.60839844 C51.12468342 56.75271258 48.01499797 51.9961096 45 47 C42.82774435 43.27584758 42.82774435 43.27584758 39.09619141 41.52416992 C36.79573672 41.28302197 34.5638463 41.2056796 32.25 41.1875 C29.5275 41.125625 26.805 41.06375 24 41 C24 47.93 24 54.86 24 62 C16.08 62 8.16 62 0 62 C0 41.54 0 21.08 0 0 Z M24 12 C24 17.94 24 23.88 24 30 C41.05874814 31.11677947 41.05874814 31.11677947 56.75 25.75 C59.30640624 23.1882963 59.30640624 23.1882963 59.125 19.875 C57.81254404 16.52094587 57.1848223 15.6332422 54 14 C47.40332615 11.94369894 41.37801731 11.7576585 34.5 11.875 C33.48679687 11.88402344 32.47359375 11.89304688 31.4296875 11.90234375 C28.95302128 11.92570853 26.47647829 11.96157189 24 12 Z " fill="#FCCE81" transform="translate(1551,229)"/>
<path d="M0 0 C11.22 0 22.44 0 34 0 C41.48697774 14.89373787 41.48697774 14.89373787 44.6640625 21.23046875 C46.8346097 25.5595931 49.00603514 29.88826147 51.18261719 34.21435547 C52.9367478 37.70093569 54.68699827 41.18943791 56.43453979 44.6793251 C57.10298942 46.01252008 57.77285021 47.34500844 58.44412231 48.67678452 C59.3818235 50.53773522 60.31454141 52.40110224 61.24609375 54.26513672 C61.77904053 55.32658905 62.3119873 56.38804138 62.86108398 57.48165894 C64 60 64 60 64 62 C55.75 62 47.5 62 39 62 C35 53 35 53 35 51 C23.12 51 11.24 51 -1 51 C-1.99 53.97 -2.98 56.94 -4 60 C-4.33 60.66 -4.66 61.32 -5 62 C-13.25 62 -21.5 62 -30 62 C-27.97577971 55.92733914 -26.0238567 50.65963608 -23.0859375 45.09765625 C-22.7144458 44.38115906 -22.3429541 43.66466187 -21.96020508 42.92645264 C-20.77095375 40.63538764 -19.57300744 38.34899633 -18.375 36.0625 C-17.15050413 33.70793729 -15.92831348 31.35218741 -14.70620728 28.99638367 C-13.90648899 27.4552289 -13.10602114 25.91446283 -12.30477905 24.37409973 C-8.1052925 16.29716569 -4.04118348 8.15720369 0 0 Z M16 16 C14.16020779 19.6217573 12.32927134 23.24791898 10.5 26.875 C9.97535156 27.90753906 9.45070313 28.94007813 8.91015625 30.00390625 C8.41386719 30.99003906 7.91757812 31.97617187 7.40625 32.9921875 C6.94541016 33.90339355 6.48457031 34.81459961 6.00976562 35.75341797 C4.86334642 37.89352125 4.86334642 37.89352125 5 40 C12.92 40 20.84 40 29 40 C27.71785687 36.15357062 26.62257334 32.99878744 24.8359375 29.4765625 C24.43632813 28.68378906 24.03671875 27.89101563 23.625 27.07421875 C23.2125 26.26597656 22.8 25.45773438 22.375 24.625 C21.95476563 23.79355469 21.53453125 22.96210938 21.1015625 22.10546875 C20.07133925 20.06843641 19.03741179 18.03337811 18 16 C17.34 16 16.68 16 16 16 Z " fill="#FCCE81" transform="translate(937,229)"/>
<path d="M0 0 C8.023125 -0.04125 16.04625 -0.0825 24.3125 -0.125 C26.82270752 -0.14320801 29.33291504 -0.16141602 31.91918945 -0.18017578 C33.94221789 -0.1860252 35.9652487 -0.19111969 37.98828125 -0.1953125 C39.01159546 -0.20554443 40.03490967 -0.21577637 41.0892334 -0.22631836 C53.39700588 -0.22925262 65.41899917 1.52426658 75.08984375 9.78515625 C79.04627555 14.31876163 79.81406289 18.5140561 79.453125 24.453125 C78.48072263 29.91869694 75.10371803 33.46708523 70.84375 36.8359375 C63.60189955 41.40812274 56.04582534 43.13113423 47.609375 43.09765625 C46.90476135 43.0962413 46.20014771 43.09482635 45.47418213 43.09336853 C43.23274416 43.08778933 40.99140757 43.07524073 38.75 43.0625 C37.22656395 43.05748231 35.70312632 43.05291987 34.1796875 43.04882812 C30.4530549 43.03867934 26.7266404 43.01910009 23 43 C23 49.27 23 55.54 23 62 C15.41 62 7.82 62 0 62 C0 41.54 0 21.08 0 0 Z M23 12 C23 18.27 23 24.54 23 31 C26.66747276 31.1085765 30.33168806 31.18759858 34 31.25 C35.02996094 31.28351563 36.05992188 31.31703125 37.12109375 31.3515625 C43.51974044 31.43307392 48.77173858 30.97817071 54 27 C56.28441618 24.19333909 56.28441618 24.19333909 55.9375 21.0625 C54.74057861 17.15255679 53.47076347 16.11263863 50 14 C44.11606742 11.85900776 38.78270062 11.75856716 32.5625 11.875 C31.64017578 11.88402344 30.71785156 11.89304688 29.76757812 11.90234375 C27.51160502 11.92572171 25.25576717 11.9615858 23 12 Z " fill="#FCCF81" transform="translate(1114,229)"/>
<path d="M0 0 C21.78 0 43.56 0 66 0 C66 4.29 66 8.58 66 13 C51.81 13 37.62 13 23 13 C23 16.96 23 20.92 23 25 C35.54 25 48.08 25 61 25 C61 28.63 61 32.26 61 36 C48.46 36 35.92 36 23 36 C23 40.29 23 44.58 23 49 C24.32765381 48.99476318 25.65530762 48.98952637 27.02319336 48.98413086 C31.93008759 48.96608574 36.83697887 48.95456979 41.74389648 48.94506836 C43.87118014 48.94002702 45.99846031 48.93319409 48.12573242 48.92456055 C51.17627826 48.91248621 54.22677845 48.90676986 57.27734375 48.90234375 C58.71327126 48.89460182 58.71327126 48.89460182 60.1782074 48.88670349 C61.49946373 48.88659019 61.49946373 48.88659019 62.84741211 48.88647461 C64.0165641 48.88314369 64.0165641 48.88314369 65.20933533 48.87974548 C67 49 67 49 68 50 C68 53.96 68 57.92 68 62 C45.56 62 23.12 62 0 62 C0 41.54 0 21.08 0 0 Z " fill="#FCCE82" transform="translate(1469,229)"/>
<path d="M0 0 C4.98901048 3.38607745 8.30064111 7.17207872 10.2421875 12.89453125 C9.99196372 17.5653752 8.92655574 20.68816726 6.0546875 24.39453125 C-1.74532272 31.32277562 -9.74649987 32.85848568 -19.921875 32.640625 C-28.19309211 31.9673864 -34.97553681 29.2357711 -40.9453125 23.39453125 C-43.40660108 19.96364413 -44.18167583 17.53142898 -43.8828125 13.39453125 C-43.12157391 9.27442548 -41.76706947 6.56900784 -38.9453125 3.39453125 C-28.18557984 -3.92366927 -11.95995361 -5.85582504 0 0 Z " fill="#F07F12" transform="translate(251.9453125,187.60546875)"/>
<path d="M0 0 C3.56968038 2.78702318 6.07468274 5.07387583 6.87890625 9.6484375 C6.60653185 15.27750834 4.97493557 17.23990818 1.06640625 21.1484375 C-4.44789399 25.4645688 -11.05394114 27.07890491 -17.98046875 26.8125 C-25.72162552 25.85134966 -33.14077156 23.4304182 -38.18359375 17.2109375 C-39.65976618 13.68452558 -39.7747827 11.3195475 -39.30859375 7.5234375 C-36.85251991 1.94145151 -33.11555737 0.02166279 -27.84375 -2.49609375 C-18.51836307 -6.10267637 -8.4447521 -5.401212 0 0 Z " fill="#EF7F12" transform="translate(76.30859375,122.4765625)"/>
<path d="M0 0 C2.65369134 2.15487718 4.13422741 4.16917644 5.55859375 7.265625 C5.55859375 10.93063768 4.82401014 12.82666713 2.93359375 15.953125 C-2.1147095 20.86857817 -6.51491596 21.48289002 -13.37890625 21.703125 C-20.92649123 21.52666712 -25.4983305 20.06154697 -30.94140625 14.890625 C-32.82237587 11.59892816 -33.12767293 10.00196584 -32.44140625 6.265625 C-29.86055668 2.27703931 -27.31777781 -0.57885625 -22.72265625 -2.26171875 C-15.21290062 -3.81767839 -6.71354442 -4.1003153 0 0 Z " fill="#EF7F12" transform="translate(248.44140625,68.734375)"/>
<path d="M0 0 C0 1.98 0 3.96 0 6 C-0.99 6.33 -1.98 6.66 -3 7 C-3 5.02 -3 3.04 -3 1 C-1 0 -1 0 0 0 Z " fill="#F58911" transform="translate(219,74)"/>
</svg>
