<?xml version="1.0" encoding="UTF-8"?>
<svg version="1.1" xmlns="http://www.w3.org/2000/svg" width="4096" height="4096">
<path d="M0 0 C426.36 0 852.72 0 1292 0 C1292.144375 175.786875 1292.28875 351.57375 1292.4375 532.6875 C1292.50122803 588.25342529 1292.56495605 643.81935059 1292.63061523 701.0690918 C1292.66223145 768.76721191 1292.66223145 768.76721191 1292.66810608 800.42976379 C1292.67485997 823.33999762 1292.70267025 846.25007714 1292.74287818 869.16026836 C1292.78515257 893.31866306 1292.80472056 917.4769711 1292.79493564 941.63540352 C1292.78888413 956.64730158 1292.80099396 971.6589264 1292.84565317 986.67077063 C1292.87191001 996.13930601 1292.87268467 1005.60762327 1292.85284738 1015.07617369 C1292.84227857 1020.46624932 1292.8426471 1025.85569463 1292.87417805 1031.24570239 C1293.1012804 1072.49004917 1293.1012804 1072.49004917 1285 1089 C1284.29756344 1090.51977035 1283.59635269 1092.04010786 1282.89635462 1093.56100291 C1281.08014216 1097.45985622 1279.07418255 1101.23355457 1277 1105 C1276.43539062 1106.05445312 1275.87078125 1107.10890625 1275.2890625 1108.1953125 C1263.10015273 1130.11246012 1244.92908207 1148.69522734 1220.32958984 1155.71362305 C1209.27679105 1158.74672309 1198.78196746 1159.1445797 1187.39233398 1159.11352539 C1185.93289695 1159.11324286 1184.47345978 1159.11340254 1183.01402283 1159.1139679 C1179.07665219 1159.1142533 1175.13931239 1159.10839824 1171.20194888 1159.10139394 C1167.07799866 1159.09511749 1162.95404764 1159.09455322 1158.83009338 1159.09336853 C1151.03179034 1159.09026782 1143.23350141 1159.0820715 1135.43520457 1159.07201904 C1126.55245822 1159.06081866 1117.66971118 1159.05533758 1108.78695953 1159.05032361 C1090.5246317 1159.03988778 1072.26231699 1159.02231286 1054 1159 C1054.00151888 1159.72089624 1054.00303776 1160.44179249 1054.00460267 1161.18453407 C1054.09429549 1203.99877284 1054.16283715 1246.8130013 1054.20426132 1289.62731534 C1054.20926359 1294.77872471 1054.21444093 1299.93013389 1054.21972656 1305.08154297 C1054.22130043 1306.61974294 1054.22130043 1306.61974294 1054.22290608 1308.18901765 C1054.24026739 1324.7497744 1054.27178128 1341.31047507 1054.30861118 1357.87119865 C1054.34614 1374.8892978 1054.36826097 1391.90736777 1054.37635398 1408.92550659 C1054.3818171 1419.40971749 1054.39901302 1429.89376985 1054.43166587 1440.37793189 C1054.45296152 1447.58682015 1054.45916637 1454.79562756 1054.45400551 1462.00454491 C1054.45146689 1466.15132219 1054.4550987 1470.2978243 1054.4768219 1474.44455147 C1054.71645977 1522.6390343 1044.02448641 1569.04101102 1010 1605 C1009.22914063 1605.8353125 1008.45828125 1606.670625 1007.6640625 1607.53125 C983.55080532 1632.81505365 948.31241994 1643.07614998 914.23046875 1644.19140625 C879.26507611 1644.85868474 843.62212955 1636.72391949 817 1613 C816.16082031 1612.29230469 815.32164062 1611.58460937 814.45703125 1610.85546875 C791.87570213 1591.42502276 777.89696075 1562.89836636 770.25 1534.5 C770.06348877 1533.81446045 769.87697754 1533.1289209 769.68481445 1532.42260742 C769.05894361 1529.95983794 768.53150643 1527.48502892 768 1525 C767.75063029 1523.91516642 767.50126059 1522.83033283 767.24433422 1521.7126255 C764.10750075 1506.72069473 764.59133926 1491.48483132 764.65180314 1476.2507453 C764.66489813 1472.10378466 764.66036464 1467.95683575 764.65809631 1463.80986023 C764.65653199 1456.64501937 764.66585255 1449.4802612 764.68280983 1442.31544113 C764.70731033 1431.95664306 764.71501633 1421.5978845 764.7187738 1411.2390606 C764.72532106 1394.42790582 764.74523512 1377.616795 764.77368164 1360.80566406 C764.80126707 1344.48633031 764.8224442 1328.1670086 764.83520508 1311.84765625 C764.83600907 1310.82954668 764.83681306 1309.81143711 764.83764142 1308.76247573 C764.84388059 1300.7988331 764.84975105 1292.83519021 764.85550511 1284.87154722 C764.88374751 1245.91432446 764.94411621 1206.95721187 765 1168 C687.12 1168 609.24 1168 529 1168 C529.03480469 1193.28496094 529.06960938 1218.56992188 529.10546875 1244.62109375 C529.12079567 1260.63085999 529.13537991 1276.64062172 529.14648438 1292.65039062 C529.15235758 1301.061605 529.1584189 1309.4728192 529.16479492 1317.8840332 C529.16598179 1319.46524368 529.16598179 1319.46524368 529.16719264 1321.07839781 C529.18022385 1338.07418527 529.20386607 1355.06994214 529.23145839 1372.06571149 C529.25955954 1389.52109322 529.2761862 1406.97645899 529.28226548 1424.43186241 C529.28637217 1435.19398287 529.29932075 1445.95601686 529.3237494 1456.71811069 C529.33966478 1464.10822093 529.34438728 1471.49828677 529.34050413 1478.88841289 C529.33859158 1483.14566332 529.34142556 1487.40276316 529.35761642 1491.6599865 C529.4755181 1524.25389505 529.4755181 1524.25389505 526 1538 C525.71198658 1539.26621264 525.71198658 1539.26621264 525.41815472 1540.55800533 C518.19888721 1570.7254761 499.94510266 1598.98358446 473.4777832 1615.58764648 C435.93871745 1638.36948104 388.97386231 1643.60657904 346.58911133 1633.30688477 C324.1527866 1627.52047063 302.72196222 1618.14564172 285 1603 C283.85337891 1602.06027344 283.85337891 1602.06027344 282.68359375 1601.1015625 C256.61652465 1579.23885938 245.40493373 1546.53203184 242.26847625 1513.62705994 C241.38887619 1501.74384063 241.60529288 1489.78653635 241.65180314 1477.87800765 C241.66496154 1473.63708244 241.66036031 1469.39616759 241.65809631 1465.15522766 C241.65653587 1457.83661568 241.66581492 1450.51808496 241.68280983 1443.19949341 C241.70736429 1432.61851875 241.71502176 1422.03758272 241.7187738 1411.45658267 C241.72531274 1394.28271913 241.74520386 1377.10889875 241.77368164 1359.93505859 C241.80128886 1343.26871962 241.82248967 1326.60239243 241.83520508 1309.93603516 C241.83638733 1308.390762 241.83638733 1308.390762 241.83759347 1306.81427121 C241.84150906 1301.64529379 241.84530007 1296.47631628 241.84902918 1291.30733871 C241.8800453 1248.53819595 241.93281065 1205.76910022 242 1163 C241.25807183 1163.00184359 240.51614367 1163.00368717 239.75173283 1163.00558662 C221.62834817 1163.04991831 203.50497445 1163.08293039 185.38154697 1163.10362434 C176.61689356 1163.11389993 167.85227653 1163.12788843 159.08764648 1163.15087891 C151.44088032 1163.17092741 143.79414054 1163.18374338 136.14734882 1163.18817699 C132.10526984 1163.19076514 128.06326624 1163.1967691 124.02121162 1163.21146011 C88.03047447 1163.33701951 53.16116046 1161.39449501 25.85546875 1134.9453125 C5.22648294 1114.14378583 -0.33618676 1086.887644 -0.24609566 1058.70351791 C-0.24757665 1056.8521123 -0.24993565 1055.00070721 -0.25308805 1053.14930369 C-0.25920704 1048.0662763 -0.25289266 1042.9833293 -0.2445315 1037.90030792 C-0.23765961 1032.38148873 -0.24241216 1026.86267761 -0.24569702 1021.34385681 C-0.24985225 1011.66283121 -0.24655874 1001.98183023 -0.23843026 992.30080748 C-0.22964605 981.8043751 -0.22525666 971.30795198 -0.22614455 960.81151628 C-0.22619851 960.14279448 -0.22625246 959.47407268 -0.22630805 958.78508659 C-0.22660323 955.37467179 -0.22696929 951.964257 -0.22736086 948.5538422 C-0.23002604 924.11647703 -0.22327482 899.67912219 -0.21115112 875.24176025 C-0.19479309 842.19909251 -0.19094556 809.15644556 -0.18920898 776.11376953 C-0.17870205 696.6591775 -0.15077991 617.20458854 -0.125 537.75 C-0.08375 360.2925 -0.0425 182.835 0 0 Z " fill="#72BE48" transform="translate(1390,1180)"/>
<path d="M0 0 C4.48570095 4.52551872 8.3073959 9.32260443 12.02148438 14.4934082 C12.623396 15.32090576 13.22530762 16.14840332 13.84545898 17.00097656 C15.70199423 19.5565341 17.54979194 22.11823226 19.39648438 24.6809082 C20.50937451 26.21764985 21.62264181 27.75411845 22.73632812 29.2902832 C24.89065144 32.26486781 27.04005041 35.24291994 29.18554688 38.22387695 C31.31996777 41.1893596 33.4606446 44.15013996 35.60742188 47.10668945 C42.50098888 56.60727817 49.27811348 66.18298038 55.99414062 75.80981445 C59.11191602 80.27847927 62.25007595 84.73237479 65.39648438 89.1809082 C71.50056815 97.81590395 77.56334114 106.4795789 83.62304688 115.14575195 C85.3588207 117.6270674 87.09610951 120.10731394 88.83398438 122.5871582 C94.35695057 130.46913686 99.87197754 138.35645768 105.36474609 146.25952148 C106.71101294 148.19528561 108.0589747 150.12987214 109.40869141 152.06323242 C112.76899563 156.87969577 116.10041846 161.7119753 119.38085938 166.58325195 C120.01507812 167.51524414 120.64929687 168.44723633 121.30273438 169.4074707 C122.50646745 171.17736637 123.69970035 172.95446208 124.88085938 174.73950195 C125.68523437 175.91512695 125.68523437 175.91512695 126.50585938 177.11450195 C127.20146973 178.15175415 127.20146973 178.15175415 127.91113281 179.20996094 C129.52177285 181.15001028 129.52177285 181.15001028 133.39648438 180.6809082 C135.40785533 180.04995606 137.39571562 179.34253607 139.36523438 178.59106445 C140.56083984 178.14110107 141.75644531 177.6911377 142.98828125 177.22753906 C143.6237085 176.98582977 144.25913574 176.74412048 144.91381836 176.49508667 C200.52659667 155.4108861 258.71341939 142.12885617 317.77148438 135.4309082 C318.43757721 135.35377594 319.10367004 135.27664368 319.78994751 135.19717407 C345.48409278 132.26513943 371.23383706 131.2943288 397.07314682 131.36285019 C399.25430119 131.36852613 401.43544766 131.37132451 403.61660767 131.37393188 C427.64155607 131.41557506 451.48986326 132.16068128 475.39648438 134.6809082 C476.62615936 134.80819305 476.62615936 134.80819305 477.88067627 134.93804932 C545.89490694 142.02152874 611.76239293 158.78363527 675.39648438 183.6809082 C675.65776123 182.96112793 675.91903809 182.24134766 676.18823242 181.49975586 C677.44248648 178.57358546 678.92466606 176.20035678 680.72851562 173.5793457 C681.78147827 172.03960083 681.78147827 172.03960083 682.85571289 170.46875 C683.23688263 169.9160141 683.61805237 169.3632782 684.01077271 168.79379272 C685.67753448 166.3763238 687.33330964 163.95140131 688.98973083 161.52684021 C689.91303293 160.1753968 690.83684827 158.82430394 691.76112366 157.473526 C697.72936476 148.74576693 703.63550367 139.9760579 709.54476929 131.20831299 C711.41816344 128.42896961 713.29259556 125.65032883 715.16723633 122.87182617 C720.24947218 115.33673925 725.32755423 107.79926009 730.36132812 100.23168945 C737.45291034 89.57088266 744.63587267 78.97136035 751.80126953 68.36010742 C760.18998818 55.93581667 768.56115974 43.50094612 776.83349609 30.9987793 C778.84147157 27.96521448 780.85950531 24.93855604 782.8840332 21.91601562 C783.69310065 20.70397827 784.49836357 19.48939374 785.30004883 18.27246094 C796.84272364 0.76719131 796.84272364 0.76719131 805.39648438 -1.3190918 C813.4953535 -2.62069576 819.80153052 1.17086701 826.39648438 5.6809082 C830.84593161 10.67533807 831.90880355 13.82347299 831.77612305 20.44238281 C830.52029391 31.15529178 822.10221085 40.92227028 816.08398438 49.6184082 C815.15946533 50.96686302 814.23582435 52.3159202 813.31298828 53.66552734 C811.35340884 56.53056202 809.39073417 59.39344008 807.42626953 62.25512695 C802.85752014 68.91932057 798.3421799 75.6196151 793.82363892 82.31790161 C791.72552952 85.42758841 789.62540308 88.53591086 787.52537537 91.64430237 C779.18367785 103.99198089 770.84783151 116.34361314 762.51245117 128.69555664 C756.8876127 137.03039264 751.26017412 145.36345364 745.62695312 153.69262695 C734.83211846 169.65490363 724.04590286 185.62105171 713.39648438 201.6809082 C714.53537109 202.00188477 714.53537109 202.00188477 715.69726562 202.3293457 C720.89014434 204.22663824 725.68735841 206.75033652 730.58398438 209.3059082 C731.67533691 209.87494873 732.76668945 210.44398926 733.89111328 211.03027344 C746.67390684 217.7763941 759.06226687 225.15044021 771.39648438 232.6809082 C772.29125488 233.22634277 773.18602539 233.77177734 774.10791016 234.33374023 C798.05283797 249.00425696 820.91846343 265.5889122 842.39648438 283.6809082 C843.43667355 284.54700433 844.47704887 285.41287693 845.51757812 286.27856445 C852.42074572 292.04603974 859.10765279 298.00307598 865.69750977 304.12548828 C866.99177078 305.31039084 868.29783884 306.48241054 869.60913086 307.6484375 C875.97808868 313.31342162 882.07053613 319.20371946 888.08398438 325.2434082 C888.98181641 326.13737305 889.87964844 327.03133789 890.8046875 327.95239258 C895.33163279 332.48597076 899.72415018 337.07385558 903.89672852 341.93603516 C905.96442129 344.34166763 908.11915274 346.66352732 910.27148438 348.9934082 C915.19155743 354.39584136 919.84003451 359.97005577 924.39648438 365.6809082 C924.80447266 366.18928223 925.21246094 366.69765625 925.6328125 367.22143555 C952.04220933 400.17270205 974.95628065 435.59442909 993.38818359 473.61547852 C994.45936659 475.80971779 995.55471127 477.99099494 996.65039062 480.1730957 C1021.17613391 529.62426846 1045.39648438 594.93050199 1045.39648438 650.6809082 C618.37648438 650.6809082 191.35648438 650.6809082 -248.60351562 650.6809082 C-245.06459232 623.54916284 -245.06459232 623.54916284 -242.91601562 612.6809082 C-242.79035217 612.04236908 -242.66468872 611.40382996 -242.53521729 610.74594116 C-224.4809241 519.58275065 -182.5572208 433.5944603 -122.60351562 362.6809082 C-122.08015625 362.05845215 -121.55679687 361.43599609 -121.01757812 360.79467773 C-109.44929807 347.05000489 -97.18421113 334.09276377 -84.46582031 321.4128418 C-82.33866778 319.29109812 -80.21698002 317.16399329 -78.09570312 315.03637695 C-76.7184198 313.6597538 -75.34082664 312.28344054 -73.96289062 310.9074707 C-73.34186462 310.28442047 -72.72083862 309.66137024 -72.08099365 309.0194397 C-67.74937954 304.71053192 -63.23683823 300.66189108 -58.60351562 296.6809082 C-57.48577501 295.70758469 -56.3684921 294.73373493 -55.25195312 293.7590332 C-47.22770841 286.80784025 -39.0341595 280.13236298 -30.60351562 273.6809082 C-29.8795459 273.12564453 -29.15557617 272.57038086 -28.40966797 271.99829102 C-9.55634115 257.5822053 9.67552636 243.91226885 30.19921875 231.9699707 C32.19083604 230.80155523 34.16439787 229.60978836 36.13085938 228.3996582 C43.81329174 223.67755564 51.65742987 219.29335094 59.58398438 214.9934082 C60.56979492 214.45852783 61.55560547 213.92364746 62.57128906 213.37255859 C82.42319491 202.6809082 82.42319491 202.6809082 85.39648438 202.6809082 C71.60233026 182.28419728 57.80141853 161.89208985 43.98925781 141.50756836 C40.06269585 135.71251087 36.13688021 129.9169478 32.21099854 124.12142944 C30.02285679 120.89123561 27.83466825 117.66107349 25.64648438 114.4309082 C24.77148415 113.13924169 23.89648415 111.84757502 23.02148438 110.5559082 C22.58835937 109.9165332 22.15523437 109.2771582 21.70898438 108.6184082 C17.77148436 102.80590818 17.77148436 102.80590818 16.4591217 100.86860657 C15.58366934 99.57627503 14.70821157 98.28394715 13.83274841 96.99162292 C11.65212542 93.77265869 9.47159477 90.55363197 7.29125977 87.33447266 C2.34361823 80.02976911 -2.60565728 72.72618083 -7.55973816 65.42584229 C-9.8159553 62.1002399 -12.06913508 58.77266439 -14.31518555 55.44018555 C-18.02363923 49.9407011 -21.741067 44.45629597 -25.58789062 39.05200195 C-26.44821899 37.82380737 -26.44821899 37.82380737 -27.32592773 36.57080078 C-28.33560148 35.13263966 -29.36082713 33.70517588 -30.40649414 32.29296875 C-33.73171979 27.50803905 -34.52328735 23.4657696 -33.60351562 17.6809082 C-29.98796341 9.32679134 -20.55551695 2.58188999 -12.60351562 -1.3190918 C-8.19633903 -2.71648925 -3.76661597 -3.09851189 0 0 Z " fill="#72BE48" transform="translate(1636.603515625,431.319091796875)"/>
<path d="M0 0 C26.3823672 23.43611299 38.63362174 57.62471207 41.5480957 92.14819336 C41.68698337 95.83518544 41.69401341 99.51837304 41.69234753 103.20769882 C41.69578894 104.29403943 41.69923035 105.38038003 41.70277604 106.49964005 C41.71310582 110.14110219 41.716426 113.78253646 41.71977234 117.42401123 C41.72577158 120.06081116 41.7321578 122.6976076 41.73901206 125.33440518 C41.75312465 131.06828653 41.76356946 136.80216546 41.77159309 142.53605843 C41.78352876 151.06323468 41.80107433 159.59039303 41.81967148 168.11755702 C41.85460111 184.23649234 41.8827616 200.35543522 41.90869292 216.4743872 C41.92874095 228.92727618 41.95034207 241.38016152 41.973032 253.83304596 C41.97954712 257.41904297 41.98605393 261.00504 41.99255782 264.59103703 C41.99417508 265.4825712 41.99579234 266.37410537 41.99745861 267.29265573 C42.04288614 292.37089437 42.08611705 317.44913603 42.12500286 342.52738571 C42.12647014 343.47287541 42.12793742 344.4183651 42.12944917 345.392506 C42.13688194 350.18448942 42.14429949 354.97647286 42.15171411 359.76845631 C42.1531871 360.72013443 42.1546601 361.67181256 42.15617773 362.65232941 C42.15915641 364.57685716 42.1621337 366.5013849 42.16510961 368.42591265 C42.21143813 398.348493 42.26594347 428.27104903 42.32666016 458.19360352 C42.39489736 491.82513929 42.45622688 525.4566782 42.50791007 559.08824372 C42.51345173 562.67801304 42.51902004 566.26778232 42.5246067 569.85755157 C42.5259782 570.74141665 42.5273497 571.62528172 42.52876275 572.53593058 C42.55095197 586.73264243 42.57966606 600.92933381 42.61067832 615.1260288 C42.64169734 629.40905156 42.66505587 643.69207148 42.68078145 657.97511938 C42.69032441 666.44910803 42.70542142 674.9230427 42.72871592 683.39700495 C42.74374713 689.07199522 42.75125927 694.74696476 42.75290305 700.42197459 C42.75404176 703.64593082 42.75934842 706.86977712 42.77158602 710.09371278 C42.90426913 746.47484138 39.60080849 783.58711251 14.5480957 812.14819336 C13.94610352 812.89327148 13.34411133 813.63834961 12.72387695 814.40600586 C-7.36762424 838.58320017 -39.51512443 848.61224129 -69.7409668 851.76928711 C-76.75999393 852.32970353 -83.78929647 852.34689892 -90.8269043 852.33569336 C-91.88187607 852.33478699 -91.88187607 852.33478699 -92.9581604 852.3338623 C-134.49088028 852.23740999 -177.55200692 844.17957179 -208.40893555 814.28881836 C-213.0069343 809.65782304 -216.83310731 804.56926522 -220.4519043 799.14819336 C-221.06549805 798.2394043 -221.6790918 797.33061523 -222.3112793 796.39428711 C-239.6733063 768.77637247 -240.76519714 735.57402541 -240.71260071 704.00514221 C-240.7156268 701.40834711 -240.71951857 698.8115529 -240.72419327 696.21476024 C-240.73289066 690.60235401 -240.73429066 684.98998429 -240.73069 679.37757301 C-240.72534969 671.03122168 -240.73151144 662.68490526 -240.73977294 654.33855772 C-240.7549626 638.56093156 -240.75672328 622.78332152 -240.75424991 607.00568957 C-240.75241306 594.8190828 -240.75418506 582.63248128 -240.75847435 570.44587517 C-240.75907676 568.69140119 -240.75967796 566.93692721 -240.76027795 565.18245323 C-240.76118526 562.53824645 -240.76209393 559.89403967 -240.7630103 557.24983289 C-240.77143199 532.68634599 -240.77578087 508.12286105 -240.77160358 483.5593729 C-240.77144721 482.6346037 -240.77129083 481.70983451 -240.77112972 480.757042 C-240.770324 476.07055625 -240.76947823 471.3840705 -240.76861642 466.69758476 C-240.76844533 465.76692765 -240.76827424 464.83627054 -240.76809797 463.8774117 C-240.76775131 461.99540135 -240.76740278 460.11339101 -240.76705238 458.23138067 C-240.76169474 428.94476921 -240.76963004 399.65818787 -240.78808594 370.37158203 C-240.80882414 337.42517538 -240.81952535 304.47878738 -240.81551045 271.53237385 C-240.81511514 268.01635834 -240.81475358 264.50034283 -240.81441307 260.98432732 C-240.81432234 260.11867155 -240.81423161 259.25301579 -240.81413813 258.36112804 C-240.81297466 245.32256241 -240.81960117 232.28401569 -240.83022499 219.24545479 C-240.84230059 204.41050946 -240.84380866 189.57560564 -240.83143482 174.74065966 C-240.82482893 166.45101381 -240.82638463 158.16146736 -240.84002334 149.87182955 C-240.84929515 143.66450462 -240.84269586 137.4572879 -240.83017554 131.24997079 C-240.82753589 128.75223041 -240.82987189 126.25447829 -240.8379114 123.75674946 C-240.97324116 78.54606103 -229.47106633 35.43512981 -197.4519043 2.14819336 C-147.01966234 -45.458104 -51.8648567 -44.7435763 0 0 Z " fill="#72BE48" transform="translate(3007.451904296875,1211.851806640625)"/>
<path d="M0 0 C0.66128906 0.51691406 1.32257813 1.03382812 2.00390625 1.56640625 C27.44322755 22.072041 39.10954359 58.21008717 42.527744 89.54760766 C43.0749566 95.15151783 43.14247146 100.70895598 43.13422108 106.33593369 C43.13657331 107.44001227 43.13892554 108.54409086 43.14134905 109.68162638 C43.14800051 113.37742157 43.14758199 117.07318128 43.14717102 120.76898193 C43.15047204 123.44717977 43.1541607 126.12537458 43.1583125 128.80357099 C43.16761046 135.38986027 43.1715558 141.97614283 43.17383147 148.56243786 C43.17680088 156.45455585 43.1855026 164.34666499 43.19424575 172.23877833 C43.21506118 191.3123924 43.22555545 210.386008 43.23437535 229.45963078 C43.23858609 238.48836843 43.24380751 247.51710543 43.24905988 256.54584253 C43.26694774 287.4709021 43.2819423 318.39596187 43.28938007 349.32102585 C43.28985483 351.26145953 43.29033071 353.20189322 43.29080774 355.14232691 C43.29104411 356.10457584 43.29128049 357.06682477 43.29152403 358.05823276 C43.29272518 362.93319033 43.29394065 367.8081479 43.29516602 372.68310547 C43.29540617 373.6505425 43.29564632 374.61797953 43.29589374 375.61473284 C43.30378355 406.96882326 43.32721002 438.32287582 43.35972196 469.67694972 C43.39405712 502.85006873 43.41373461 536.02316559 43.41702431 569.19630265 C43.41744183 572.84140159 43.41792139 576.48650051 43.41844749 580.13159943 C43.41857069 581.02908208 43.41869388 581.92656473 43.4188208 582.85124383 C43.4211482 597.26436186 43.43678234 611.67743573 43.45728934 626.09053805 C43.47759381 640.59191768 43.48300284 655.09324455 43.47351871 669.59463575 C43.46832173 678.19732326 43.47409542 686.79983449 43.49605338 695.40249646 C43.50964241 701.16452694 43.50841368 706.92643718 43.49565142 712.68846908 C43.48880809 715.96137354 43.49016797 719.23388038 43.50521151 722.50676677 C43.66007573 758.44878343 36.12472656 793.03362253 10.0625 819.375 C4.75867389 824.56653127 -0.57614575 829.22654716 -7 833 C-7.59087402 833.34869141 -8.18174805 833.69738281 -8.79052734 834.05664062 C-23.54469401 842.63795926 -39.14080086 848.20248454 -56 851 C-57.23492188 851.20496094 -58.46984375 851.40992187 -59.7421875 851.62109375 C-103.5728684 857.99414804 -157.69655695 853.00598611 -194.29394531 826.31469727 C-219.0640878 807.44273339 -231.9284581 781.67497306 -237.3125 751.375 C-238.5512812 742.16889303 -239.14812561 733.0723231 -239.13142776 723.78530979 C-239.1334804 722.70649214 -239.13553303 721.6276745 -239.13764787 720.51616541 C-239.14328841 716.91234101 -239.14186427 713.30855518 -239.14044189 709.70472717 C-239.14302722 707.09023874 -239.14604084 704.47575071 -239.1494453 701.86126322 C-239.15699804 695.43649951 -239.15921696 689.01174412 -239.15977435 682.58697644 C-239.16069069 674.88747795 -239.16736621 667.18798709 -239.17412117 659.4884919 C-239.19015551 640.88271229 -239.19608147 622.27693352 -239.20086992 603.67114823 C-239.20320837 594.86407745 -239.20681129 586.05700731 -239.2105653 577.24993702 C-239.22339834 547.08383921 -239.23411788 516.91774176 -239.2375679 486.75164127 C-239.23778953 484.8592013 -239.23801132 482.96676133 -239.23823325 481.07432136 C-239.23845389 479.17739844 -239.23867437 477.28047553 -239.2388947 475.38355261 C-239.23933724 471.57821151 -239.23978436 467.7728704 -239.24023438 463.9675293 C-239.24034377 463.02403112 -239.24045316 462.08053294 -239.24056586 461.1084439 C-239.2441956 430.52309312 -239.26011379 399.93776604 -239.28342474 369.35242434 C-239.30804356 336.9917225 -239.32174168 304.63103421 -239.32293582 272.27032274 C-239.32310726 268.71514698 -239.32332269 265.15997122 -239.32357025 261.60479546 C-239.32362602 260.72945486 -239.32368179 259.85411427 -239.32373925 258.95224821 C-239.32488787 244.89120598 -239.33589372 230.83018817 -239.35045731 216.76915418 C-239.36485294 202.62528248 -239.368042 188.48144196 -239.36001733 174.33756495 C-239.35557559 165.94555054 -239.3593631 157.55363705 -239.37525584 149.16163598 C-239.38505927 143.54261908 -239.38377686 137.9236723 -239.37381961 132.30465593 C-239.36846591 129.11186152 -239.36928691 125.91929612 -239.38032833 122.72651089 C-239.50728828 83.50979035 -231.14020032 43.5368701 -205 13 C-204.57106445 12.48888672 -204.14212891 11.97777344 -203.70019531 11.45117188 C-181.83709516 -14.44744491 -149.53563939 -27.6979151 -116.23632812 -30.77294922 C-75.01621903 -33.66482471 -32.26858385 -27.73170036 0 0 Z " fill="#72BE48" transform="translate(1254,1211)"/>
<path d="M0 0 C4.06668544 0.01770591 8.13335531 0.01160606 12.20006882 0.00872833 C20.06276841 0.00661793 27.92528246 0.0249272 35.78793463 0.05073364 C44.89951897 0.07973354 54.01099468 0.08272348 63.12263523 0.08587295 C87.13491198 0.10680447 111.14714805 0.1626495 135.15937839 0.21429092 C215.68969089 0.33804092 215.68969089 0.33804092 297.84687839 0.46429092 C297.84687839 158.86429092 297.84687839 317.26429092 297.84687839 480.46429092 C262.86687839 480.46429092 227.88687839 480.46429092 191.84687839 480.46429092 C191.84687839 357.70429092 191.84687839 234.94429092 191.84687839 108.46429092 C153.56687839 108.50554092 115.28687839 108.54679092 75.84687839 108.58929092 C63.77609714 108.58687392 51.70531589 108.58445693 39.26875339 108.5819667 C28.4142493 108.60851107 28.4142493 108.60851107 17.55976902 108.64297134 C12.7387016 108.65806546 7.91795354 108.65650887 3.09687839 108.64468032 C-3.06716458 108.63011085 -9.23052198 108.64451882 -15.3944775 108.67923552 C-17.64760335 108.68711494 -19.90079257 108.68511528 -22.15389217 108.6716848 C-49.52265676 108.52172444 -70.55078345 119.67391301 -90.34062161 138.21429092 C-118.13170686 167.374102 -131.93952077 209.98991046 -131.62577786 249.67278701 C-130.76985678 281.96054879 -116.00689811 309.3403804 -94.15312161 332.46429092 C-93.42995754 333.2519081 -92.70679348 334.03952529 -91.96171536 334.85100967 C-75.50106845 352.1472224 -54.51003293 364.24677579 -33.15312161 374.46429092 C-32.54468788 374.82069341 -31.93625416 375.1770959 -31.30938305 375.54429847 C-28.55986087 376.71741208 -26.38340454 376.7265818 -23.395126 376.74276382 C-22.22005993 376.7539273 -21.04499386 376.76509078 -19.83431973 376.77659255 C-18.54894817 376.77875274 -17.26357662 376.78091293 -15.93925442 376.78313857 C-14.56921769 376.7924388 -13.19918662 376.80260761 -11.82916225 376.81357986 C-8.11258751 376.84088343 -4.39605068 376.85603028 -0.67940201 376.86900789 C3.2057248 376.88463688 7.09077416 376.91142783 10.97584568 376.93703872 C18.33157976 376.98383062 25.6873284 377.02057273 33.04313527 377.05371159 C42.9838853 377.09907614 52.92453953 377.15995013 62.86520992 377.21995956 C78.52571807 377.31408902 94.18625354 377.38748352 109.84687839 377.46429092 C109.84687839 412.77429092 109.84687839 448.08429092 109.84687839 484.46429092 C58.24818059 484.46429092 58.24818059 484.46429092 41.63613068 484.33220035 C37.2548911 484.29777096 32.87401201 484.27277391 28.49263035 484.26873428 C7.72353119 484.24293452 -11.90525679 483.64445087 -32.15312161 478.46429092 C-33.24649838 478.18673965 -34.33987515 477.90918838 -35.46638454 477.62322646 C-70.23031094 468.69482924 -103.97666886 455.16314166 -132.15312161 432.46429092 C-133.05933254 431.74886123 -133.96554348 431.03343154 -134.89921536 430.29632217 C-141.93755264 424.65566888 -148.59268314 418.64695133 -155.15312161 412.46429092 C-155.88530911 411.77464248 -156.61749661 411.08499404 -157.37187161 410.37444717 C-162.78341902 405.12395771 -167.4762153 399.36908065 -172.15312161 393.46429092 C-172.92398098 392.52198623 -173.69484036 391.57968154 -174.48905911 390.60882217 C-213.2145552 342.17062075 -233.69938329 275.67631819 -227.55546536 214.04729873 C-222.21475312 166.48644145 -207.15701893 117.10174913 -175.15312161 80.46429092 C-174.251878 79.37285198 -173.35360537 78.27895517 -172.45780911 77.18304092 C-144.13873823 42.830568 -103.94496044 19.59056923 -61.52812161 7.15179092 C-60.42307278 6.82440933 -60.42307278 6.82440933 -59.29569973 6.49041396 C-56.59593872 5.7420361 -53.88059711 5.10561484 -51.15312161 4.46429092 C-50.52026639 4.30601743 -49.88741117 4.14774393 -49.23537852 3.98467427 C-32.9058928 -0.01189208 -16.70262611 -0.09167221 0 0 Z " fill="#646568" transform="translate(471.1531216055155,3192.5357090830803)"/>
<path d="M0 0 C2.72698728 2.504085 5.40588554 5.05586236 8.07128906 7.62524414 C8.6273584 8.15939941 9.18342773 8.69355469 9.75634766 9.24389648 C17.06811853 16.30389906 23.88125475 23.54140563 30.07128906 31.62524414 C30.49087891 32.16842285 30.91046875 32.71160156 31.34277344 33.27124023 C39.02215409 43.26284316 45.7793613 53.7112404 52.07128906 64.62524414 C52.49796875 65.36194336 52.92464844 66.09864258 53.36425781 66.85766602 C84.31341391 120.99488214 92.31189633 189.46875332 76.53613281 249.66040039 C71.27322326 268.77444238 64.45086062 287.15241817 55.07128906 304.62524414 C54.68714844 305.35340332 54.30300781 306.0815625 53.90722656 306.83178711 C48.34310423 317.35201679 42.27833422 327.15792004 35.07128906 336.62524414 C34.6476709 337.19162598 34.22405273 337.75800781 33.78759766 338.34155273 C23.3615809 352.25728552 11.43026532 366.10471407 -2.17871094 377.00024414 C-4.94315319 379.21627478 -7.69744264 381.42532801 -10.37792969 383.74243164 C-48.96707842 416.81884484 -103.92946737 437.56930002 -154.84277344 437.82836914 C-155.76688019 437.83542877 -156.69098694 437.8424884 -157.64309692 437.84976196 C-196.38852836 438.07855357 -196.38852836 438.07855357 -212.92871094 434.62524414 C-214.41709473 434.31925293 -214.41709473 434.31925293 -215.93554688 434.00708008 C-249.06674002 427.00149999 -282.36843225 414.70906424 -309.92871094 394.62524414 C-310.52425781 394.19663086 -311.11980469 393.76801758 -311.73339844 393.32641602 C-330.76733981 379.58605071 -348.48943967 364.21729756 -362.92871094 345.62524414 C-363.93468448 344.37090713 -364.94123434 343.11703219 -365.94824219 341.86352539 C-373.74691311 332.0405485 -380.42503881 321.79676509 -386.62988281 310.90161133 C-387.75761556 308.9251113 -388.90922421 306.96560655 -390.06933594 305.00805664 C-421.7797947 249.19249305 -426.05854321 179.59683832 -409.58642578 118.48339844 C-400.39885289 86.05620227 -384.62668747 57.03229831 -363.92871094 30.62524414 C-363.49365234 30.0701416 -363.05859375 29.51503906 -362.61035156 28.94311523 C-351.40125965 14.81879051 -338.35672233 1.45652905 -323.92871094 -9.37475586 C-323.3927832 -9.78709473 -322.85685547 -10.19943359 -322.3046875 -10.62426758 C-312.30524971 -18.31291092 -301.84257864 -25.05973806 -290.92871094 -31.37475586 C-290.25146973 -31.76904785 -289.57422852 -32.16333984 -288.87646484 -32.56958008 C-202.14973445 -82.4528724 -89.32527506 -70.43069218 0 0 Z M-269.92871094 86.62524414 C-270.77598755 87.4407373 -270.77598755 87.4407373 -271.64038086 88.27270508 C-294.89381716 111.04043821 -310.73633919 145.70692544 -311.13183594 178.45727539 C-311.55945538 221.04549912 -299.42251379 257.46530808 -269.76074219 288.82446289 C-250.4576419 307.91456345 -227.21845812 320.85389908 -200.92871094 327.62524414 C-200.24115723 327.80313477 -199.55360352 327.98102539 -198.84521484 328.16430664 C-179.03496169 332.98650784 -154.61691649 332.84642572 -134.92871094 327.62524414 C-134.16123535 327.43188477 -133.39375977 327.23852539 -132.60302734 327.03930664 C-95.75136449 317.58754431 -63.52201898 294.34928089 -44.00341797 261.4934082 C-34.58271032 245.11738482 -28.34897047 228.19402589 -24.92871094 209.62524414 C-24.73535156 208.58625977 -24.54199219 207.54727539 -24.34277344 206.47680664 C-22.34393077 187.88379843 -23.30678525 168.73517482 -27.92871094 150.62524414 C-28.09999512 149.95074219 -28.2712793 149.27624023 -28.44775391 148.58129883 C-37.63600914 114.21139886 -61.27296375 84.64773157 -90.92871094 65.62524414 C-91.98445313 64.9459082 -93.04019531 64.26657227 -94.12792969 63.56665039 C-151.21739442 28.90760257 -223.06841052 41.35747077 -269.92871094 86.62524414 Z " fill="#646568" transform="translate(2976.9287109375,3238.374755859375)"/>
<path d="M0 0 C0.83770935 0.00093658 1.6754187 0.00187317 2.53851318 0.00283813 C15.2492536 0.03356673 27.78459744 0.28671368 40.375 2.1875 C41.42204102 2.34347656 42.46908203 2.49945312 43.54785156 2.66015625 C88.21953058 9.53076481 132.02714279 24.91127328 166.375 55.1875 C167.34695313 56.03828125 168.31890625 56.8890625 169.3203125 57.765625 C199.25234351 84.35587006 218.58418799 118.8555456 229.375 157.1875 C229.61202637 158.02829102 229.84905273 158.86908203 230.09326172 159.73535156 C236.92437039 184.61209421 238.99881109 209.78956708 238.83926249 235.49358499 C238.8215621 239.09296801 238.82786335 242.69233359 238.83087158 246.29174805 C238.8329428 252.49005999 238.82067228 258.68820015 238.79792023 264.88646889 C238.76504884 273.84747551 238.75495787 282.80840129 238.74996826 291.76946165 C238.74126981 306.31730181 238.71480444 320.86505091 238.67675781 335.4128418 C238.63989505 349.52286329 238.61165367 363.63285983 238.59472656 377.74291992 C238.59367567 378.61646464 238.59262477 379.49000935 238.59154204 380.39002512 C238.5863209 384.77347758 238.58126631 389.15693022 238.57629442 393.54038298 C238.53500261 429.75616959 238.46135837 465.97178732 238.375 502.1875 C203.725 502.1875 169.075 502.1875 133.375 502.1875 C133.37089111 494.18419434 133.36678223 486.18088867 133.36254883 477.93505859 C133.34584882 452.25201759 133.30460605 426.56907134 133.24814438 400.88608881 C133.23937888 396.88874059 133.23082885 392.89139194 133.22241211 388.89404297 C133.22073305 388.09832904 133.21905398 387.30261511 133.21732404 386.48278864 C133.19074104 373.64218983 133.18156522 360.80163568 133.17895857 347.96101217 C133.17588616 334.76003918 133.15379158 321.55919409 133.11447543 308.35827887 C133.09085188 300.22947169 133.08161299 292.10092076 133.09148689 283.97208412 C133.096852 278.37830093 133.08354236 272.78474481 133.0563371 267.19102626 C133.04122782 263.97603611 133.03638602 260.76164869 133.04840279 257.54663086 C133.18332597 217.44191659 120.16813329 179.59822306 92.375 150.1875 C91.71628906 149.4759375 91.05757812 148.764375 90.37890625 148.03125 C85.52709463 142.95490786 80.25471278 139.00479045 74.375 135.1875 C73.64023438 134.68476563 72.90546875 134.18203125 72.1484375 133.6640625 C52.26339075 120.74903213 27.56016176 116.77314795 4.25 117.203125 C3.22302002 117.21962097 2.19604004 117.23611694 1.13793945 117.25311279 C-1.02349546 117.2903549 -3.18487634 117.33086512 -5.34619141 117.37451172 C-8.58880902 117.43680475 -11.8312702 117.47863097 -15.07421875 117.51953125 C-50.97776737 118.11832098 -83.86363631 126.66003593 -110.625 151.8125 C-140.07827207 182.33464081 -143.8475728 224.59292415 -144.03564453 264.85424805 C-144.05484469 267.48756857 -144.07478577 270.12087396 -144.09564209 272.75418091 C-144.13877887 278.38398623 -144.17520723 284.01380127 -144.20685196 289.64368248 C-144.25261284 297.78316604 -144.30884416 305.92255191 -144.36749052 314.06195161 C-144.46240208 327.27310978 -144.54904709 340.48430835 -144.63037109 353.69555664 C-144.7093068 366.515901 -144.79221183 379.33620975 -144.88037109 392.15649414 C-144.88581964 392.94903021 -144.89126818 393.74156629 -144.89688183 394.5581186 C-144.9242445 398.53472402 -144.95168431 402.5113289 -144.97916245 406.48793352 C-145.20639886 439.38771852 -145.41862271 472.28757589 -145.625 505.1875 C-177.965 505.1875 -210.305 505.1875 -243.625 505.1875 C-243.625 455.72591456 -243.625 455.72591456 -243.36547852 436.42163086 C-243.33732245 434.1717913 -243.30939741 431.92194885 -243.28167725 429.67210388 C-243.20771515 423.72677862 -243.13039747 417.78150209 -243.05214429 411.83623195 C-242.98644259 406.81866215 -242.92252279 401.80107021 -242.85857147 396.78347784 C-242.69905619 384.26981322 -242.53626429 371.75619349 -242.37180083 359.24259306 C-242.23899765 349.1310846 -242.10945578 339.01953844 -241.98217773 328.90795898 C-241.83277654 317.03881265 -241.68106162 305.16969847 -241.52618736 293.30062205 C-241.44480962 287.06297479 -241.36432012 280.82531978 -241.28631783 274.58762932 C-240.72907926 230.20505763 -240.72907926 230.20505763 -240.18334961 214.65063477 C-240.15272462 213.70153449 -240.12209963 212.75243422 -240.09054661 211.77457333 C-239.67566188 201.72866135 -237.85595536 191.97248425 -235.625 182.1875 C-235.41746094 181.26404785 -235.20992187 180.3405957 -234.99609375 179.38916016 C-221.88356782 122.33593169 -189.79776906 67.75917031 -139.82421875 35.703125 C-97.32262071 9.28366626 -49.53602989 -0.07204479 0 0 Z " fill="#646568" transform="translate(1123.625,3167.8125)"/>
<path d="M0 0 C35.29587642 -0.08836714 70.59164449 -0.16215209 105.88759843 -0.20426132 C110.06520254 -0.20926347 114.2428064 -0.21444083 118.42041016 -0.21972656 C119.25201146 -0.2207758 120.08361277 -0.22182505 120.94041412 -0.22290608 C134.36303041 -0.24025827 147.78557739 -0.27176699 161.20815273 -0.30861118 C175.00570605 -0.34616564 188.80322334 -0.36826632 202.60082567 -0.37635398 C211.0981563 -0.38181187 219.59529094 -0.39897851 228.09256117 -0.43166587 C233.93856575 -0.4529934 239.78447068 -0.45915938 245.63051124 -0.45400551 C248.99133793 -0.45147162 252.35155423 -0.45730802 255.7123642 -0.4768219 C302.39424952 -0.73433789 343.60772463 14.05935418 377.6875 46.375 C410.69676559 80.7698397 421.10113208 130.05590404 420.25 176.3046875 C419.000407 212.83029081 406.36026488 249.09085496 384 278 C383.30648437 278.91652344 382.61296875 279.83304688 381.8984375 280.77734375 C371.85483604 293.58575684 360.09951079 304.4216669 347 314 C343.51286824 316.55766046 343.51286824 316.55766046 340.875 319.875 C341.09042222 323.53717777 343.47146485 325.58882302 346 328 C348.73492654 330.30575345 351.51440631 332.54973232 354.30078125 334.79296875 C387.82895405 362.20746605 399.53104303 408.99389117 404.25 450 C405.07290187 460.972025 405 471.99715946 405 483 C370.35 483 335.7 483 300 483 C298.68 474.42 297.36 465.84 296 457 C289.55061728 429.15039278 279.81890727 403.83814005 261 382 C260.41992188 381.31808594 259.83984375 380.63617187 259.2421875 379.93359375 C242.68759133 362.00638031 217.61682209 353.13156732 193.76356626 351.88293028 C187.85354279 351.68551357 181.94224199 351.6876524 176.02954102 351.68115234 C174.06675818 351.67183322 172.10397924 351.66166167 170.14120483 351.65071106 C164.85921191 351.62362044 159.57724533 351.60832439 154.29520154 351.59528303 C148.75788205 351.57955998 143.22061566 351.55279944 137.68333435 351.5272522 C127.21843568 351.48062581 116.75352684 351.443804 106.28857797 351.41057932 C92.13263955 351.36506287 77.97676717 351.30424938 63.82088375 351.24433136 C41.54728908 351.15045328 19.27367484 351.07688252 -3 351 C-3 313.05 -3 275.1 -3 236 C15.66691406 235.97421875 34.33382812 235.9484375 53.56640625 235.921875 C65.39258791 235.89670853 77.21875527 235.87056408 89.04492188 235.83984375 C95.25903246 235.82375308 101.4731436 235.80790982 107.68725586 235.79248047 C108.46602166 235.79053653 109.24478746 235.78859259 110.04715222 235.78658974 C122.59607042 235.75562561 135.14497036 235.73861034 147.69391955 235.72680578 C160.5863553 235.71436542 173.47869574 235.68679922 186.37107128 235.64538693 C194.31714127 235.62033379 202.26305302 235.60687671 210.20916306 235.60857043 C216.31707955 235.60860389 222.42476279 235.58752447 228.53260803 235.55883217 C231.02736987 235.5503533 233.52216545 235.54856945 236.01693535 235.55419731 C258.396155 235.59793504 277.94659257 233.10434823 295 217 C309.82952012 201.22705117 312.57663775 180.89828199 312.28125 160.16015625 C311.68316264 144.06263506 305.70120155 130.12082196 294 119 C275.99610593 103.60232687 253.1575366 103.55377937 230.79711914 103.65942383 C228.2727713 103.66027134 225.74842273 103.65979254 223.22407532 103.65809631 C217.81729151 103.65741657 212.41064786 103.66583966 207.0038929 103.68280983 C199.18693983 103.70732874 191.37003911 103.71501818 183.55305176 103.7187738 C170.86647394 103.72531822 158.17995442 103.74522445 145.4934082 103.77368164 C133.17928354 103.80127451 120.86517478 103.8224824 108.55102539 103.83520508 C107.79029538 103.83599325 107.02956536 103.83678142 106.24578292 103.83759347 C102.42892029 103.84150896 98.61205756 103.8453 94.79519475 103.84902918 C63.19674481 103.88006244 31.59840345 103.9353314 0 104 C0 69.68 0 35.36 0 0 Z " fill="#646568" transform="translate(2047,3191)"/>
<path d="M0 0 C34.82858552 -0.08843455 69.65706071 -0.16219316 104.48572497 -0.20426132 C108.6118214 -0.20926323 112.7379176 -0.21444061 116.86401367 -0.21972656 C118.09599054 -0.22130043 118.09599054 -0.22130043 119.35285582 -0.22290608 C132.59426545 -0.24023905 145.83560453 -0.27173682 159.07697252 -0.30861118 C172.69713796 -0.34621976 186.31726684 -0.36827757 199.93748206 -0.37635398 C208.31963922 -0.38180083 216.70159688 -0.39890561 225.08369251 -0.43166587 C230.85731473 -0.45306073 236.63083614 -0.4591447 242.40449498 -0.45400551 C245.71936316 -0.45148172 249.03361303 -0.45721581 252.34846306 -0.4768219 C291.91254268 -0.69905902 330.04091748 7.14587208 365 26 C365.60392578 26.31936523 366.20785156 26.63873047 366.83007812 26.96777344 C375.94357514 31.80962595 384.04849709 37.46999482 392 44 C392.85875732 44.69633545 392.85875732 44.69633545 393.73486328 45.40673828 C417.26997438 64.57651826 434.2459151 88.592959 447 116 C447.49282471 117.05815918 447.49282471 117.05815918 447.99560547 118.13769531 C456.63206719 136.97858545 462.43229624 156.68728041 466.375 177 C466.73295654 178.83933105 466.73295654 178.83933105 467.09814453 180.71582031 C470.46134979 198.93986965 471.34735274 216.6249909 471.31567383 235.13720703 C471.31252838 238.9654633 471.33600375 242.79293315 471.36132812 246.62109375 C471.5001067 300.26300441 458.68293417 352.72798299 426 396 C425.3090625 396.93585937 424.618125 397.87171875 423.90625 398.8359375 C403.70479836 424.88939695 376.74909409 444.29615117 347 458 C346.29891113 458.32564941 345.59782227 458.65129883 344.87548828 458.98681641 C321.87753009 469.53204606 296.61697665 477.56590846 271.20591736 478.573349 C270.30189114 478.61253163 269.39786491 478.65171427 268.46644396 478.69208425 C258.48654713 479.10119358 248.50454307 479.25880751 238.51782227 479.38891602 C236.4613046 479.41832795 234.40479123 479.44804113 232.34828186 479.47802734 C226.82186189 479.55768499 221.29539056 479.63294866 215.76889539 479.70718122 C209.91547471 479.78639979 204.06210424 479.86918899 198.20872498 479.95140076 C188.35834038 480.08917941 178.50791906 480.2240409 168.6574707 480.35717773 C157.3999592 480.5093711 146.14252175 480.66631681 134.88511235 480.82587105 C123.92943444 480.98101524 112.97370791 481.13244916 102.01795769 481.2823925 C97.41996466 481.34539224 92.82199157 481.40962195 88.22403145 481.47497749 C82.74989315 481.55263247 77.27571764 481.62693752 71.80150414 481.69908905 C69.83896049 481.72542382 67.87642945 481.75272982 65.91391754 481.78133202 C43.27479735 482.10965938 20.64475249 482 -2 482 C-2 449.66 -2 417.32 -2 384 C9.22463257 383.93268677 9.22463257 383.93268677 20.67602539 383.86401367 C44.70185438 383.71791557 68.72756867 383.55773018 92.75324726 383.38883145 C96.49394469 383.36254741 100.23464297 383.33638687 103.9753418 383.31030273 C104.71995296 383.30510844 105.46456413 383.29991414 106.23173928 383.29456244 C118.24066463 383.21108348 130.24963093 383.13757708 142.2586431 383.06784757 C154.60874151 382.99591213 166.95873285 382.91304777 179.30869287 382.82033139 C186.91072886 382.76359533 194.51272141 382.71507994 202.11487692 382.67755852 C207.97394977 382.64772003 213.83283303 382.60257351 219.69176102 382.55212593 C222.07348981 382.53391447 224.45526087 382.52042407 226.83704567 382.51236725 C264.18451107 382.37743873 300.4271827 376.52099597 328.625 349.8125 C352.37382395 324.90624239 361.07807919 290.74981137 361.203125 257.15234375 C361.20882507 255.94163712 361.21452515 254.73093048 361.22039795 253.48353577 C361.22980062 250.93117127 361.23636298 248.37879489 361.24023438 245.82641602 C361.24991023 241.97324796 361.28096816 238.12062073 361.3125 234.26757812 C361.38383312 217.87614133 360.76715532 202.39760944 355.25 186.8125 C354.99395996 186.07185303 354.73791992 185.33120605 354.47412109 184.56811523 C343.94644051 155.05063106 321.69317073 132.73388851 293.75 119.25 C285.29489785 115.30251293 276.58490314 112.12541207 267.57168865 109.70103931 C265.89122129 109.24294588 264.21860335 108.75471841 262.55676746 108.23306561 C251.02321777 105.01143966 239.26902414 105.55889046 227.39135742 105.56762695 C224.90670792 105.55859992 222.42206287 105.5482704 219.93742371 105.53674316 C214.61030719 105.5149351 209.28328745 105.50209102 203.9561367 105.49761391 C196.25421931 105.49112513 188.55241872 105.46814024 180.85054866 105.44127061 C168.35147277 105.39810653 155.85240182 105.3680807 143.35327148 105.34643555 C131.21945771 105.32539462 119.08568435 105.2980925 106.9519043 105.26245117 C106.20259682 105.26025235 105.45328934 105.25805352 104.68127557 105.25578807 C100.92180755 105.24471764 97.16233991 105.23352497 93.40287244 105.22227156 C62.26860621 105.12923355 31.13435177 105.06000956 0 105 C0 70.35 0 35.7 0 0 Z " fill="#646568" transform="translate(1467,3185)"/>
<path d="M0 0 C35.24481117 -0.0884053 70.48951354 -0.16217535 105.73440244 -0.20426132 C109.90814024 -0.20926334 114.08187779 -0.2144407 118.25561523 -0.21972656 C119.5018368 -0.22130043 119.5018368 -0.22130043 120.77323455 -0.22290608 C134.17442471 -0.24024738 147.57554528 -0.27174991 160.97669434 -0.30861118 C174.75731194 -0.34619627 188.53789344 -0.36827269 202.31856018 -0.37635398 C210.80206319 -0.38180561 219.28536943 -0.39893728 227.76881177 -0.43166587 C233.60923141 -0.45303149 239.44955135 -0.45915106 245.29000711 -0.45400551 C248.64513018 -0.45147735 251.99964212 -0.45725594 255.35474777 -0.4768219 C312.78440123 -0.79494305 367.40612548 17.83365714 408.6640625 58.57421875 C421.79253178 71.85789246 432.31720151 87.54688768 441 104 C441.33596191 104.61891113 441.67192383 105.23782227 442.01806641 105.87548828 C454.49298294 128.88504911 461.89140546 154.07880836 466.75 179.6875 C466.94883789 180.73075439 467.14767578 181.77400879 467.35253906 182.84887695 C470.65585177 201.19982728 471.37257353 219.32030126 471.3125 237.9375 C471.30976578 239.6933844 471.30976578 239.6933844 471.30697632 241.48474121 C471.26148486 258.83313889 470.89438279 275.85764005 468 293 C467.82307617 294.06412109 467.64615234 295.12824219 467.46386719 296.22460938 C457.56945381 353.81385478 429.04648728 404.22023977 381.16015625 438.47265625 C349.82540258 460.27878264 308.68975141 477.49928285 270.14666748 478.28990173 C269.38729149 478.30863016 268.62791551 478.32735858 267.84552813 478.34665453 C265.31734909 478.40743718 262.78908073 478.46167045 260.26074219 478.51538086 C258.43703395 478.55681237 256.61332769 478.59833092 254.78962326 478.63992977 C232.96594985 479.1249746 211.13888368 479.41592979 189.31194019 479.70718122 C183.34952166 479.78714935 177.38713525 479.86945388 171.42474365 479.95140076 C161.4477334 480.0881791 151.47070115 480.22324282 141.49365234 480.35717773 C130.02053604 480.51121356 118.54745741 480.66784527 107.07439542 480.82587105 C95.92421603 480.9794053 84.77401487 481.13129712 73.62380219 481.2823925 C68.9242154 481.34609261 64.22463621 481.41031577 59.52506256 481.47497749 C53.99244204 481.55101363 48.45980353 481.62558438 42.92714882 481.69908905 C40.91700653 481.72601216 38.90687041 481.75340141 36.89674187 481.78133202 C34.11902333 481.81984247 31.34128572 481.85653175 28.5635376 481.89283752 C27.8005565 481.90382825 27.0375754 481.91481897 26.25147367 481.92614275 C16.50018828 482.04917361 6.75414684 482 -3 482 C-3 449.66 -3 417.32 -3 384 C34.546701 383.40519104 72.08170503 382.92341128 109.63193607 382.76591539 C112.48180622 382.75388411 115.33167395 382.74138505 118.18154144 382.72874069 C135.6369466 382.6514692 153.09236635 382.57977951 170.54785156 382.52319336 C179.30892816 382.49473153 188.06994976 382.45935328 196.83096826 382.41653961 C201.40081894 382.39451234 205.97062119 382.37584031 210.5405159 382.36609077 C250.29167155 382.27763491 291.39750553 381.53539083 323 354 C323.97066406 353.22914063 324.94132812 352.45828125 325.94140625 351.6640625 C348.70931795 332.68420127 357.88648776 299.84625989 360.59204102 271.52539062 C361.35181242 262.30692811 361.33409354 253.06476595 361.31567383 243.82080078 C361.31250373 240.50389993 361.33611561 237.18788598 361.36132812 233.87109375 C361.40948415 217.93641473 360.7495425 201.82448012 355.25 186.6875 C354.99250977 185.95370117 354.73501953 185.21990234 354.46972656 184.46386719 C345.70460215 160.23087617 329.91188013 140.56324311 308 127 C306.4221875 125.98873047 306.4221875 125.98873047 304.8125 124.95703125 C284.80236106 112.75745362 259.78197585 104.67262503 236.30012512 104.7215271 C235.28208902 104.7157347 234.26405291 104.7099423 233.21516722 104.70397437 C229.83587602 104.68709622 226.45672238 104.68410841 223.07739258 104.68115234 C220.64230011 104.67184576 218.20721081 104.661676 215.77212524 104.65071106 C210.54594712 104.6291085 205.31978794 104.61346253 200.09357643 104.60334396 C192.53753159 104.58870409 184.98155395 104.56315272 177.42554875 104.53501268 C165.16384399 104.48964067 152.90212949 104.45298641 140.64038086 104.421875 C128.73541559 104.39165004 116.83047406 104.35728176 104.92553711 104.31738281 C104.19063916 104.31492126 103.45574121 104.31245972 102.69857363 104.30992357 C99.01148478 104.29754821 95.3243962 104.28509182 91.63730776 104.27259517 C61.091567 104.1691711 30.54580927 104.08153769 0 104 C0 69.68 0 35.36 0 0 Z " fill="#646568" transform="translate(3372,3191)"/>
<path d="M0 0 C36.3 0 72.6 0 110 0 C110 159.39 110 318.78 110 483 C73.7 483 37.4 483 0 483 C0 323.61 0 164.22 0 0 Z " fill="#646568" transform="translate(3161,3192)"/>
<path d="M0 0 C15.75163566 12.33855553 25.18325747 29.07940943 28.05859375 48.7890625 C30.29602833 67.71654966 25.49217772 86.63919691 13.75 101.796875 C0.36311385 117.56931353 -15.84179519 127.60033396 -36.5078125 130.45703125 C-58.59745265 131.80049474 -77.12958469 125.4575802 -94.01171875 111.3671875 C-103.31882484 102.67515972 -109.89642181 91.62267564 -113.5078125 79.45703125 C-113.80429688 78.66941406 -114.10078125 77.88179687 -114.40625 77.0703125 C-120.33333899 59.75124971 -116.56297227 40.33562627 -108.9453125 24.26953125 C-105.01119802 16.46443659 -99.77423427 10.47659398 -93.5078125 4.45703125 C-92.92515625 3.86664062 -92.3425 3.27625 -91.7421875 2.66796875 C-66.71522441 -20.9686075 -26.56373917 -19.76264723 0 0 Z " fill="#FEFEFE" transform="translate(2358.5078125,778.54296875)"/>
<path d="M0 0 C0.93199219 0.29003906 1.86398437 0.58007812 2.82421875 0.87890625 C14.06729221 4.6265974 22.58868375 10.74086217 31 19 C31.70125 19.67675781 32.4025 20.35351562 33.125 21.05078125 C46.85629763 35.29163876 51.64669679 53.42114203 51.3984375 72.72485352 C50.85929457 90.40962077 43.92337125 105.93061965 32 119 C31.48308594 119.6084375 30.96617188 120.216875 30.43359375 120.84375 C18.16176276 134.37659621 -0.00301246 140.93657384 -17.8046875 142.2890625 C-39.7264266 142.79039125 -57.91938007 134.71423971 -73.6875 119.8125 C-86.92137691 106.10665887 -94.24789651 88.08475909 -93.99609375 68.984375 C-93.26107168 47.46641196 -85.09091246 29.73469716 -69.703125 14.765625 C-50.82599558 -1.57766155 -23.79852921 -7.93284307 0 0 Z " fill="#FEFEFE" transform="translate(1782,767)"/>
</svg>
