<?xml version="1.0" encoding="UTF-8"?>
<svg version="1.1" xmlns="http://www.w3.org/2000/svg" width="352" height="257">
<path d="M0 0 C3.86176229 1.73050669 6.9494269 4.28531729 10.234375 6.92578125 C11.74923139 8.11462245 13.26622007 9.30075084 14.78515625 10.484375 C15.56068848 11.08878418 16.3362207 11.69319336 17.13525391 12.31591797 C20.82711632 15.14064163 24.61419528 17.82269189 28.421875 20.48828125 C29.12787842 20.98271729 29.83388184 21.47715332 30.5612793 21.98657227 C31.91205147 22.93012285 33.26365665 23.87248237 34.61621094 24.81347656 C36.33786457 26.0113443 38.05645299 27.21342172 39.7734375 28.41796875 C42.00856974 29.98570939 44.24609496 31.55003805 46.484375 33.11328125 C46.814375 28.16328125 47.144375 23.21328125 47.484375 18.11328125 C57.054375 18.11328125 66.624375 18.11328125 76.484375 18.11328125 C76.38253906 20.45164062 76.28070313 22.79 76.17578125 25.19921875 C75.07985565 40.45115115 75.07985565 40.45115115 79.00390625 54.67285156 C82.89832081 58.50074661 87.42678509 60.26309192 92.484375 62.11328125 C92.484375 62.77328125 92.484375 63.43328125 92.484375 64.11328125 C86.50970651 62.48832995 81.4904679 59.43747938 76.171875 56.36328125 C74.10968989 55.18434486 72.04717828 54.00597944 69.984375 52.828125 C68.91703125 52.21694824 67.8496875 51.60577148 66.75 50.97607422 C61.40774962 47.92872297 56.04018837 44.92690914 50.671875 41.92578125 C49.0940625 41.04297485 49.0940625 41.04297485 47.484375 40.14233398 C39.97284561 35.94115907 32.46090235 31.74077349 24.92578125 27.58203125 C21.62477937 25.75706272 18.34727261 23.89413519 15.07421875 22.01953125 C13.25263356 20.98822933 11.43101955 19.95697832 9.609375 18.92578125 C8.75819092 18.43118408 7.90700684 17.93658691 7.0300293 17.42700195 C6.2337915 16.97929443 5.43755371 16.53158691 4.6171875 16.0703125 C3.91480957 15.6678833 3.21243164 15.2654541 2.48876953 14.85083008 C-0.05526572 13.91471187 -0.99803057 14.14102758 -3.515625 15.11328125 C-5.42765937 16.06383145 -7.31314536 17.06843377 -9.1796875 18.10546875 C-10.29206787 18.72220459 -11.40444824 19.33894043 -12.55053711 19.97436523 C-13.74744608 20.64529071 -14.94413713 21.31660509 -16.140625 21.98828125 C-16.7502005 22.32852325 -17.359776 22.66876526 -17.98782349 23.01931763 C-25.93629447 27.45673084 -33.78763821 32.01966811 -41.51391602 36.83520508 C-48.43466447 41.12501612 -55.50087892 45.15216158 -62.578125 49.17578125 C-72.27134112 54.688185 -81.9319672 60.2465649 -91.52392578 65.93359375 C-95.22515905 68.12584175 -98.93321288 70.30650518 -102.640625 72.48828125 C-103.32793701 72.89353027 -104.01524902 73.2987793 -104.72338867 73.71630859 C-105.37927979 74.10254395 -106.0351709 74.4887793 -106.7109375 74.88671875 C-107.27828613 75.22106934 -107.84563477 75.55541992 -108.43017578 75.89990234 C-111.44816268 77.65586054 -114.48402204 79.3809367 -117.515625 81.11328125 C-102.665625 81.60828125 -102.665625 81.60828125 -87.515625 82.11328125 C-87.49307574 94.61285546 -87.47471094 107.11241628 -87.46381283 119.61200619 C-87.45858356 125.41541738 -87.45148513 131.218814 -87.44018555 137.0222168 C-87.42935822 142.61778978 -87.4233485 148.2133487 -87.42074776 153.80893135 C-87.41889323 155.94887069 -87.41527209 158.08880921 -87.40989494 160.2287426 C-87.40268656 163.21493091 -87.40163397 166.20106032 -87.40209961 169.18725586 C-87.39850433 170.08133148 -87.39490906 170.9754071 -87.39120483 171.89657593 C-87.40157284 177.99922909 -87.40157284 177.99922909 -88.515625 179.11328125 C-91.35897548 179.213151 -94.17259663 179.25206006 -97.015625 179.23828125 C-97.81355469 179.24214844 -98.61148438 179.24601563 -99.43359375 179.25 C-105.38901733 179.23988892 -105.38901733 179.23988892 -106.515625 178.11328125 C-106.61059373 175.70975665 -106.64120054 173.33521032 -106.62915039 170.93139648 C-106.62927093 170.16803765 -106.62939146 169.40467882 -106.62951565 168.6181879 C-106.62876655 166.13605442 -106.6211385 163.65399513 -106.61328125 161.171875 C-106.61181182 159.64392127 -106.61079112 158.11596703 -106.61022949 156.5880127 C-106.60497673 150.90892789 -106.59101565 145.22985385 -106.578125 139.55078125 C-106.5575 126.86640625 -106.536875 114.18203125 -106.515625 101.11328125 C-152.055625 101.60828125 -152.055625 101.60828125 -198.515625 102.11328125 C-197.515625 98.11328125 -197.515625 98.11328125 -195.79858398 96.90332031 C-194.66658569 96.39623535 -194.66658569 96.39623535 -193.51171875 95.87890625 C-192.64192383 95.47792725 -191.77212891 95.07694824 -190.87597656 94.66381836 C-189.91143555 94.23464111 -188.94689453 93.80546387 -187.953125 93.36328125 C-185.85146251 92.39365824 -183.75128495 91.4208123 -181.65234375 90.4453125 C-180.50942871 89.91631348 -179.36651367 89.38731445 -178.18896484 88.84228516 C-172.17378221 86.03073296 -166.24191125 83.048477 -160.306427 80.07336426 C-158.33900306 79.08754873 -156.36970941 78.10555676 -154.40014648 77.12402344 C-147.35970516 73.60531791 -140.37320122 69.99675254 -133.41796875 66.3125 C-122.80778689 60.69719891 -112.07453448 55.33695504 -101.328125 49.98828125 C-99.43024233 49.04185959 -97.53245561 48.09524547 -95.63476562 47.1484375 C-91.95338005 45.31198477 -88.27147622 43.47657807 -84.58911133 41.64208984 C-79.48132962 39.09702067 -74.376998 36.54509714 -69.27346802 33.99151611 C-65.28333797 31.99559171 -61.29084399 30.0044801 -57.29670715 28.0165863 C-35.67091669 17.26293593 -35.67091669 17.26293593 -14.2578125 6.09375 C-13.64131836 5.76938965 -13.02482422 5.4450293 -12.38964844 5.11083984 C-11.05999867 4.40305598 -9.74126244 3.6745967 -8.43066406 2.93212891 C-5.53279615 1.35079819 -3.32581401 0.14976492 0 0 Z " fill="#36A13B" transform="translate(214.515625,17.88671875)"/>
<path d="M0 0 C60.17647059 0 60.17647059 0 72.125 8.125 C74 10 74 10 74 12 C74.99 12.33 75.98 12.66 77 13 C81.23832833 20.18597231 81.18618361 29.92341659 79.34375 37.80859375 C75.88368289 47.60714586 69.05385722 52.5449274 60 57 C60.66 57.61875 61.32 58.2375 62 58.875 C70.0404808 66.98285913 76.31606362 76.60630683 82.67480469 86.03564453 C83.92629328 87.8907435 85.18500129 89.74073252 86.4453125 91.58984375 C91.87014134 99.61042403 91.87014134 99.61042403 93 103 C66.44467208 105.83975264 66.44467208 105.83975264 59.61328125 101.47509766 C55.93321486 97.40813687 53.98093228 92.52972665 52.03173828 87.45947266 C50.38012989 83.52234465 48.03975928 80.12787794 45.625 76.625 C45.23078857 76.01390381 44.83657715 75.40280762 44.43041992 74.77319336 C42.01355202 71.10110509 39.81666605 68.21850286 36 66 C32.7 65.67 29.4 65.34 26 65 C26 77.54 26 90.08 26 103 C17.42 103 8.84 103 0 103 C0 69.01 0 35.02 0 0 Z M26 19 C26 27.58 26 36.16 26 45 C29.774375 45.0928125 29.774375 45.0928125 33.625 45.1875 C34.40568848 45.21481201 35.18637695 45.24212402 35.99072266 45.27026367 C40.73049628 45.32621683 43.88660047 44.5892381 48 42 C51.08847593 38.58642134 52.26431338 35.96294163 52.4375 31.4375 C52.23458041 27.54275306 51.64658769 24.99946605 49 22 C43.9342908 18.79532116 39.90188321 18.62306651 34.125 18.8125 C30.103125 18.9053125 30.103125 18.9053125 26 19 Z " fill="#3FB741" transform="translate(135,91)"/>
<path d="M0 0 C9.24 0 18.48 0 28 0 C39.06204228 32.83182656 39.06204228 32.83182656 42.91894531 46.04101562 C45.68069284 55.44632273 48.84582619 64.72037 52 74 C57.34297794 57.50312304 62.68373304 41.00550749 68 24.5 C68.5412854 22.82309082 68.5412854 22.82309082 69.09350586 21.11230469 C70.92682077 15.41405821 72.69287518 9.71310705 74.2890625 3.94335938 C75 2 75 2 77 0 C79.61376953 -0.22705078 79.61376953 -0.22705078 82.8828125 -0.1953125 C84.63271484 -0.18564453 84.63271484 -0.18564453 86.41796875 -0.17578125 C87.64128906 -0.15902344 88.86460937 -0.14226562 90.125 -0.125 C91.35605469 -0.11597656 92.58710938 -0.10695313 93.85546875 -0.09765625 C96.90383815 -0.07402548 99.95182382 -0.04108054 103 0 C102.47926211 6.52809088 100.75087889 11.88481433 98.3125 17.9375 C97.58286063 19.79617927 96.8550197 21.65556546 96.12890625 23.515625 C95.76812988 24.43666016 95.40735352 25.35769531 95.03564453 26.30664062 C93.52378094 30.2384839 92.12867095 34.20737608 90.75 38.1875 C89.27360201 42.43335676 87.77857667 46.65626366 86.0625 50.8125 C84.00851595 55.80565788 82.26667266 60.90008758 80.5 66 C78.4758507 71.84317876 76.40946009 77.63294136 74.04296875 83.34765625 C71.49696479 89.8223255 69.28648308 96.43017195 67 103 C62.78257407 103.12365029 58.56610889 103.21435665 54.34741211 103.2746582 C52.91265486 103.29979524 51.47802559 103.33391108 50.04370117 103.37719727 C47.9806363 103.43789665 45.91926385 103.46621353 43.85546875 103.48828125 C41.99378052 103.52755737 41.99378052 103.52755737 40.09448242 103.56762695 C37 103 37 103 35.19042969 100.79248047 C34.06590004 98.15458669 33.01215487 95.54996426 32.09765625 92.83203125 C31.76443359 91.85556641 31.43121094 90.87910156 31.08789062 89.87304688 C30.74951172 88.86306641 30.41113281 87.85308594 30.0625 86.8125 C27.84734358 80.25239323 25.54358778 73.77758267 22.9309082 67.36499023 C21.47678507 63.67076238 20.27338094 59.90440361 19.0625 56.125 C17.05889291 49.98832082 14.84041522 44.04365451 12.28125 38.11328125 C9.85126008 32.20870209 7.83438363 26.15216747 5.74511719 20.12060547 C5.01870293 18.05322858 4.26867163 15.99632895 3.5078125 13.94140625 C3.27449219 13.30702637 3.04117188 12.67264648 2.80078125 12.01904297 C2.16520452 10.29646471 1.52419075 8.57589532 0.8828125 6.85546875 C0 4 0 4 0 0 Z " fill="#3FB742" transform="translate(214,91)"/>
<path d="M0 0 C3.86176229 1.73050669 6.9494269 4.28531729 10.234375 6.92578125 C11.74923139 8.11462245 13.26622007 9.30075084 14.78515625 10.484375 C15.56068848 11.08878418 16.3362207 11.69319336 17.13525391 12.31591797 C20.82711632 15.14064163 24.61419528 17.82269189 28.421875 20.48828125 C29.12787842 20.98271729 29.83388184 21.47715332 30.5612793 21.98657227 C31.91205147 22.93012285 33.26365665 23.87248237 34.61621094 24.81347656 C36.33786457 26.0113443 38.05645299 27.21342172 39.7734375 28.41796875 C42.00856974 29.98570939 44.24609496 31.55003805 46.484375 33.11328125 C46.814375 28.16328125 47.144375 23.21328125 47.484375 18.11328125 C57.054375 18.11328125 66.624375 18.11328125 76.484375 18.11328125 C76.38253906 20.45164062 76.28070313 22.79 76.17578125 25.19921875 C75.07985565 40.45115115 75.07985565 40.45115115 79.00390625 54.67285156 C82.89832081 58.50074661 87.42678509 60.26309192 92.484375 62.11328125 C92.484375 62.77328125 92.484375 63.43328125 92.484375 64.11328125 C86.50970651 62.48832995 81.4904679 59.43747938 76.171875 56.36328125 C74.10968989 55.18434486 72.04717828 54.00597944 69.984375 52.828125 C68.91703125 52.21694824 67.8496875 51.60577148 66.75 50.97607422 C61.40774962 47.92872297 56.04018837 44.92690914 50.671875 41.92578125 C49.0940625 41.04297485 49.0940625 41.04297485 47.484375 40.14233398 C39.97284561 35.94115907 32.46090235 31.74077349 24.92578125 27.58203125 C21.62477937 25.75706272 18.34727261 23.89413519 15.07421875 22.01953125 C13.25263356 20.98822933 11.43101955 19.95697832 9.609375 18.92578125 C8.75819092 18.43118408 7.90700684 17.93658691 7.0300293 17.42700195 C6.2337915 16.97929443 5.43755371 16.53158691 4.6171875 16.0703125 C3.91480957 15.6678833 3.21243164 15.2654541 2.48876953 14.85083008 C-0.05526572 13.91471187 -0.99803057 14.14102758 -3.515625 15.11328125 C-5.42765937 16.06383145 -7.31314536 17.06843377 -9.1796875 18.10546875 C-10.29263184 18.72252686 -11.40557617 19.33958496 -12.55224609 19.9753418 C-13.74858209 20.64594766 -14.9447038 21.31693595 -16.140625 21.98828125 C-16.74787415 22.32719391 -17.35512329 22.66610657 -17.98077393 23.01528931 C-26.08476715 27.53904714 -34.0887022 32.19651526 -41.97314453 37.09448242 C-47.92035904 40.78120154 -53.94870607 44.31479689 -60.015625 47.80078125 C-60.93134277 48.33082764 -61.84706055 48.86087402 -62.79052734 49.40698242 C-63.63824707 49.89142822 -64.4859668 50.37587402 -65.359375 50.875 C-66.49149414 51.52408325 -66.49149414 51.52408325 -67.64648438 52.1862793 C-69.515625 53.11328125 -69.515625 53.11328125 -71.515625 53.11328125 C-71.185625 51.13328125 -70.855625 49.15328125 -70.515625 47.11328125 C-66.060625 46.61828125 -66.060625 46.61828125 -61.515625 46.11328125 C-61.185625 44.46328125 -60.855625 42.81328125 -60.515625 41.11328125 C-63.485625 38.63828125 -63.485625 38.63828125 -66.515625 36.11328125 C-67.505625 36.77328125 -68.495625 37.43328125 -69.515625 38.11328125 C-70.40121094 38.40074219 -71.28679687 38.68820313 -72.19921875 38.984375 C-76.94646192 40.60033881 -81.24898301 42.95390082 -85.68164062 45.27929688 C-89.28577671 47.13099452 -92.43870068 48.59671189 -96.515625 49.11328125 C-96.515625 49.77328125 -96.515625 50.43328125 -96.515625 51.11328125 C-100.04510791 52.77998151 -101.79834826 53.24911581 -105.515625 52.11328125 C-86.765625 42.73828125 -86.765625 42.73828125 -83.20776367 40.95947266 C-80.69213011 39.70167688 -78.17669412 38.44348697 -75.66137695 37.18505859 C-69.53653807 34.12114657 -63.41057494 31.05957246 -57.27954102 28.0080719 C-35.66241707 17.2585154 -35.66241707 17.2585154 -14.2578125 6.09375 C-13.64131836 5.76938965 -13.02482422 5.4450293 -12.38964844 5.11083984 C-11.05999867 4.40305598 -9.74126244 3.6745967 -8.43066406 2.93212891 C-5.53279615 1.35079819 -3.32581401 0.14976492 0 0 Z " fill="#2D893A" transform="translate(214.515625,17.88671875)"/>
<path d="M0 0 C9.57 0 19.14 0 29 0 C28.89816406 2.33835938 28.79632813 4.67671875 28.69140625 7.0859375 C27.59548065 22.3378699 27.59548065 22.3378699 31.51953125 36.55957031 C35.41394581 40.38746536 39.94241009 42.14981067 45 44 C45 44.66 45 45.32 45 46 C40.96211423 44.75643887 37.42934678 43.2772693 33.76953125 41.171875 C32.80080078 40.61886719 31.83207031 40.06585938 30.83398438 39.49609375 C29.83689453 38.91988281 28.83980469 38.34367187 27.8125 37.75 C25.8403229 36.61895578 23.86766779 35.48874463 21.89453125 34.359375 C20.92854004 33.80572266 19.96254883 33.25207031 18.96728516 32.68164062 C14.34394273 30.06146763 9.67579019 27.52509871 5 25 C5 24.01 5 23.02 5 22 C2.525 21.01 2.525 21.01 0 20 C0.66 19.67 1.32 19.34 2 19 C1.8595017 16.2079699 1.71284617 13.41650204 1.5625 10.625 C1.50352539 9.43390625 1.50352539 9.43390625 1.44335938 8.21875 C1.31106596 3.97398779 1.31106596 3.97398779 0 0 Z " fill="#1E6B34" transform="translate(262,36)"/>
<path d="M0 0 C1.85839844 1.11645508 1.85839844 1.11645508 3.609375 2.51953125 C4.27316162 3.04144043 4.93694824 3.56334961 5.62084961 4.10107422 C6.67477905 4.94822998 6.67477905 4.94822998 7.75 5.8125 C9.26485639 7.0013412 10.78184507 8.18746959 12.30078125 9.37109375 C13.07631348 9.97550293 13.8518457 10.57991211 14.65087891 11.20263672 C18.34274132 14.02736038 22.12982028 16.70941064 25.9375 19.375 C26.99650513 20.11665405 26.99650513 20.11665405 28.0769043 20.87329102 C29.42767647 21.8168416 30.77928165 22.75920112 32.13183594 23.70019531 C33.85348957 24.89806305 35.57207799 26.10014047 37.2890625 27.3046875 C39.52421115 28.87243965 41.7610495 30.43768565 44 32 C44.07347656 30.60974609 44.07347656 30.60974609 44.1484375 29.19140625 C44.22320312 27.99386719 44.29796875 26.79632813 44.375 25.5625 C44.44460938 24.36753906 44.51421875 23.17257813 44.5859375 21.94140625 C44.72257812 20.97074219 44.85921875 20.00007813 45 19 C45.99 18.505 45.99 18.505 47 18 C46.98428955 18.56509277 46.9685791 19.13018555 46.95239258 19.71240234 C46.89012955 22.26650023 46.85103864 24.82043871 46.8125 27.375 C46.78736328 28.26445313 46.76222656 29.15390625 46.73632812 30.0703125 C46.72666016 30.92109375 46.71699219 31.771875 46.70703125 32.6484375 C46.6913208 33.43395996 46.67561035 34.21948242 46.65942383 35.02880859 C46.77181396 35.67930176 46.8842041 36.32979492 47 37 C48.485 37.99 48.485 37.99 50 39 C50 39.66 50 40.32 50 41 C46.41958319 39.64624653 43.14473841 38.05144625 39.81640625 36.1640625 C38.81633545 35.59953369 37.81626465 35.03500488 36.78588867 34.45336914 C35.19031128 33.54832642 35.19031128 33.54832642 33.5625 32.625 C31.32064071 31.36530113 29.07844613 30.1061988 26.8359375 28.84765625 C23.46853502 26.95450851 20.10297998 25.05843766 16.74316406 23.15185547 C13.73070037 21.44429329 10.71010997 19.7520183 7.6875 18.0625 C6.3109021 17.27383545 6.3109021 17.27383545 4.90649414 16.46923828 C4.05434326 15.99599121 3.20219238 15.52274414 2.32421875 15.03515625 C1.2117981 14.40685913 1.2117981 14.40685913 0.0769043 13.76586914 C-2.47640214 12.82432426 -3.48377207 13.0292131 -6 14 C-7.4423325 14.71709282 -8.86098654 15.48302011 -10.2578125 16.28515625 C-11.04800781 16.73310547 -11.83820313 17.18105469 -12.65234375 17.64257812 C-13.46832031 18.11115234 -14.28429687 18.57972656 -15.125 19.0625 C-16.75039436 19.99474888 -18.3779007 20.9233282 -20.0078125 21.84765625 C-20.72598145 22.26023682 -21.44415039 22.67281738 -22.18408203 23.09790039 C-24 24 -24 24 -26 24 C-25.67 23.01 -25.34 22.02 -25 21 C-24.01 21 -23.02 21 -22 21 C-22.33 18.69 -22.66 16.38 -23 14 C-24.65 14.33 -26.3 14.66 -28 15 C-28 14.34 -28 13.68 -28 13 C-28.33 12.34 -28.66 11.68 -29 11 C-25.11575468 8.95629488 -21.2159871 6.94417487 -17.3125 4.9375 C-16.20970703 4.35677734 -15.10691406 3.77605469 -13.97070312 3.17773438 C-12.90400391 2.63310547 -11.83730469 2.08847656 -10.73828125 1.52734375 C-9.75899658 1.01937256 -8.77971191 0.51140137 -7.77075195 -0.01196289 C-4.5881908 -1.14684922 -3.16638332 -1.09084273 0 0 Z M-23 11 C-22 13 -22 13 -22 13 Z " fill="#2A7C3B" transform="translate(217,19)"/>
<path d="M0 0 C9.57 0 19.14 0 29 0 C29.02254926 12.49957421 29.04091406 24.99913503 29.05181217 37.49872494 C29.05704144 43.30213613 29.06413987 49.10553275 29.07543945 54.90893555 C29.08626678 60.50450853 29.0922765 66.10006745 29.09487724 71.6956501 C29.09673177 73.83558944 29.10035291 75.97552796 29.10573006 78.11546135 C29.11293844 81.10164966 29.11399103 84.08777907 29.11352539 87.07397461 C29.11712067 87.96805023 29.12071594 88.86212585 29.12442017 89.78329468 C29.11405216 95.88594784 29.11405216 95.88594784 28 97 C25.15664952 97.09986975 22.34302837 97.13877881 19.5 97.125 C18.30310547 97.13080078 18.30310547 97.13080078 17.08203125 97.13671875 C11.12660767 97.12660767 11.12660767 97.12660767 10 96 C9.90507278 93.65746218 9.87440209 91.34453896 9.88647461 89.00170898 C9.88632858 88.27004517 9.88618256 87.53838135 9.8860321 86.7845459 C9.88673133 84.35503216 9.89452415 81.92559417 9.90234375 79.49609375 C9.9042079 77.81600486 9.90563181 76.13591543 9.90663147 74.45582581 C9.91045693 70.02526357 9.92028744 65.5947339 9.93133545 61.16418457 C9.94154897 56.64657024 9.94612896 52.12895066 9.95117188 47.61132812 C9.96190969 38.74087107 9.97898644 29.87043824 10 21 C10.66 21 11.32 21 12 21 C12.33 20.01 12.66 19.02 13 18 C13.33 43.08 13.66 68.16 14 94 C19.445 93.505 19.445 93.505 25 93 C27.57575061 89.13637408 27.26624186 85.96658821 27.22705078 81.48950195 C27.22734283 80.62099609 27.22763489 79.75249023 27.22793579 78.85766602 C27.22654147 75.98443644 27.21097544 73.11146558 27.1953125 70.23828125 C27.19158273 68.24716839 27.18873559 66.2560537 27.18673706 64.26493835 C27.17909775 59.02223653 27.15944666 53.77964538 27.1373291 48.5369873 C27.11687712 43.18808489 27.10773673 37.83916461 27.09765625 32.49023438 C27.07620107 21.99343312 27.04101646 11.49674307 27 1 C18.09 1 9.18 1 0 1 C0 0.67 0 0.34 0 0 Z " fill="#39833D" transform="translate(98,100)"/>
<path d="M0 0 C60.17647059 0 60.17647059 0 72.125 8.125 C74 10 74 10 74 12 C74.99 12.495 74.99 12.495 76 13 C75.01 13 74.02 13 73 13 C73 12.34 73 11.68 73 11 C72.41347656 10.71253906 71.82695312 10.42507812 71.22265625 10.12890625 C69.87716696 9.44552065 68.54571389 8.73188013 67.24609375 7.96484375 C62.26466683 5.13522112 57.92114551 4.45012392 52.22265625 4.17578125 C50 4 50 4 49 3 C33.49 2.67 17.98 2.34 2 2 C2 35.33 2 68.66 2 103 C1.34 103 0.68 103 0 103 C0 69.01 0 35.02 0 0 Z " fill="#53A354" transform="translate(135,91)"/>
<path d="M0 0 C0 0.66 0 1.32 0 2 C-0.66 2 -1.32 2 -2 2 C-2.33 3.65 -2.66 5.3 -3 7 C-3.99 7 -4.98 7 -6 7 C-5.48967606 10.77639718 -4.79233071 12.44722581 -2 15 C-3.15628906 15.07347656 -3.15628906 15.07347656 -4.3359375 15.1484375 C-5.33882812 15.22320312 -6.34171875 15.29796875 -7.375 15.375 C-8.37273438 15.44460937 -9.37046875 15.51421875 -10.3984375 15.5859375 C-13.15508879 15.76363964 -13.15508879 15.76363964 -15 18 C-16.97119141 18.22705078 -16.97119141 18.22705078 -19.3515625 18.1953125 C-20.20234375 18.18886719 -21.053125 18.18242188 -21.9296875 18.17578125 C-23.26386719 18.15064453 -23.26386719 18.15064453 -24.625 18.125 C-25.97078125 18.11146484 -25.97078125 18.11146484 -27.34375 18.09765625 C-29.56276586 18.0740497 -31.78125077 18.0411231 -34 18 C-33.80737305 16.16821289 -33.80737305 16.16821289 -33 14 C-30.87036133 12.58374023 -30.87036133 12.58374023 -28.08203125 11.30859375 C-27.07462891 10.83873047 -26.06722656 10.36886719 -25.02929688 9.88476562 C-23.96775391 9.40716797 -22.90621094 8.92957031 -21.8125 8.4375 C-19.73559614 7.47803978 -17.65877095 6.51840924 -15.58203125 5.55859375 C-14.11564209 4.8931958 -14.11564209 4.8931958 -12.61962891 4.21435547 C-10.55441415 3.25700429 -8.52514587 2.22210941 -6.51171875 1.16015625 C-4 0 -4 0 0 0 Z " fill="#3BB63A" transform="translate(50,102)"/>
<path d="M0 0 C0.99 0.495 0.99 0.495 2 1 C-3.8472086 4.89813906 -9.9106192 8.01559132 -16.27539062 10.96875 C-20.62547839 13.0574659 -23.82408955 15.25057562 -27 19 C-27 19.66 -27 20.32 -27 21 C-26.34 21.33 -25.68 21.66 -25 22 C-25.495 23.485 -25.495 23.485 -26 25 C-28.25 25.25 -28.25 25.25 -31 25 C-33.3125 23 -33.3125 23 -35 21 C-35.99 21.66 -36.98 22.32 -38 23 C-38.88558594 23.28746094 -39.77117187 23.57492188 -40.68359375 23.87109375 C-45.43083692 25.48705756 -49.73335801 27.84061957 -54.16601562 30.16601562 C-57.77015171 32.01771327 -60.92307568 33.48343064 -65 34 C-65 34.66 -65 35.32 -65 36 C-68.52948291 37.66670026 -70.28272326 38.13583456 -74 37 C-67.75 33.875 -61.5 30.75 -55.25 27.625 C-54.0758252 27.03775146 -52.90165039 26.45050293 -51.69189453 25.84545898 C-49.1779281 24.58839181 -46.66318035 23.33290377 -44.14794922 22.07836914 C-37.96672117 18.99378185 -31.79091892 15.89975371 -25.63458252 12.76571655 C-22.8354842 11.34150609 -20.03339606 9.92323863 -17.23095703 8.50561523 C-15.80054618 7.78012863 -14.37155478 7.05183792 -12.94384766 6.32104492 C-10.84383353 5.2469865 -8.73895724 4.18306858 -6.6328125 3.12109375 C-5.67364426 2.62602577 -5.67364426 2.62602577 -4.69509888 2.12095642 C-3.15924697 1.35263648 -1.58220184 0.66767803 0 0 Z " fill="#358841" transform="translate(183,33)"/>
<path d="M0 0 C1.06911118 -0.00021904 1.06911118 -0.00021904 2.15982056 -0.0004425 C4.50265607 0.00025108 6.84541089 0.00801739 9.18823242 0.01586914 C10.81776384 0.01773529 12.44729582 0.01915826 14.076828 0.02015686 C18.35608481 0.02396651 22.63530744 0.03378351 26.91455078 0.04486084 C31.28507017 0.05510837 35.6555951 0.05966163 40.02612305 0.06469727 C48.59449807 0.07540721 57.16284536 0.09246494 65.73120117 0.11352539 C65.73120117 1.43352539 65.73120117 2.75352539 65.73120117 4.11352539 C65.07120117 4.11352539 64.41120117 4.11352539 63.73120117 4.11352539 C63.73120117 3.45352539 63.73120117 2.79352539 63.73120117 2.11352539 C38.65120117 2.11352539 13.57120117 2.11352539 -12.26879883 2.11352539 C-12.26879883 1.78352539 -12.26879883 1.45352539 -12.26879883 1.11352539 C-8.1272751 0.11563895 -4.25383388 -0.00734686 0 0 Z " fill="#499C4C" transform="translate(44.268798828125,116.886474609375)"/>
<path d="M0 0 C0.66 0.33 1.32 0.66 2 1 C2 1.66 2 2.32 2 3 C4.65228812 4.07525194 7.28368454 5.09456151 10 6 C12 9 12 9 12 12 C12.66 12 13.32 12 14 12 C15.35879394 17.43517578 14.8308169 20.32862624 12.30078125 25.30078125 C10.76114913 27.3120124 9.31676683 28.03915144 7 29 C7.66 28.030625 8.32 27.06125 9 26.0625 C11.46643029 21.73527533 11.75112789 17.88233131 11 13 C9.73078786 9.86036997 8.92862247 8.49069255 5.9375 6.91015625 C2.01558139 5.69498732 -1.72974115 5.53985736 -5.8125 5.375 C-8.514375 5.25125 -11.21625 5.1275 -14 5 C-14 13.58 -14 22.16 -14 31 C-14.33 31 -14.66 31 -15 31 C-15.02886338 26.52084672 -15.04675187 22.04171709 -15.0625 17.5625 C-15.07087891 16.28310547 -15.07925781 15.00371094 -15.08789062 13.68554688 C-15.09111328 12.47060547 -15.09433594 11.25566406 -15.09765625 10.00390625 C-15.10289307 8.87799072 -15.10812988 7.7520752 -15.11352539 6.59204102 C-15 4 -15 4 -14 3 C-10.63790935 2.71530684 -7.27585999 2.55104937 -3.90625 2.37890625 C-2.9471875 2.25386719 -1.988125 2.12882812 -1 2 C-0.67 1.34 -0.34 0.68 0 0 Z " fill="#4BB24F" transform="translate(175,105)"/>
<path d="M0 0 C0.33 0 0.66 0 1 0 C0.98428955 0.56509277 0.9685791 1.13018555 0.95239258 1.71240234 C0.89012955 4.26650023 0.85103864 6.82043871 0.8125 9.375 C0.78736328 10.26445313 0.76222656 11.15390625 0.73632812 12.0703125 C0.72666016 12.92109375 0.71699219 13.771875 0.70703125 14.6484375 C0.6913208 15.43395996 0.67561035 16.21948242 0.65942383 17.02880859 C0.77181396 17.67930176 0.8842041 18.32979492 1 19 C1.99 19.66 2.98 20.32 4 21 C4 21.66 4 22.32 4 23 C0.444218 21.65788025 -2.79105167 20.07755303 -6.08203125 18.1796875 C-7.01337891 17.64472656 -7.94472656 17.10976563 -8.90429688 16.55859375 C-9.86400391 16.00300781 -10.82371094 15.44742188 -11.8125 14.875 C-12.79154297 14.31167969 -13.77058594 13.74835937 -14.77929688 13.16796875 C-17.18789555 11.78155585 -19.59471395 10.39214945 -22 9 C-19 8 -19 8 -16.51953125 8.99609375 C-15.62621094 9.47175781 -14.73289063 9.94742188 -13.8125 10.4375 C-12.91144531 10.91058594 -12.01039063 11.38367187 -11.08203125 11.87109375 C-10.05142578 12.42990234 -10.05142578 12.42990234 -9 13 C-10.32 11.68 -11.64 10.36 -13 9 C-12.67 8.34 -12.34 7.68 -12 7 C-8.7 9.31 -5.4 11.62 -2 14 C-1.90912109 12.60974609 -1.90912109 12.60974609 -1.81640625 11.19140625 C-1.73261719 9.99386719 -1.64882813 8.79632813 -1.5625 7.5625 C-1.48128906 6.36753906 -1.40007812 5.17257813 -1.31640625 3.94140625 C-1 1 -1 1 0 0 Z " fill="#316E43" transform="translate(263,37)"/>
<path d="M0 0 C2.475 0.495 2.475 0.495 5 1 C5.33 2.65 5.66 4.3 6 6 C6.66 6 7.32 6 8 6 C8.66 4.02 9.32 2.04 10 0 C11.32 0 12.64 0 14 0 C13.34580901 5.06998019 11.1453591 9.41990777 9 14 C7.35 14 5.7 14 4 14 C3.32968281 12.0429132 2.66385317 10.08428887 2 8.125 C1.62875 7.03445312 1.2575 5.94390625 0.875 4.8203125 C0 2 0 2 0 0 Z " fill="#419057" transform="translate(233,213)"/>
<path d="M0 0 C5.22956747 2.74508857 9.37026169 5.5944268 12 11 C13.58245275 12.75149165 13.58245275 12.75149165 15 14 C5.60849642 11.28140686 -2.74455351 6.11135091 -11 1 C-10.38125 0.855625 -9.7625 0.71125 -9.125 0.5625 C-3.42905028 -0.9452514 -3.42905028 -0.9452514 0 0 Z " fill="#237237" transform="translate(241,37)"/>
<path d="M0 0 C9.24 0 18.48 0 28 0 C29.32 3.96 30.64 7.92 32 12 C31.67 12.66 31.34 13.32 31 14 C30.01 13.67 29.02 13.34 28 13 C27.855625 11.906875 27.71125 10.81375 27.5625 9.6875 C27.11711896 6.06877013 27.11711896 6.06877013 26 3 C18.08 2.67 10.16 2.34 2 2 C2.99 4.97 3.98 7.94 5 11 C4.67 12.32 4.34 13.64 4 15 C3.32532438 13.25307205 2.66055844 11.50231475 2 9.75 C1.62875 8.77546875 1.2575 7.8009375 0.875 6.796875 C0 4 0 4 0 0 Z " fill="#51A652" transform="translate(214,91)"/>
<path d="M0 0 C2.56687367 3.8503105 1.83288724 5.58569763 1 10 C-2.95480412 11.31826804 -5.11391601 10.29536133 -9 9 C-10 8 -10 8 -10.25 5.0625 C-10.1675 4.051875 -10.085 3.04125 -10 2 C-6.32003497 -0.45331002 -4.34586828 -0.39507893 0 0 Z " fill="#409A5B" transform="translate(259,217)"/>
<path d="M0 0 C1.65 0 3.3 0 5 0 C5 0.99 5 1.98 5 3 C5.66 3 6.32 3 7 3 C7 2.01 7 1.02 7 0 C8.65 0 10.3 0 12 0 C10.31910452 6.14961761 8.40439414 10.3575305 4 15 C3.01 14.67 2.02 14.34 1 14 C1 11 1 11 3 9 C2.01 6.03 1.02 3.06 0 0 Z " fill="#529659" transform="translate(180,217)"/>
<path d="M0 0 C9.57 0 19.14 0 29 0 C29.04125 4.74375 29.0825 9.4875 29.125 14.375 C29.14320801 15.8707959 29.16141602 17.3665918 29.18017578 18.90771484 C29.1851709 20.08027832 29.19016602 21.2528418 29.1953125 22.4609375 C29.20578613 23.66540527 29.21625977 24.86987305 29.22705078 26.11083984 C29 29 29 29 27 31 C26.67 21.43 26.34 11.86 26 2 C17.42 2 8.84 2 0 2 C0 1.34 0 0.68 0 0 Z " fill="#295E36" transform="translate(262,36)"/>
<path d="M0 0 C3.5 0.25 3.5 0.25 5.5 2.25 C5.46712417 4.97869407 4.93602229 7.5466618 4.5 10.25 C-1.5546875 10.4453125 -1.5546875 10.4453125 -3.5 10.25 C-5.5 8.25 -5.5 8.25 -5.75 5.25 C-5.37802459 0.78629509 -4.42019834 0.31572845 0 0 Z " fill="#589056" transform="translate(138.5,216.75)"/>
<path d="M0 0 C0.99 0 1.98 0 3 0 C3 27.39 3 54.78 3 83 C2.01 82.01 1.02 81.02 0 80 C0.29966736 77.77253723 0.29966736 77.77253723 1 75 C1.1137418 72.54815055 1.17605449 70.09371608 1.20532227 67.6394043 C1.21522186 66.91690994 1.22512146 66.19441559 1.23532104 65.45002747 C1.26677205 63.07479061 1.2916282 60.69953379 1.31640625 58.32421875 C1.33698996 56.67226152 1.3579868 55.02030938 1.37937927 53.36836243 C1.43445362 49.02997987 1.48392717 44.69155094 1.53222656 40.35308838 C1.58254875 35.92219945 1.63817877 31.49137749 1.69335938 27.06054688 C1.80076181 18.37375462 1.90224622 9.68690617 2 1 C1.34 0.67 0.68 0.34 0 0 Z " fill="#2F9535" transform="translate(122,101)"/>
<path d="M0 0 C7.16743645 -0.10225696 14.33468161 -0.1718217 21.50268555 -0.21972656 C23.93602529 -0.23971822 26.36931775 -0.26692074 28.80249023 -0.30175781 C60.96664523 -0.75040654 60.96664523 -0.75040654 72 9 C72 9.66 72 10.32 72 11 C72.99 11.495 72.99 11.495 74 12 C73.01 12 72.02 12 71 12 C71 11.34 71 10.68 71 10 C70.41347656 9.71253906 69.82695312 9.42507812 69.22265625 9.12890625 C67.87716696 8.44552065 66.54571389 7.73188013 65.24609375 6.96484375 C60.26466683 4.13522112 55.92114551 3.45012392 50.22265625 3.17578125 C48 3 48 3 47 2 C45.52749355 1.87767356 44.04934289 1.8222544 42.57202148 1.79467773 C41.16067177 1.7647599 41.16067177 1.7647599 39.72080994 1.73423767 C38.69790359 1.71752518 37.67499725 1.70081268 36.62109375 1.68359375 C35.57929459 1.66281265 34.53749542 1.64203156 33.46412659 1.62062073 C30.12198753 1.55500943 26.77976715 1.49618669 23.4375 1.4375 C21.17772582 1.39432578 18.91795999 1.35071186 16.65820312 1.30664062 C11.10555579 1.19931633 5.55282679 1.09757188 0 1 C0 0.67 0 0.34 0 0 Z " fill="#4CB14D" transform="translate(137,92)"/>
<path d="M0 0 C-0.33 0.99 -0.66 1.98 -1 3 C-3.109375 4.02734375 -3.109375 4.02734375 -5.75 4.9375 C-8.91783431 6.1069551 -10.93912339 6.94951695 -13.5625 9.125 C-17.04770819 11.80592938 -20.72547868 12.29223612 -25 13 C-25 13.66 -25 14.32 -25 15 C-27.56126064 16.294174 -30.12393358 17.58540784 -32.6875 18.875 C-33.40873047 19.23980469 -34.12996094 19.60460937 -34.87304688 19.98046875 C-42.98389285 24.05440965 -42.98389285 24.05440965 -46 25 C-46.99 24.67 -47.98 24.34 -49 24 C-42.34598927 20.57638436 -35.68878889 17.15903504 -29.02929688 13.74609375 C-26.76260009 12.58348507 -24.49664676 11.41942573 -22.23144531 10.25390625 C-18.98174725 8.58214557 -15.72944079 6.91556235 -12.4765625 5.25 C-11.45881744 4.7250293 -10.44107239 4.20005859 -9.39248657 3.65917969 C-8.45166229 3.17868164 -7.51083801 2.69818359 -6.54150391 2.203125 C-5.71099518 1.77676758 -4.88048645 1.35041016 -4.02481079 0.91113281 C-2 0 -2 0 0 0 Z " fill="#48954A" transform="translate(103,74)"/>
<path d="M0 0 C1.39965708 4.19897123 -0.20407899 7.09186501 -1.6875 11.0625 C-1.96787109 11.83400391 -2.24824219 12.60550781 -2.53710938 13.40039062 C-4.24016839 18.0554186 -6.03394426 22.66604182 -7.9296875 27.24609375 C-8.84477304 29.60060215 -9.68805552 31.95898397 -10.5078125 34.34765625 C-10.77464844 35.12302734 -11.04148437 35.89839844 -11.31640625 36.69726562 C-11.84892957 38.25496064 -12.37514171 39.81482978 -12.89453125 41.37695312 C-14.78053357 46.89026678 -14.78053357 46.89026678 -17 48 C-15.89055124 41.89803184 -14.0856765 36.16828745 -11.859375 30.38671875 C-10.37314369 26.25904906 -9.13701149 22.05376279 -7.8671875 17.85546875 C-7.27187155 15.89521668 -6.64784175 13.94352524 -6 12 C-5.34 12 -4.68 12 -4 12 C-3.81824219 11.07767578 -3.81824219 11.07767578 -3.6328125 10.13671875 C-3.46523438 9.32847656 -3.29765625 8.52023438 -3.125 7.6875 C-2.96257812 6.88699219 -2.80015625 6.08648437 -2.6328125 5.26171875 C-2 3 -2 3 0 0 Z " fill="#4CAB4E" transform="translate(307,117)"/>
<path d="M0 0 C2 2 2 2 2.375 4.9375 C2 8 2 8 0.4375 10 C-3.15039279 11.47195602 -5.4634667 10.29219486 -9 9 C-10.32 3.6 -10.32 3.6 -9 1.125 C-5.95206728 -0.58946215 -3.42138871 -0.31103534 0 0 Z M-5 3 C-5 4.32 -5 5.64 -5 7 C-4.01 7 -3.02 7 -2 7 C-2 5.68 -2 4.36 -2 3 C-2.99 3 -3.98 3 -5 3 Z " fill="#439253" transform="translate(204,217)"/>
<path d="M0 0 C3.3 0 6.6 0 10 0 C11.9955516 3.99110319 12.19546065 5.69986566 12 10 C10.35 10 8.7 10 7 10 C7 7.69 7 5.38 7 3 C6.34 3 5.68 3 5 3 C5 5.31 5 7.62 5 10 C3.68 10 2.36 10 1 10 C0.67 6.7 0.34 3.4 0 0 Z " fill="#5C955D" transform="translate(210,217)"/>
<path d="M0 0 C3.375 -0.1875 3.375 -0.1875 7 0 C9.4294516 3.6441774 9.16179575 5.71241272 9 10 C7.52093108 10.02689216 6.04172517 10.04634621 4.5625 10.0625 C3.32693359 10.07990234 3.32693359 10.07990234 2.06640625 10.09765625 C0 10 0 10 -1 9 C-1.17299981 5.79950343 -0.9097643 3.07045451 0 0 Z " fill="#4C915D" transform="translate(168,217)"/>
<path d="M0 0 C0.33 0 0.66 0 1 0 C1.04934656 5.80239614 1.08569402 11.60467081 1.10986328 17.40722656 C1.11993627 19.38218309 1.13359521 21.35712466 1.15087891 23.33203125 C1.17507039 26.16670418 1.18646991 29.00118038 1.1953125 31.8359375 C1.20563507 32.72243988 1.21595764 33.60894226 1.22659302 34.52230835 C1.2269907 36.68285952 1.12272534 38.84293718 1 41 C0.34 41.66 -0.32 42.32 -1 43 C-1.33 29.8 -1.66 16.6 -2 3 C-1.34 3 -0.68 3 0 3 C0 2.01 0 1.02 0 0 Z " fill="#319537" transform="translate(110,118)"/>
<path d="M0 0 C0 0.66 0 1.32 0 2 C-0.66 2 -1.32 2 -2 2 C-2.33 3.65 -2.66 5.3 -3 7 C-8.29230769 9.21538462 -8.29230769 9.21538462 -11.875 8.125 C-12.57625 7.75375 -13.2775 7.3825 -14 7 C-14.33 7.99 -14.66 8.98 -15 10 C-17.31 10 -19.62 10 -22 10 C-18.60159024 7.23879207 -14.89677506 5.26496366 -11 3.3125 C-10.38382813 2.99216797 -9.76765625 2.67183594 -9.1328125 2.34179688 C-5.74884767 0.63892187 -3.87325478 0 0 0 Z " fill="#3BB13B" transform="translate(50,102)"/>
<path d="M0 0 C4 0 4 0 5.5 1.375 C5.995 1.91125 6.49 2.4475 7 3 C9.09989652 4.17574711 9.09989652 4.17574711 11 5 C11.33 4.34 11.66 3.68 12 3 C13.04220703 3.86238281 13.04220703 3.86238281 14.10546875 4.7421875 C18.0779722 7.84084741 22.30871814 10.48325768 26.55078125 13.1953125 C27.35902344 13.79085937 28.16726563 14.38640625 29 15 C29 15.66 29 16.32 29 17 C24.81238337 15.71939982 21.17943621 14.13653086 17.3828125 11.9609375 C16.36445313 11.38085938 15.34609375 10.80078125 14.296875 10.203125 C13.25015625 9.59984375 12.2034375 8.9965625 11.125 8.375 C10.05507813 7.76398438 8.98515625 7.15296875 7.8828125 6.5234375 C5.25244245 5.0203689 2.62499074 3.51243714 0 2 C0 1.34 0 0.68 0 0 Z " fill="#2A643D" transform="translate(278,65)"/>
<path d="M0 0 C1.32 0 2.64 0 4 0 C4 0.99 4 1.98 4 3 C4.66 3 5.32 3 6 3 C6 3.99 6 4.98 6 6 C5.34 6 4.68 6 4 6 C4 7.32 4 8.64 4 10 C4.66 10 5.32 10 6 10 C6 10.99 6 11.98 6 13 C4.02 13 2.04 13 0 13 C-0.66 9.7 -1.32 6.4 -2 3 C-1.34 3 -0.68 3 0 3 C0 2.01 0 1.02 0 0 Z " fill="#4F8E62" transform="translate(276,214)"/>
<path d="M0 0 C1.32 0 2.64 0 4 0 C4 3.63 4 7.26 4 11 C5.65 11 7.3 11 9 11 C9 12.32 9 13.64 9 15 C6.03 14.67 3.06 14.34 0 14 C0 9.38 0 4.76 0 0 Z " fill="#598A55" transform="translate(120,213)"/>
<path d="M0 0 C1.084021 0.00523682 2.16804199 0.01047363 3.28491211 0.01586914 C5.03964844 0.02070312 5.03964844 0.02070312 6.82983398 0.02563477 C8.67738281 0.03820312 8.67738281 0.03820312 10.56225586 0.05102539 C12.41560547 0.05779297 12.41560547 0.05779297 14.30639648 0.06469727 C17.37089703 0.07652931 20.43530307 0.09301366 23.49975586 0.11352539 C22.74975586 7.86352539 22.74975586 7.86352539 20.49975586 10.11352539 C20.82975586 7.47352539 21.15975586 4.83352539 21.49975586 2.11352539 C13.90975586 2.44352539 6.31975586 2.77352539 -1.50024414 3.11352539 C-1.83024414 3.77352539 -2.16024414 4.43352539 -2.50024414 5.11352539 C-3.16024414 5.11352539 -3.82024414 5.11352539 -4.50024414 5.11352539 C-3.38023434 0.15348198 -3.38023434 0.15348198 0 0 Z " fill="#579F56" transform="translate(293.500244140625,90.886474609375)"/>
<path d="M0 0 C3.36591866 1.44253657 5.51047079 3.33264727 8 6 C3.25 8 3.25 8 1 8 C1.95712891 8.50660156 1.95712891 8.50660156 2.93359375 9.0234375 C3.75988281 9.46945313 4.58617187 9.91546875 5.4375 10.375 C6.26121094 10.81585938 7.08492187 11.25671875 7.93359375 11.7109375 C10 13 10 13 11 15 C6.46152802 13.65072455 2.68067754 11.80840652 -1.375 9.375 C-2.43460938 8.74335937 -3.49421875 8.11171875 -4.5859375 7.4609375 C-5.38257813 6.97882812 -6.17921875 6.49671875 -7 6 C-4 5 -4 5 -1 6 C-1 5.34 -1 4.68 -1 4 C-0.34 3.67 0.32 3.34 1 3 C0.67 2.01 0.34 1.02 0 0 Z " fill="#2F7140" transform="translate(230,30)"/>
<path d="M0 0 C2.64 0 5.28 0 8 0 C8 0.99 8 1.98 8 3 C7.01 3 6.02 3 5 3 C5 5.31 5 7.62 5 10 C3.35 10 1.7 10 0 10 C0 6.7 0 3.4 0 0 Z " fill="#3F8A5C" transform="translate(264,217)"/>
<path d="M0 0 C-2.55886504 1.32002556 -5.12167068 2.63113782 -7.6875 3.9375 C-8.7693457 4.49727539 -8.7693457 4.49727539 -9.87304688 5.06835938 C-13.56505742 6.93965239 -16.83693096 8.48269556 -21 9 C-21 9.66 -21 10.32 -21 11 C-24.52948291 12.66670026 -26.28272326 13.13583456 -30 12 C-26.37821822 10.11489227 -22.7487036 8.24571848 -19.11132812 6.39086914 C-17.87538183 5.75781952 -16.64162479 5.12047645 -15.41015625 4.47875977 C-13.63864721 3.55657502 -11.85846998 2.65110245 -10.078125 1.74609375 C-9.00981445 1.19622803 -7.94150391 0.6463623 -6.84082031 0.07983398 C-3.91662097 -1.03169349 -2.83704408 -1.17611637 0 0 Z " fill="#408D47" transform="translate(139,58)"/>
<path d="M0 0 C2.13911742 2.05129442 3.95737463 4.15695031 5.6875 6.5625 C6.34298828 7.46162109 6.34298828 7.46162109 7.01171875 8.37890625 C8 10 8 10 8 12 C7.01 12 6.02 12 5 12 C5 11.34 5 10.68 5 10 C4.236875 10.0825 3.47375 10.165 2.6875 10.25 C0 10 0 10 -1.875 8.1875 C-2.24625 7.465625 -2.6175 6.74375 -3 6 C-2 3 -2 3 0 0 Z " fill="#45AF47" transform="translate(220,182)"/>
<path d="M0 0 C2.64 0 5.28 0 8 0 C8 0.99 8 1.98 8 3 C7.01 3 6.02 3 5 3 C5 5.31 5 7.62 5 10 C3.68 10 2.36 10 1 10 C0.67 6.7 0.34 3.4 0 0 Z " fill="#4A8A52" transform="translate(156,217)"/>
<path d="M0 0 C1.32 0.66 2.64 1.32 4 2 C4 2.99 4 3.98 4 5 C4.66 5 5.32 5 6 5 C7.35879394 10.43517578 6.8308169 13.32862624 4.30078125 18.30078125 C2.76114913 20.3120124 1.31676683 21.03915144 -1 22 C-0.34 21.030625 0.32 20.06125 1 19.0625 C3.46067389 14.73661779 3.76925585 10.88079571 3 6 C1.65253476 2.54653852 1.65253476 2.54653852 0 0 Z " fill="#52A954" transform="translate(183,112)"/>
<path d="M0 0 C0.99 0 1.98 0 3 0 C1.31910452 6.14961761 -0.59560586 10.3575305 -5 15 C-5.66 14.67 -6.32 14.34 -7 14 C-7 13.34 -7 12.68 -7 12 C-6.34 11.67 -5.68 11.34 -5 11 C-4.34786708 8.97536745 -4.34786708 8.97536745 -4 7 C-3.34 7 -2.68 7 -2 7 C-1.34 4.69 -0.68 2.38 0 0 Z " fill="#37905A" transform="translate(189,217)"/>
<path d="M0 0 C-1.92989218 1.19982444 -3.86919228 2.38452818 -5.8125 3.5625 C-7.43091797 4.55443359 -7.43091797 4.55443359 -9.08203125 5.56640625 C-12 7 -12 7 -15 6 C-14.34 5.566875 -13.68 5.13375 -13 4.6875 C-12.01 3.8521875 -12.01 3.8521875 -11 3 C-11 2.01 -11 1.02 -11 0 C-7.01080675 -1.1004671 -3.98919325 -1.1004671 0 0 Z " fill="#3F9644" transform="translate(109,92)"/>
<path d="M0 0 C0.33 0 0.66 0 1 0 C1.25086133 4.51550388 1.25086133 4.51550388 0.08984375 6.7578125 C-1.312783 9.64350337 -1.88703612 12.49169634 -2.5625 15.625 C-3.90277778 21.80555556 -3.90277778 21.80555556 -5 24 C-5.66 24 -6.32 24 -7 24 C-5.70476749 15.60998643 -2.9867484 7.91146331 0 0 Z " fill="#4FA953" transform="translate(283,113)"/>
<path d="M0 0 C0.66 0 1.32 0 2 0 C5.32270836 7.06075526 5.31806054 13.2723068 5 21 C4.34 21 3.68 21 3 21 C2.95101562 19.95199219 2.90203125 18.90398437 2.8515625 17.82421875 C2.77651857 16.44528646 2.70097143 15.0663815 2.625 13.6875 C2.5940625 12.99720703 2.563125 12.30691406 2.53125 11.59570312 C2.31875081 7.93009211 2.08066139 6.12099208 0 3 C0 2.01 0 1.02 0 0 Z " fill="#52AD53" transform="translate(210,105)"/>
<path d="M0 0 C3.35364937 2.75171231 5.26782293 4.68492386 5.75 9 C5.83836237 10.33300949 5.92202407 11.66634263 6 13 C6.31323028 14.67056149 6.63678515 16.33958925 7 18 C3.85121058 16.42560529 3.45977508 13.28472275 2.375 10.125 C2.14554688 9.48691406 1.91609375 8.84882813 1.6796875 8.19140625 C0.67513402 5.32723295 0 3.05749257 0 0 Z " fill="#51AC53" transform="translate(224,120)"/>
<path d="M0 0 C1 3 1 3 0.1796875 4.8671875 C-2.54516465 9.06052284 -5.20562455 12.71837799 -9 16 C-9.66 16 -10.32 16 -11 16 C-10.34 14.35 -9.68 12.7 -9 11 C-8.01 11 -7.02 11 -6 11 C-5.731875 10.46375 -5.46375 9.9275 -5.1875 9.375 C-4.795625 8.59125 -4.40375 7.8075 -4 7 C-3.2265625 5.4221875 -3.2265625 5.4221875 -2.4375 3.8125 C-1 1 -1 1 0 0 Z " fill="#54A953" transform="translate(213,127)"/>
<path d="M0 0 C-1 3 -1 3 -2.62646484 4.09082031 C-3.31434082 4.41663086 -4.0022168 4.74244141 -4.7109375 5.078125 C-5.83628906 5.61179687 -5.83628906 5.61179687 -6.984375 6.15625 C-7.77328125 6.5171875 -8.5621875 6.878125 -9.375 7.25 C-10.54675781 7.81460938 -10.54675781 7.81460938 -11.7421875 8.390625 C-17.61803571 11.12732143 -17.61803571 11.12732143 -21 10 C-17.87852455 8.32666842 -14.75226502 6.66248284 -11.625 5 C-10.73554687 4.52304688 -9.84609375 4.04609375 -8.9296875 3.5546875 C-8.07890625 3.10351562 -7.228125 2.65234375 -6.3515625 2.1875 C-5.56604004 1.76855469 -4.78051758 1.34960938 -3.97119141 0.91796875 C-2 0 -2 0 0 0 Z " fill="#52A152" transform="translate(75,88)"/>
<path d="M0 0 C0.33 2.31 0.66 4.62 1 7 C-0.32 6.67 -1.64 6.34 -3 6 C-2.67 4.35 -2.34 2.7 -2 1 C-5.32901247 3.21934164 -5.75023244 4.34683329 -7 8 C-7.33 8 -7.66 8 -8 8 C-8.1875 5.125 -8.1875 5.125 -8 2 C-4.77208445 -0.1519437 -3.71599191 -0.20086443 0 0 Z " fill="#539C58" transform="translate(257,217)"/>
<path d="M0 0 C1 2 1 2 0.47094727 4.06298828 C0.17244873 4.89040527 -0.1260498 5.71782227 -0.43359375 6.5703125 C-0.75263672 7.46621094 -1.07167969 8.36210937 -1.40039062 9.28515625 C-1.91375977 10.69087891 -1.91375977 10.69087891 -2.4375 12.125 C-2.94506836 13.54232422 -2.94506836 13.54232422 -3.46289062 14.98828125 C-4.3018906 17.32802766 -5.14784292 19.66502009 -6 22 C-6.66 21.67 -7.32 21.34 -8 21 C-7.71125 20.31164062 -7.4225 19.62328125 -7.125 18.9140625 C-5.48791622 14.67356075 -4.27708709 10.32099265 -3 5.9609375 C-2 3 -2 3 0 0 Z " fill="#4EAA4F" transform="translate(288,169)"/>
<path d="M0 0 C2.475 0.495 2.475 0.495 5 1 C4.79375 1.66 4.5875 2.32 4.375 3 C3.86296237 7.09630108 4.85966299 10.04235979 6 14 C5.34 14 4.68 14 4 14 C3.32968281 12.0429132 2.66385317 10.08428887 2 8.125 C1.62875 7.03445312 1.2575 5.94390625 0.875 4.8203125 C0 2 0 2 0 0 Z " fill="#559C52" transform="translate(233,213)"/>
<path d="M0 0 C0.66 0.33 1.32 0.66 2 1 C1.67 2.32 1.34 3.64 1 5 C-0.65 4.67 -2.3 4.34 -4 4 C-4.33 4.99 -4.66 5.98 -5 7 C-7.31 7 -9.62 7 -12 7 C-8.44008172 4.03340143 -4.34777457 1.618652 0 0 Z " fill="#4BA84A" transform="translate(40,105)"/>
<path d="M0 0 C7.39725495 0.23483349 12.40286597 2.01153775 18 7 C18 7.66 18 8.32 18 9 C18.66 9.33 19.32 9.66 20 10 C19.01 10 18.02 10 17 10 C17 9.34 17 8.68 17 8 C16.42121094 7.71253906 15.84242188 7.42507812 15.24609375 7.12890625 C13.83602338 6.42019262 12.43139326 5.70043581 11.03515625 4.96484375 C7.37457822 3.05844371 4.1522978 1.51903723 0 1 C0 0.67 0 0.34 0 0 Z " fill="#53A657" transform="translate(191,94)"/>
<path d="M0 0 C0 0.99 0 1.98 0 3 C-6.75 7 -6.75 7 -9 7 C-8.02086745 1.32103121 -5.73500486 -0.46500039 0 0 Z " fill="#33923A" transform="translate(138,72)"/>
<path d="M0 0 C2.475 0.495 2.475 0.495 5 1 C5.33 3.97 5.66 6.94 6 10 C5.01 10 4.02 10 3 10 C2.87625 8.865625 2.7525 7.73125 2.625 6.5625 C2.41875 5.386875 2.2125 4.21125 2 3 C1.34 2.67 0.68 2.34 0 2 C0 1.34 0 0.68 0 0 Z " fill="#3F8959" transform="translate(216,217)"/>
<path d="M0 0 C-1.375 2 -1.375 2 -3 4 C-3.66 4 -4.32 4 -5 4 C-5.33 4.66 -5.66 5.32 -6 6 C-6 5.34 -6 4.68 -6 4 C-7.65 4.33 -9.3 4.66 -11 5 C-10.1875 3.0625 -10.1875 3.0625 -9 1 C-5.8035914 -0.06546953 -3.34252724 -0.07427838 0 0 Z " fill="#3CAE39" transform="translate(63,98)"/>
<path d="M0 0 C7.92 0 15.84 0 24 0 C24 0.33 24 0.66 24 1 C13.11 1.495 13.11 1.495 2 2 C1.67 2.66 1.34 3.32 1 4 C0.34 4 -0.32 4 -1 4 C-0.67 2.68 -0.34 1.36 0 0 Z " fill="#4EAF4E" transform="translate(290,92)"/>
<path d="M0 0 C1.32 0.33 2.64 0.66 4 1 C3.34 4.3 2.68 7.6 2 11 C-1.375 6.5 -1.375 6.5 -2 3 C-1.34 3 -0.68 3 0 3 C0 2.01 0 1.02 0 0 Z " fill="#358F47" transform="translate(276,214)"/>
<path d="M0 0 C0.66 0 1.32 0 2 0 C3.65 4.29 5.3 8.58 7 13 C3 11 3 11 1.953125 8.3984375 C1.72109375 7.40070313 1.4890625 6.40296875 1.25 5.375 C1.00765625 4.37210938 0.7653125 3.36921875 0.515625 2.3359375 C0.34546875 1.56507813 0.1753125 0.79421875 0 0 Z " fill="#4BAB4F" transform="translate(246,181)"/>
<path d="M0 0 C0.66 0 1.32 0 2 0 C2.36923077 5.53846154 2.36923077 5.53846154 0.5 7.875 C-0.2425 8.431875 -0.2425 8.431875 -1 9 C-1.66 8.67 -2.32 8.34 -3 8 C-1.125 1.125 -1.125 1.125 0 0 Z " fill="#3A9248" transform="translate(253,218)"/>
<path d="M0 0 C0.86625 0.556875 0.86625 0.556875 1.75 1.125 C1.09 2.445 0.43 3.765 -0.25 5.125 C-2.23 4.465 -4.21 3.805 -6.25 3.125 C-6.25 2.465 -6.25 1.805 -6.25 1.125 C-2.80384615 -1.09038462 -2.80384615 -1.09038462 0 0 Z " fill="#3B983F" transform="translate(109.25,71.875)"/>
<path d="M0 0 C0.99 0.33 1.98 0.66 3 1 C3 3.64 3 6.28 3 9 C2.01 9 1.02 9 0 9 C0 6.03 0 3.06 0 0 Z " fill="#34874B" transform="translate(212,218)"/>
<path d="M0 0 C1.91385532 2.87078299 2.96432952 5.33411656 4.125 8.5625 C4.47820312 9.53316406 4.83140625 10.50382812 5.1953125 11.50390625 C6 14 6 14 6 16 C5.34 16 4.68 16 4 16 C3.79503906 15.36191406 3.59007812 14.72382812 3.37890625 14.06640625 C3.10949219 13.24011719 2.84007812 12.41382812 2.5625 11.5625 C2.29566406 10.73878906 2.02882812 9.91507813 1.75390625 9.06640625 C1.17844506 7.03780412 1.17844506 7.03780412 0 6 C-0.04080783 4.00041636 -0.04254356 1.99954746 0 0 Z " fill="#4BA44C" transform="translate(247,110)"/>
<path d="M0 0 C0.66 0.99 1.32 1.98 2 3 C-1.03525486 5.02350324 -2.19426202 5.32124018 -5.6875 5.625 C-6.49574219 5.69976562 -7.30398437 5.77453125 -8.13671875 5.8515625 C-9.05904297 5.92503906 -9.05904297 5.92503906 -10 6 C-7.99006295 3.99006295 -6.40788768 3.10059081 -3.875 1.875 C-3.15054688 1.52179687 -2.42609375 1.16859375 -1.6796875 0.8046875 C-1.12539062 0.53914063 -0.57109375 0.27359375 0 0 Z " fill="#2D7336" transform="translate(146,51)"/>
<path d="M0 0 C7.74468085 0.74468085 7.74468085 0.74468085 11 4 C11 4.66 11 5.32 11 6 C6.49197399 4.74194623 3.5087188 3.09592835 0 0 Z " fill="#457955" transform="translate(296,76)"/>
<path d="M0 0 C0.598125 0.763125 1.19625 1.52625 1.8125 2.3125 C3.46959332 4.3483575 5.10297674 6.1978279 7 8 C3.08788267 6.84414715 0.1254959 5.64465038 -3 3 C-2.01 2.01 -1.02 1.02 0 0 Z " fill="#1C6A31" transform="translate(249,43)"/>
<path d="M0 0 C3.63559661 3.43361902 6.36113346 6.7973607 9 11 C4.70073737 9.40768051 2.64994267 6.60686641 0 3 C0 2.01 0 1.02 0 0 Z " fill="#49A64B" transform="translate(199,153)"/>
<path d="M0 0 C2.3129482 2.3129482 2.49580975 3.47904875 3.125 6.625 C3.29257812 7.44226563 3.46015625 8.25953125 3.6328125 9.1015625 C3.81457031 10.04128906 3.81457031 10.04128906 4 11 C3.01 10.67 2.02 10.34 1 10 C0.234375 8.22265625 0.234375 8.22265625 -0.25 6.0625 C-0.42015625 5.35222656 -0.5903125 4.64195312 -0.765625 3.91015625 C-1 2 -1 2 0 0 Z " fill="#47AB4C" transform="translate(259,147)"/>
<path d="M0 0 C-1.32 0.33 -2.64 0.66 -4 1 C-4 1.99 -4 2.98 -4 4 C-5.32 4.33 -6.64 4.66 -8 5 C-7.67 3.02 -7.34 1.04 -7 -1 C-3.51418144 -2.2020064 -3.32007656 -2.21338437 0 0 Z " fill="#2F8D3A" transform="translate(151,66)"/>
<path d="M0 0 C3 1 3 1 4.38671875 3.28515625 C4.81597656 4.20167969 5.24523437 5.11820313 5.6875 6.0625 C6.34298828 7.44115234 6.34298828 7.44115234 7.01171875 8.84765625 C7.33785156 9.55792969 7.66398438 10.26820313 8 11 C4.50892621 9.83630874 4.14777237 9.11026462 2.3125 6.0625 C1.87550781 5.35222656 1.43851563 4.64195312 0.98828125 3.91015625 C0 2 0 2 0 0 Z " fill="#4DA552" transform="translate(189,179)"/>
<path d="M0 0 C4.38227147 8.13850416 4.38227147 8.13850416 3.55078125 12.1875 C3.36902344 12.785625 3.18726563 13.38375 3 14 C2.303447 12.04486839 1.61800435 10.08577524 0.9375 8.125 C0.55464844 7.03445312 0.17179688 5.94390625 -0.22265625 4.8203125 C-1 2 -1 2 0 0 Z " fill="#50A952" transform="translate(215,92)"/>
<path d="M0 0 C3.875 1.75 3.875 1.75 5 4 C3.02 4.99 1.04 5.98 -1 7 C-1.04254356 5.00045254 -1.04080783 2.99958364 -1 1 C-0.67 0.67 -0.34 0.34 0 0 Z " fill="#2A7934" transform="translate(173,48)"/>
<path d="M0 0 C4.875 0.875 4.875 0.875 6 2 C6.04063832 3.66617115 6.042721 5.33388095 6 7 C5.01 6.67 4.02 6.34 3 6 C3 4.68 3 3.36 3 2 C2.01 1.67 1.02 1.34 0 1 C0 0.67 0 0.34 0 0 Z " fill="#3F8851" transform="translate(138,217)"/>
<path d="M0 0 C0.33 0.66 0.66 1.32 1 2 C3.12576782 2.46651207 3.12576782 2.46651207 5.5625 2.625 C6.38878906 2.69976562 7.21507812 2.77453125 8.06640625 2.8515625 C8.70449219 2.90054688 9.34257812 2.94953125 10 3 C10 3.33 10 3.66 10 4 C8.04233719 4.08082094 6.08373272 4.13910778 4.125 4.1875 C2.48917969 4.23970703 2.48917969 4.23970703 0.8203125 4.29296875 C-0.11039063 4.19628906 -1.04109375 4.09960938 -2 4 C-2.66 3.01 -3.32 2.02 -4 1 C-2 0 -2 0 0 0 Z " fill="#39B13C" transform="translate(199,189)"/>
<path d="M0 0 C0.33 1.32 0.66 2.64 1 4 C-1.31 4.33 -3.62 4.66 -6 5 C-5.6875 3.0625 -5.6875 3.0625 -5 1 C-2 0 -2 0 0 0 Z " fill="#55A352" transform="translate(22,115)"/>
<path d="M0 0 C1.65 0 3.3 0 5 0 C6.10844919 3.32534757 5.84454356 5.62182575 5 9 C4.67 9 4.34 9 4 9 C4 6.69 4 4.38 4 2 C2.68 2.33 1.36 2.66 0 3 C0 2.01 0 1.02 0 0 Z " fill="#388254" transform="translate(170,217)"/>
<path d="M0 0 C2 1 2 1 2.8515625 3.06640625 C3.10679687 3.89011719 3.36203125 4.71382812 3.625 5.5625 C3.88539063 6.38878906 4.14578125 7.21507812 4.4140625 8.06640625 C4.60742188 8.70449219 4.80078125 9.34257812 5 10 C4.34 10.66 3.68 11.32 3 12 C2.49440092 10.56445975 1.9957251 9.1264798 1.5 7.6875 C1.2215625 6.88699219 0.943125 6.08648437 0.65625 5.26171875 C0 3 0 3 0 0 Z " fill="#4EA854" transform="translate(235,150)"/>
<path d="M0 0 C0 0.66 0 1.32 0 2 C-0.66 2 -1.32 2 -2 2 C-2.33 2.99 -2.66 3.98 -3 5 C-5.475 4.01 -5.475 4.01 -8 3 C-4.93882432 0.37613513 -4.26826873 0 0 0 Z " fill="#45A843" transform="translate(50,102)"/>
<path d="M0 0 C0.33 0.66 0.66 1.32 1 2 C1.66 2 2.32 2 3 2 C3 2.99 3 3.98 3 5 C2.34 5 1.68 5 1 5 C1 6.65 1 8.3 1 10 C0.34 9.67 -0.32 9.34 -1 9 C-0.67 6.03 -0.34 3.06 0 0 Z " fill="#3C8E69" transform="translate(279,215)"/>
<path d="M0 0 C1.31625194 2.63250388 0.74813658 3.80179056 0.0625 6.625 C-0.13214844 7.44226563 -0.32679688 8.25953125 -0.52734375 9.1015625 C-0.68332031 9.72804687 -0.83929688 10.35453125 -1 11 C-1.66 11 -2.32 11 -3 11 C-2.53199289 6.94393835 -2.12046792 3.53411321 0 0 Z " fill="#50AA52" transform="translate(271,151)"/>
<path d="M0 0 C0.33 0.66 0.66 1.32 1 2 C2.32 1.67 3.64 1.34 5 1 C4.67 1.99 4.34 2.98 4 4 C1.36 4 -1.28 4 -4 4 C-2.68 2.68 -1.36 1.36 0 0 Z " fill="#42B442" transform="translate(27,115)"/>
<path d="M0 0 C2.95183101 2.95183101 3.08663988 5.95511947 4 10 C2.68 9.67 1.36 9.34 0 9 C0 6.03 0 3.06 0 0 Z " fill="#44AA46" transform="translate(242,95)"/>
<path d="M0 0 C0.66 0 1.32 0 2 0 C2.25 2.3125 2.25 2.3125 2 5 C0 6.8125 0 6.8125 -2 8 C-2.33 7.01 -2.66 6.02 -3 5 C-2.34 4.67 -1.68 4.34 -1 4 C-0.34786708 1.97536745 -0.34786708 1.97536745 0 0 Z " fill="#35784C" transform="translate(185,224)"/>
<path d="M0 0 C0.66 0 1.32 0 2 0 C2.625 2.875 2.625 2.875 3 6 C2.34 6.66 1.68 7.32 1 8 C0.34 5.69 -0.32 3.38 -1 1 C-0.67 0.67 -0.34 0.34 0 0 Z " fill="#289A44" transform="translate(237,216)"/>
<path d="M0 0 C0.99 0.33 1.98 0.66 3 1 C3.33 2.65 3.66 4.3 4 6 C3.01 6.495 3.01 6.495 2 7 C0 5 0 5 -0.125 2.375 C-0.08375 1.59125 -0.0425 0.8075 0 0 Z " fill="#22A844" transform="translate(257,217)"/>
<path d="M0 0 C0.99 0.33 1.98 0.66 3 1 C3.33 3.31 3.66 5.62 4 8 C3.34 8 2.68 8 2 8 C-0.1519437 4.77208445 -0.20086443 3.71599191 0 0 Z " fill="#47B44C" transform="translate(239,160)"/>
<path d="M0 0 C-6.75 4 -6.75 4 -9 4 C-8 1 -8 1 -5.625 -0.25 C-3 -1 -3 -1 0 0 Z " fill="#357943" transform="translate(200,39)"/>
</svg>
