<?xml version="1.0" encoding="UTF-8"?>
<svg version="1.1" xmlns="http://www.w3.org/2000/svg" width="3840" height="2160">
<path d="M0 0 C1.54421631 0.50805176 1.54421631 0.50805176 3.11962891 1.02636719 C32.34259504 10.75965308 60.86959712 24.05415537 86 42 C86.71929688 42.51320801 87.43859375 43.02641602 88.1796875 43.55517578 C105.21759075 55.76498388 105.21759075 55.76498388 112.69921875 62.83984375 C114.65463407 64.67574303 116.64738765 66.42688793 118.6796875 68.17578125 C130.41539228 78.40890131 141.50462246 89.65600919 151 102 C151.99169085 103.2290709 152.98674282 104.45543424 153.984375 105.6796875 C169 124.13644105 169 124.13644105 169 129 C166.42774781 130.73634706 163.88050034 132.2839133 161.1875 133.8125 C146.03380668 142.744438 132.20353489 153.40896578 119 165 C117.90171875 165.94939453 117.90171875 165.94939453 116.78125 166.91796875 C114.84238329 168.59908929 112.91991406 170.29728834 111 172 C110.26910156 172.63808594 109.53820313 173.27617188 108.78515625 173.93359375 C98.50791646 183.01154462 88.60457625 192.55108684 80.11328125 203.33984375 C78.71725461 205.09713422 77.27698873 206.82026588 75.79296875 208.50390625 C62.30062967 223.87577515 51.30815993 241.82899008 42 260 C41.59620117 260.77778809 41.19240234 261.55557617 40.77636719 262.35693359 C16.80685688 308.96016311 7.53629678 361.53688887 7.625 413.5625 C7.62531723 415.29105728 7.62531723 415.29105728 7.62564087 417.05453491 C7.67743854 445.49881926 10.03866958 473.33924111 17 501 C17.25120605 502.00498535 17.50241211 503.0099707 17.76123047 504.04541016 C29.25222378 549.15793809 49.94031594 592.07691825 81 627 C82.20856432 628.39563334 83.41692613 629.7914421 84.625 631.1875 C85.74966342 632.45863121 86.8746664 633.72946206 88 635 C88.58007812 635.67289063 89.16015625 636.34578125 89.7578125 637.0390625 C95.12108621 643.15950427 100.81871893 648.92550047 106.5625 654.6875 C107.7676123 655.89950073 107.7676123 655.89950073 108.99707031 657.13598633 C113.837115 661.96362828 118.80444325 666.5591677 124 671 C124.98742188 671.86882813 125.97484375 672.73765625 126.9921875 673.6328125 C151.04821193 694.42921302 179.32132963 712.42347106 209 724 C207.30719523 728.72497155 204.85438361 732.90909983 202.375 737.25 C194.65415769 751.02733652 188.49609986 764.65928983 183.73828125 779.734375 C179.79757118 791.92319083 174.61893346 803.45446778 169.125 815 C168.75483765 815.78079926 168.38467529 816.56159851 168.0032959 817.36605835 C156.91101867 840.73881679 145.02730187 863.63976735 132 886 C131.2565332 887.28028076 131.2565332 887.28028076 130.49804688 888.58642578 C123.42463183 900.71793834 115.83378364 912.4421703 107.97167969 924.07470703 C104.68096994 928.95698591 101.42109737 933.85980479 98.1583252 938.76077271 C97.00185412 940.49721604 95.84437495 942.23298273 94.68652344 943.96850586 C91.17168242 949.2371707 87.66074717 954.50831766 84.1640625 959.7890625 C71.28223433 979.2272584 57.93350174 998.06989177 43 1016 C42.21238281 1016.97453125 41.42476562 1017.9490625 40.61328125 1018.953125 C33.80607199 1027.24773124 26.3311101 1034.85725111 18.75 1042.4375 C18.23057831 1042.95782806 17.71115662 1043.47815613 17.17599487 1044.01425171 C11.85141943 1049.337777 6.48920147 1054.56849574 0.76611328 1059.46801758 C-1.49925745 1061.43307167 -3.6530023 1063.50110702 -5.81616211 1065.57714844 C-35.62928896 1094.03901024 -76.09504212 1115.79492472 -118.15234375 1116.23828125 C-118.92085663 1116.2480751 -119.68936951 1116.25786896 -120.48117065 1116.26795959 C-138.06190902 1116.44563551 -154.7827997 1115.93313651 -172 1112 C-172.98613281 1111.78569336 -173.97226562 1111.57138672 -174.98828125 1111.35058594 C-208.97168285 1103.9342591 -242.09032219 1092.54334771 -274.75 1080.6875 C-369.49914543 1046.50840026 -452.32307245 1064.73031259 -544.16699219 1097.97460938 C-545.10188477 1098.31298828 -546.03677734 1098.65136719 -547 1099 C-547.8137207 1099.29455078 -548.62744141 1099.58910156 -549.46582031 1099.89257812 C-563.6917661 1104.99302521 -578.2729023 1108.64969017 -593 1112 C-593.98677734 1112.23025879 -594.97355469 1112.46051758 -595.99023438 1112.69775391 C-609.44036145 1115.73737031 -622.70264723 1116.38152871 -636.4375 1116.4375 C-637.23379822 1116.44385468 -638.03009644 1116.45020935 -638.8505249 1116.45675659 C-653.87405541 1116.53143008 -668.11831884 1114.49416486 -682.5625 1110.25 C-683.88145264 1109.86593994 -683.88145264 1109.86593994 -685.22705078 1109.47412109 C-713.9902306 1100.81541753 -738.83493848 1083.78250528 -760.53662109 1063.37060547 C-762.9832671 1061.07906882 -765.46238322 1058.82318233 -767.9375 1056.5625 C-772.29653425 1052.56780078 -776.65067238 1048.56776441 -781 1044.5625 C-781.54003662 1044.0662915 -782.08007324 1043.57008301 -782.63647461 1043.05883789 C-788.97302897 1037.21699956 -788.97302897 1037.21699956 -791 1035 C-791 1034.34 -791 1033.68 -791 1033 C-791.66 1033 -792.32 1033 -793 1033 C-794.33984375 1031.70703125 -794.33984375 1031.70703125 -795.9375 1029.8125 C-796.56011719 1029.07902344 -797.18273437 1028.34554688 -797.82421875 1027.58984375 C-798.54222656 1026.73519531 -799.26023437 1025.88054687 -800 1025 C-800.83144531 1024.03191406 -801.66289063 1023.06382813 -802.51953125 1022.06640625 C-808.76096059 1014.78757313 -814.74241397 1007.33220588 -820.625 999.76171875 C-821.99129299 998.01115586 -823.36853388 996.26985651 -824.75 994.53125 C-830.34783082 987.47852018 -835.7660724 980.31957666 -841.05859375 973.03515625 C-843.13690571 970.17508742 -845.23575782 967.33145154 -847.34765625 964.49609375 C-853.94217816 955.6304218 -860.33012794 946.66813592 -866.51367188 937.51074219 C-869.88260908 932.54895148 -873.43884267 927.84588357 -877.2578125 923.21875 C-879.74591592 920.0500443 -881.83099908 916.67714401 -883.94921875 913.25390625 C-886.57199226 909.09243894 -889.31864594 905.01973765 -892.0625 900.9375 C-904 883.10512067 -904 883.10512067 -904 880 C-904.66 880 -905.32 880 -906 880 C-906.29350342 879.39704102 -906.58700684 878.79408203 -906.8894043 878.17285156 C-909.98079656 871.89688356 -913.31106078 865.80518418 -916.8125 859.75 C-917.33875977 858.83323486 -917.86501953 857.91646973 -918.40722656 856.97192383 C-920.6855513 853.00436412 -922.97288908 849.04228191 -925.27734375 845.08984375 C-929.73680781 837.39837208 -933.84191063 829.58417035 -937.73339844 821.59521484 C-938.65951468 819.6976405 -939.59054148 817.80246057 -940.52441406 815.90869141 C-953.71504876 789.15352032 -965.34618371 761.8676929 -976 734 C-976.43634766 732.87062012 -976.87269531 731.74124023 -977.32226562 730.57763672 C-1006.59994357 654.50989198 -1025.36824645 573.05357965 -1033.125 491.9375 C-1033.20032959 491.15552246 -1033.27565918 490.37354492 -1033.35327148 489.56787109 C-1033.58585007 487.0463948 -1033.79480056 484.52386194 -1034 482 C-1034.08408615 480.97753677 -1034.1681723 479.95507355 -1034.25480652 478.90162659 C-1035.0427934 468.3657901 -1035.16362167 457.87453195 -1035.16796875 447.3125 C-1035.17119483 445.43847632 -1035.17455983 443.56445288 -1035.17805481 441.69042969 C-1035.18400154 437.7807558 -1035.18589943 433.87110386 -1035.18530273 429.96142578 C-1035.18522164 426.00141821 -1035.1921433 422.04152674 -1035.20581055 418.08154297 C-1035.35129319 375.23380616 -1035.35129319 375.23380616 -1033 357 C-1032.91076263 356.27651367 -1032.82152527 355.55302734 -1032.72958374 354.80761719 C-1032.15259468 350.19117502 -1031.47430208 345.5959565 -1030.75 341 C-1030.64362213 340.31576965 -1030.53724426 339.63153931 -1030.42764282 338.92657471 C-1022.20546558 286.1571073 -1009.03918377 233.50363803 -984.02880859 185.96777344 C-982.90245333 183.8134252 -981.8044251 181.64579758 -980.70703125 179.4765625 C-966.79765678 152.21261939 -948.94005789 126.91471868 -928.1953125 104.40625 C-926.37541359 102.41148536 -924.61176815 100.38667194 -922.8515625 98.33984375 C-918.5197099 93.37941611 -913.90736025 88.71589579 -909.25 84.0625 C-907.92101685 82.7336377 -907.92101685 82.7336377 -906.56518555 81.37792969 C-901.35848428 76.2165788 -896.13469976 71.32287079 -890.3359375 66.83203125 C-886.98943474 64.20743293 -883.89388227 61.32470453 -880.77734375 58.43359375 C-879 57 -879 57 -877 57 C-877 56.34 -877 55.68 -877 55 C-875.05397517 53.45181543 -873.10879139 52.03078221 -871.0625 50.625 C-869.76282082 49.71903687 -868.46335032 48.81277431 -867.1640625 47.90625 C-866.47860352 47.43058594 -865.79314453 46.95492187 -865.08691406 46.46484375 C-863.04643485 45.03259348 -861.03251252 43.56964361 -859.0234375 42.09375 C-848.15731952 34.16044676 -836.79403955 27.45461142 -825 21 C-824.17048828 20.5373877 -823.34097656 20.07477539 -822.48632812 19.59814453 C-782.37076831 -2.73496456 -738.43375686 -15.41928587 -693 -21 C-692.16275391 -21.1038501 -691.32550781 -21.2077002 -690.46289062 -21.31469727 C-665.24012811 -24.02375461 -638.81466269 -23.05526617 -614 -18 C-612.90655273 -17.78569336 -611.81310547 -17.57138672 -610.68652344 -17.35058594 C-575.84108241 -10.43784612 -542.40470772 1.34567382 -509.48144531 14.47979736 C-432.25252667 45.2846557 -389.34133357 46.46231696 -312.25 17.4375 C-230.73399562 -13.24076897 -153.73736613 -32.02048196 0 0 Z " fill="#000000" transform="translate(1087,714)"/>
<path d="M0 0 C0.90621094 0.72445312 1.81242187 1.44890625 2.74609375 2.1953125 C5.51777495 4.44001223 8.25993995 6.7168018 11 9 C12.00643555 9.83474854 13.01287109 10.66949707 14.04980469 11.52954102 C22.72034504 18.79696182 30.83407867 26.52262571 38.80639648 34.5456543 C40.82117835 36.57122482 42.84653275 38.58578384 44.87304688 40.59960938 C52.04478011 47.76400311 58.73139795 55.02463824 65 63 C65.94653407 64.12517699 66.89980579 65.244764 67.86328125 66.35546875 C122.00075366 128.95461946 153.84035697 208.84451793 186 386 C186.10151367 387.29276855 186.20302734 388.58553711 186.30761719 389.91748047 C192.83979158 474.13813675 185.56075042 559.33568997 65 836 C64.27031006 836.87833496 64.27031006 836.87833496 63.52587891 837.77441406 C51.79830044 851.85385388 39.36747779 865.38962601 25.640625 877.54638672 C24.52437256 878.53539967 23.4125429 879.52942202 22.3046875 880.52783203 C11.72444889 890.06131497 0.50135533 898.61234759 -11 907 C-11.73508789 907.54043945 -12.47017578 908.08087891 -13.22753906 908.63769531 C-23.58943158 916.23641649 -34.31276249 923.03555832 -45.41748047 929.49560547 C-47.99501582 930.99709657 -50.56202384 932.51554232 -53.12890625 934.03515625 C-113.85680823 969.69764971 -183.36794908 987.27400629 -253 994 C-254.80065918 994.17789062 -254.80065918 994.17789062 -256.63769531 994.359375 C-296.48187093 998.09998495 -337.23595605 997.23070665 -377 993 C-377.67861084 992.92974609 -378.35722168 992.85949219 -379.05639648 992.78710938 C-432.09004364 987.28913166 -484.38738116 974.00480702 -533 952 C-534.37454346 951.38390869 -534.37454346 951.38390869 -535.77685547 950.75537109 C-565.08635249 937.53548352 -592.48988501 920.51677472 -618 901 C-618.63873047 900.5143457 -619.27746094 900.02869141 -619.93554688 899.52832031 C-628.67220191 892.86627119 -637.00162528 885.7803516 -645.2512207 878.52734375 C-647.64225831 876.43906631 -650.05903463 874.38153582 -652.47900391 872.3269043 C-654.7695587 870.32864341 -656.8771596 868.17461699 -659 866 C-659.68835937 865.33355469 -660.37671875 864.66710938 -661.0859375 863.98046875 C-661.82070312 863.26503906 -662.55546875 862.54960938 -663.3125 861.8125 C-664.00988281 861.13832031 -664.70726562 860.46414063 -665.42578125 859.76953125 C-667 858 -667 858 -667 856 C-667.99 855.67 -668.98 855.34 -670 855 C-671.71875 853.2578125 -671.71875 853.2578125 -673.5 851.125 C-676.00265321 848.14615469 -676.00265321 848.14615469 -678.71875 845.3671875 C-680 844 -680 844 -680 842 C-680.66 842 -681.32 842 -682 842 C-683.68951897 840.05813029 -685.25766759 838.10900819 -686.8125 836.0625 C-687.54545288 835.10923828 -687.54545288 835.10923828 -688.29321289 834.13671875 C-689.33928082 832.77529089 -690.38307447 831.4121131 -691.42480469 830.04736328 C-692.90144425 828.12809803 -694.40222063 826.23143013 -695.9140625 824.33984375 C-713.03803655 802.72493408 -727.74858139 779.14469852 -741 755 C-741.53028809 754.04109863 -742.06057617 753.08219727 -742.60693359 752.09423828 C-755.26089317 729.07012729 -765.2728361 704.757586 -774 680 C-774.32387695 679.08976074 -774.64775391 678.17952148 -774.98144531 677.24169922 C-793.15185845 625.4827159 -802.30191876 570.09857244 -806.75 515.5625 C-806.83888489 514.4782222 -806.83888489 514.4782222 -806.92956543 513.37203979 C-808.63029918 492.2084659 -809.20877202 471.03960887 -809.1875 449.8125 C-809.18689575 448.68348267 -809.1862915 447.55446533 -809.18566895 446.39123535 C-809.15704387 426.53171645 -808.62195252 406.79396779 -807 387 C-806.93683594 386.22323914 -806.87367187 385.44647827 -806.80859375 384.6461792 C-799.66574451 297.87500422 -778.99392276 213.92222139 -703 84 C-702.11975552 82.8229437 -701.23954554 81.64586159 -700.359375 80.46875 C-692.42466602 69.93949756 -683.87588084 59.93741011 -674.97265625 50.21875 C-672.91288688 47.95665793 -672.91288688 47.95665793 -670.87109375 45.21875 C-670.25363281 44.4865625 -669.63617187 43.754375 -669 43 C-668.34 43 -667.68 43 -667 43 C-666.76539063 42.43925781 -666.53078125 41.87851562 -666.2890625 41.30078125 C-662.44840603 34.44579137 -655.20965988 29.0631653 -649.27734375 23.9921875 C-645.63130356 20.80268407 -642.10306807 17.48505025 -638.56713867 14.17431641 C-630.86005291 7 -630.86005291 7 -628 7 C-628 6.34 -628 5.68 -628 5 C-625.525 4.01 -625.525 4.01 -623 3 C-623 2.34 -623 1.68 -623 1 C-621.52563477 -0.33764648 -621.52563477 -0.33764648 -619.44140625 -1.87109375 C-618.67151367 -2.43997314 -617.90162109 -3.00885254 -617.10839844 -3.5949707 C-616.26825195 -4.20300537 -615.42810547 -4.81104004 -614.5625 -5.4375 C-613.70301758 -6.06422607 -612.84353516 -6.69095215 -611.95800781 -7.33666992 C-603.83497561 -13.20952369 -595.51066499 -18.708559 -587 -24 C-586.40364746 -24.37398926 -585.80729492 -24.74797852 -585.19287109 -25.13330078 C-541.73001583 -52.28693564 -493.7807115 -71.19672721 -444 -83 C-443.03610352 -83.23025879 -442.07220703 -83.46051758 -441.07910156 -83.69775391 C-415.0446149 -89.83915323 -388.64480211 -93.77666822 -362 -96 C-360.15776855 -96.15662109 -360.15776855 -96.15662109 -358.27832031 -96.31640625 C-278.31012643 -102.86132966 -196.97091663 -93.70254986 0 0 Z M-440 93 C-440.82709473 93.40057617 -441.65418945 93.80115234 -442.50634766 94.21386719 C-455.79716335 100.73107181 -468.06873705 108.24565186 -480 117 C-480.64018066 117.46905762 -481.28036133 117.93811523 -481.93994141 118.42138672 C-491.60306012 125.5829775 -500.36895419 133.6393786 -509 142 C-509.6197168 142.59780273 -510.23943359 143.19560547 -510.87792969 143.81152344 C-518.46168072 151.15691665 -525.50264481 158.65942348 -532 167 C-532.87857473 168.08986059 -533.75886862 169.17833692 -534.640625 170.265625 C-580.67408317 227.3539161 -602.10985337 300.65295444 -611.25 372.375 C-611.40106201 373.54708008 -611.55212402 374.71916016 -611.70776367 375.92675781 C-612.19156394 379.94669322 -612.61522322 383.9696185 -613 388 C-613.08720306 388.91182037 -613.17440613 389.82364075 -613.26425171 390.76309204 C-614.99725498 409.5707421 -615.36472325 428.28430463 -615.31805801 447.15374374 C-615.31241085 449.47412943 -615.30959474 451.79450779 -615.30697632 454.11489868 C-615.27019769 476.53870976 -614.83279571 498.72798021 -612 521 C-611.8309909 522.41198524 -611.6630505 523.82409874 -611.49609375 525.23632812 C-607.65224426 557.3895 -601.15069276 589.22582357 -591 620 C-590.62649414 621.13695312 -590.25298828 622.27390625 -589.86816406 623.4453125 C-584.07076855 640.86163473 -577.10884356 657.53659035 -569 674 C-568.40687012 675.2070459 -568.40687012 675.2070459 -567.80175781 676.43847656 C-556.25040299 699.67372603 -541.84354101 722.10256349 -524 741 C-522.95380771 742.22531703 -521.91209828 743.45447636 -520.875 744.6875 C-511.82874012 755.03810433 -501.87975548 764.6057059 -491 773 C-489.53046875 774.17755859 -489.53046875 774.17755859 -488.03125 775.37890625 C-462.29289525 795.86222919 -432.34307641 811.19237586 -401 821 C-400.16629883 821.26264648 -399.33259766 821.52529297 -398.47363281 821.79589844 C-323.7202709 844.86933216 -240.48286321 836.04551916 -171.25341797 800.72314453 C-158.46798099 793.95144904 -146.27898866 786.06347303 -135 777 C-134.071875 776.26265625 -133.14375 775.5253125 -132.1875 774.765625 C-116.12222351 761.82415227 -100.49348198 747.47788975 -88 731 C-87.03784753 729.755141 -86.0756011 728.51035461 -85.11328125 727.265625 C-34.3484901 661.08278424 -12.29553832 579.08162077 -6 497 C-5.90428711 495.79085938 -5.80857422 494.58171875 -5.70996094 493.3359375 C-4.72879897 479.19876512 -4.7573495 465.04051902 -4.75 450.875 C-4.74941086 450.20322723 -4.74882172 449.53145447 -4.74821472 448.83932495 C-4.73397751 425.78292866 -5.41012628 402.9245104 -8 380 C-8.2168042 378.06471436 -8.2168042 378.06471436 -8.43798828 376.09033203 C-13.90139273 329.3277041 -24.34074305 281.8548555 -44.91601562 239.26367188 C-46.03181187 236.93356763 -47.10543293 234.58744019 -48.171875 232.234375 C-58.75880093 209.05058594 -72.49482094 188.15127321 -88 168 C-88.42152344 167.44779785 -88.84304688 166.8955957 -89.27734375 166.32666016 C-92.50202006 162.0484264 -92.50202006 162.0484264 -96 158 C-96.66 158 -97.32 158 -98 158 C-98.27199219 157.4121875 -98.54398438 156.824375 -98.82421875 156.21875 C-101.71104785 150.7711788 -106.16507416 146.71917373 -111 143 C-113.45054994 140.60921957 -115.83493392 138.17449843 -118.1875 135.6875 C-119.83122273 133.77286049 -119.83122273 133.77286049 -122 134 C-122.20109375 133.44570313 -122.4021875 132.89140625 -122.609375 132.3203125 C-124.54720067 129.08697416 -127.2906054 127.11741346 -130.25 124.875 C-131.18501343 124.15594482 -131.18501343 124.15594482 -132.13891602 123.42236328 C-134.08380323 121.93614591 -136.03938891 120.46539756 -138 119 C-138.58958496 118.55785156 -139.17916992 118.11570312 -139.78662109 117.66015625 C-153.3578662 107.54990516 -167.71342198 99.23235949 -183 92 C-183.69963867 91.66613281 -184.39927734 91.33226562 -185.12011719 90.98828125 C-263.09974589 54.06731419 -362.57528182 55.4100945 -440 93 Z " fill="#000000" transform="translate(2703,757)"/>
<path d="M0 0 C2.1106769 1.95220755 4.25758807 3.83478153 6.4453125 5.69921875 C14.42191243 12.66447064 21.63653726 20.19264765 28.21875 28.484375 C29.68617571 30.31479549 31.1911932 32.11579034 32.734375 33.8828125 C44.92275259 47.87761087 54.79581703 63.88171011 63.4453125 80.26171875 C63.93475342 81.16905762 63.93475342 81.16905762 64.43408203 82.09472656 C86.30243019 122.79264498 98.12593769 171.0548307 97.4453125 217.26171875 C88.95580736 218.46571794 80.49626074 218.40285765 71.94165039 218.39111328 C70.27856406 218.39247004 68.61547804 218.39425152 66.95239258 218.39642334 C62.45912534 218.40096251 57.96588119 218.39922329 53.47261357 218.39604425 C48.76636396 218.3935054 44.06011627 218.39586216 39.35386658 218.39743042 C31.4597844 218.39924641 23.56571161 218.39685947 15.67163086 218.39208984 C6.5380046 218.38663512 -2.59559937 218.38842093 -11.7292251 218.39391625 C-19.57481005 218.39844791 -27.42038827 218.39909806 -35.2659741 218.39647758 C-39.95072105 218.3949168 -44.6354575 218.3947159 -49.32020378 218.39801407 C-53.71723607 218.40089399 -58.11423946 218.39891487 -62.51126862 218.39311981 C-64.12783065 218.39179343 -65.74439511 218.39218427 -67.36095619 218.39438248 C-69.56028642 218.39709842 -71.75952286 218.39370754 -73.95884705 218.38870239 C-75.19157821 218.38832537 -76.42430937 218.38794834 -77.69439602 218.38755989 C-80.5546875 218.26171875 -80.5546875 218.26171875 -82.5546875 217.26171875 C-83.05371094 215.27832031 -83.05371094 215.27832031 -83.4140625 212.65234375 C-83.55690674 211.68039062 -83.69975098 210.7084375 -83.84692383 209.70703125 C-84.07351685 208.12535156 -84.07351685 208.12535156 -84.3046875 206.51171875 C-90.70455378 165.47422136 -109.73665849 131.01878879 -141.5546875 104.26171875 C-143.53712242 102.90240659 -145.53617713 101.56685999 -147.5546875 100.26171875 C-149.0147027 99.20153104 -150.47307223 98.13907288 -151.9296875 97.07421875 C-192.36226803 68.87384962 -243.74273643 60.04660559 -292.1171875 60.01171875 C-293.39218109 60.01070663 -293.39218109 60.01070663 -294.69293213 60.00967407 C-334.46728912 60.05939318 -374.65205753 66.43771806 -410.5546875 84.26171875 C-411.20969238 84.58108398 -411.86469727 84.90044922 -412.53955078 85.22949219 C-445.97760786 101.66896622 -471.48503364 128.81385154 -483.73461914 164.18237305 C-493.17097694 193.3363847 -492.5906596 226.49592251 -478.75366211 254.13891602 C-474.62898756 262.03085305 -469.77810848 269.20812064 -463.3203125 275.40625 C-461.5546875 277.26171875 -461.5546875 277.26171875 -461.5546875 279.26171875 C-460.98363281 279.50921875 -460.41257812 279.75671875 -459.82421875 280.01171875 C-457.19944781 281.45737572 -455.39612524 283.17846291 -453.2421875 285.26171875 C-398.4747285 335.29816738 -308.22438607 346.25335225 -239.0625 361.96484375 C-234.22650472 363.06354799 -229.39056291 364.16248701 -224.5546875 365.26171875 C-223.33906128 365.53798096 -222.12343506 365.81424316 -220.87097168 366.09887695 C-178.43967973 375.74853105 -136.63718264 385.83371365 -95.5546875 400.26171875 C-94.40661621 400.66245605 -93.25854492 401.06319336 -92.07568359 401.47607422 C-76.10636024 407.0983883 -60.80461078 413.92640096 -45.5546875 421.26171875 C-44.52811035 421.75043457 -43.5015332 422.23915039 -42.44384766 422.74267578 C-15.31250763 435.70383822 9.84889461 451.37923094 32.4453125 471.26171875 C33.05769775 471.78942871 33.67008301 472.31713867 34.30102539 472.86083984 C73.73402278 506.95490498 98.19329371 552.31891829 109.1328125 603.01171875 C109.32327148 603.87788818 109.51373047 604.74405762 109.70996094 605.63647461 C113.76292316 625.44329393 114.93609592 645.15564887 114.83642578 665.33374023 C114.82034153 669.19225474 114.83637825 673.04971998 114.85546875 676.90820312 C114.91542407 746.58794064 91.25887241 819.18892201 43.515625 871.0078125 C41.67216093 873.01475358 39.89752157 875.06084117 38.1328125 877.13671875 C30.89300623 885.43724082 22.91793606 893.2294412 14.4453125 900.26171875 C13.92582031 900.70032227 13.40632813 901.13892578 12.87109375 901.59082031 C-54.76391865 958.58787546 -140.34599223 984.88568716 -246.68896484 995.96484375 C-249.2682234 996.16292247 -251.84671325 996.37127601 -254.42431641 996.58984375 C-309.78767356 1001.24793515 -367.12458551 997.18590223 -421.5546875 986.26171875 C-422.65264648 986.04290039 -423.75060547 985.82408203 -424.88183594 985.59863281 C-478.41337399 974.75381372 -530.55031972 955.58997805 -575.5546875 924.26171875 C-576.16183594 923.84003418 -576.76898437 923.41834961 -577.39453125 922.98388672 C-585.00028908 917.67955403 -592.43245529 912.20567916 -599.5546875 906.26171875 C-600.0595166 905.84712402 -600.5643457 905.4325293 -601.08447266 905.00537109 C-609.84164199 897.78609682 -618.01429654 890.01150167 -626.0546875 882.01171875 C-627.45219238 880.62799072 -627.45219238 880.62799072 -628.87792969 879.21630859 C-634.22364518 873.84649593 -639.04333472 868.34402841 -643.5546875 862.26171875 C-644.41436873 861.15864319 -645.27733554 860.05811529 -646.14453125 858.9609375 C-679.44121582 816.24588958 -697.1897607 766.36344932 -705.5546875 713.26171875 C-705.68746094 712.4301123 -705.82023437 711.59850586 -705.95703125 710.74169922 C-707.49899999 700.83368382 -707.5546875 691.40438547 -707.5546875 681.26171875 C-647.1646875 681.26171875 -586.7746875 681.26171875 -524.5546875 681.26171875 C-522.5746875 691.16171875 -522.5746875 691.16171875 -520.5546875 701.26171875 C-512.95842107 730.77863972 -498.37776141 754.99821083 -476.5546875 776.26171875 C-476.05453125 776.80699219 -475.554375 777.35226562 -475.0390625 777.9140625 C-463.59365323 790.08103018 -448.94481405 799.01264048 -434.5546875 807.26171875 C-433.80880371 807.69226562 -433.06291992 808.1228125 -432.29443359 808.56640625 C-389.56436955 832.94664594 -338.71971093 841.46832311 -290.0546875 841.51171875 C-289.2587619 841.51272583 -288.4628363 841.51373291 -287.64279175 841.51477051 C-242.61057797 841.47671338 -196.54330733 833.76291142 -156.5546875 812.26171875 C-155.56339844 811.74867188 -154.57210937 811.235625 -153.55078125 810.70703125 C-121.01555627 793.58322863 -93.21735391 766.25400859 -81.875 730.73046875 C-72.14906005 698.4522401 -74.00190598 663.60431053 -89.67578125 633.54296875 C-94.84736118 624.51151939 -101.44537812 616.81454468 -108.5546875 609.26171875 C-109.08191406 608.67003906 -109.60914062 608.07835937 -110.15234375 607.46875 C-150.25842307 564.2854779 -224.65054238 549.5949896 -279.57080078 537.33862305 C-284.98620722 536.12438809 -290.35280772 534.79923613 -295.7109375 533.3515625 C-304.11931754 531.08457643 -312.57869551 529.07090394 -321.0546875 527.07421875 C-324.71775507 526.20832657 -328.38040607 525.34068131 -332.04296875 524.47265625 C-333.05228958 524.23359055 -334.06161041 523.99452484 -335.10151672 523.74821472 C-343.88310121 521.66518965 -352.65852527 519.55696295 -361.43305588 517.44447517 C-363.8469361 516.86345459 -366.26092549 516.28288993 -368.67495728 515.70249939 C-369.47484888 515.51018517 -370.27474049 515.31787096 -371.09887123 515.11972904 C-372.71901356 514.73022309 -374.33915999 514.34073426 -375.95931053 513.95126247 C-379.99866074 512.9800192 -384.03771243 512.00756424 -388.07617188 511.03262329 C-391.92968001 510.10236641 -395.78391024 509.17515997 -399.63866615 508.25008774 C-401.07425634 507.90497415 -402.50957531 507.55873014 -403.94460106 507.21127701 C-405.9320075 506.73022948 -407.92034268 506.25321509 -409.90893555 505.77709961 C-411.58755928 505.37266884 -411.58755928 505.37266884 -413.3000946 504.96006775 C-416.70529694 504.22940197 -420.10536691 503.73476899 -423.5546875 503.26171875 C-425.58740234 502.69897461 -425.58740234 502.69897461 -427.390625 502.0390625 C-431.78044251 500.50512585 -436.20935405 499.12290596 -440.65625 497.765625 C-511.99259716 475.84660628 -585.0549589 443.36772393 -631.5546875 382.26171875 C-632.19277344 381.44058594 -632.83085937 380.61945313 -633.48828125 379.7734375 C-639.83407715 371.35919303 -645.22523374 362.33980463 -650.5546875 353.26171875 C-650.92094238 352.64345215 -651.28719727 352.02518555 -651.66455078 351.38818359 C-669.81097847 320.4079623 -678.48214233 283.78435948 -681.5546875 248.26171875 C-681.66683594 247.02035156 -681.77898438 245.77898437 -681.89453125 244.5 C-687.50208979 170.98721208 -668.06079688 94.03579936 -619.7421875 37.19921875 C-618.02619279 35.20783995 -616.29319788 33.23367839 -614.5546875 31.26171875 C-613.87277344 30.48054687 -613.19085937 29.699375 -612.48828125 28.89453125 C-611.34403851 27.58470694 -610.19722501 26.27712013 -609.046875 24.97265625 C-607.60506078 23.3194766 -606.1999794 21.6417326 -604.8046875 19.94921875 C-601.28409926 15.74407169 -601.28409926 15.74407169 -599.5546875 14.26171875 C-598.8946875 14.26171875 -598.2346875 14.26171875 -597.5546875 14.26171875 C-597.3071875 13.64296875 -597.0596875 13.02421875 -596.8046875 12.38671875 C-595.32697988 9.87461579 -594.11513573 9.50064531 -591.5546875 8.26171875 C-591.0596875 6.77671875 -591.0596875 6.77671875 -590.5546875 5.26171875 C-588.12945147 2.68168042 -585.27842526 0.51786204 -582.5546875 -1.73828125 C-582.01924316 -2.18993652 -581.48379883 -2.6415918 -580.93212891 -3.10693359 C-562.737098 -18.44152233 -543.28398381 -31.0977476 -522.5546875 -42.73828125 C-521.85569336 -43.13740723 -521.15669922 -43.5365332 -520.43652344 -43.94775391 C-466.6317546 -74.63880833 -402.63879074 -88.99274679 -341.5546875 -94.73828125 C-340.45157227 -94.84414551 -339.34845703 -94.95000977 -338.21191406 -95.05908203 C-248.28470483 -103.36228206 -153.58977502 -89.47253447 0 0 Z " fill="#000000" transform="translate(3673.5546875,755.73828125)"/>
<path d="M0 0 C0.73604271 -0.00155999 1.47208542 -0.00311998 2.23043245 -0.00472724 C4.70942274 -0.00873222 7.18835234 -0.00554955 9.66734314 -0.00241089 C11.43939246 -0.00376514 13.21144149 -0.00554521 14.98348999 -0.00772095 C19.80560595 -0.0122921 24.62770059 -0.0105071 29.44981694 -0.00734186 C34.48622907 -0.00481703 39.52263932 -0.00715611 44.55905151 -0.00872803 C53.01702707 -0.01054919 61.47499391 -0.00814462 69.93296814 -0.00338745 C79.72595896 0.00205682 89.51892896 0.0002911 99.31191927 -0.00521386 C107.70596275 -0.0097444 116.09999994 -0.01039588 124.49404424 -0.00777519 C129.51365242 -0.00621231 134.5332508 -0.00601896 139.55285835 -0.00931168 C144.26989662 -0.0121896 148.98690792 -0.01021617 153.70394325 -0.00441742 C155.44024867 -0.00308947 157.17655633 -0.00348452 158.91286087 -0.00568008 C161.27274897 -0.00839019 163.63254922 -0.00501223 165.99243164 0 C166.68852525 -0.00223072 167.38461887 -0.00446144 168.10180622 -0.00675976 C172.81857401 0.01283366 172.81857401 0.01283366 173.932724 1.12698364 C174.03080894 2.82639982 174.05795415 4.52993381 174.05807316 6.23217821 C174.06057668 7.34793444 174.0630802 8.46369068 174.06565958 9.61325771 C174.06331842 10.85692125 174.06097725 12.1005848 174.05856514 13.38193512 C174.06001858 14.69465572 174.06147202 16.00737632 174.06296951 17.35987633 C174.06689526 21.0368638 174.06451713 24.71382533 174.06119155 28.39081242 C174.05867099 32.37847473 174.06190832 36.36613285 174.06443489 40.35379457 C174.06805976 47.35367416 174.06792896 54.35354604 174.06538773 61.35342598 C174.06161914 71.76216188 174.06353172 82.17089123 174.06659603 92.57962708 C174.07187351 111.16513831 174.07140073 129.75064611 174.06851712 148.33615766 C174.06600595 164.60021937 174.06534281 180.86427982 174.06653976 197.12834167 C174.06665434 198.74380805 174.06665434 198.74380805 174.06677123 200.39191011 C174.06708255 204.76322561 174.06740095 209.13454112 174.067731 213.50585662 C174.07079305 254.54928122 174.0680117 295.59270363 174.0626341 336.6361279 C174.05788816 373.13617343 174.05831277 409.63621548 174.06309509 446.13626099 C174.06844458 487.10249431 174.07057593 528.06872569 174.06748283 569.03495932 C174.06716209 573.39851475 174.06684925 577.76207018 174.06653976 582.12562561 C174.06646069 583.20011961 174.06638161 584.27461361 174.06630014 585.38166803 C174.06516054 601.63930815 174.06649689 617.89694687 174.06901932 634.15458679 C174.07187179 652.63203377 174.0711783 671.10947676 174.06573857 689.58692324 C174.06279149 699.94023898 174.06262609 710.29354612 174.06638475 720.64686165 C174.0686152 727.54933265 174.06725336 734.4517967 174.06287998 741.35426666 C174.06048499 745.29581043 174.05972112 749.23733701 174.06328596 753.17888027 C174.06707393 757.40994549 174.06324976 761.64096788 174.05856514 765.87203217 C174.06090631 767.11569571 174.06324747 768.35935926 174.06565958 769.64070958 C174.06315606 770.75646581 174.06065255 771.87222205 174.05807316 773.02178907 C174.0580054 773.99098491 174.05793764 774.96018075 174.05786783 775.95874617 C173.932724 778.12698364 173.932724 778.12698364 172.932724 779.12698364 C170.59475397 779.22681837 168.28627197 779.2614125 165.94773865 779.25396729 C165.20846681 779.25552728 164.46919497 779.25708727 163.70752096 779.25869453 C161.21160527 779.26270724 158.7157496 779.25951385 156.21983337 779.25637817 C154.43807947 779.2577321 152.65632584 779.25951197 150.87457275 779.26168823 C146.02140688 779.26626366 141.16826216 779.26447256 136.3150959 779.26130915 C131.24798142 779.25878611 126.18086882 779.26112293 121.11375427 779.26269531 C112.60272393 779.26451717 104.09170225 779.26211027 95.58067322 779.25735474 C85.72578725 779.25191209 75.87092197 779.25367473 66.01603651 779.25918114 C57.57105821 779.2637118 49.12608616 779.26436305 40.68110704 779.26174247 C35.63018485 779.26017944 30.5792724 779.25998665 25.52835083 779.26327896 C20.78095717 779.266157 16.03359032 779.26418323 11.28619957 779.2583847 C9.5386071 779.25705674 7.79101239 779.25745183 6.04342079 779.25964737 C3.66815267 779.26235747 1.29297183 779.2589795 -1.08229065 779.25396729 C-1.78295733 779.25619801 -2.48362401 779.25842873 -3.20552301 779.26072705 C-7.95312614 779.24113351 -7.95312614 779.24113351 -9.067276 778.12698364 C-9.16499194 776.42717152 -9.19174845 774.72325686 -9.1914745 773.02063841 C-9.19372179 771.90462595 -9.19596908 770.78861349 -9.19828448 769.63878247 C-9.19565746 768.39483308 -9.19303045 767.15088368 -9.19032383 765.86923885 C-9.19147767 764.55621866 -9.19263152 763.24319846 -9.19382033 761.89038977 C-9.19690964 758.2125679 -9.19369754 754.53477336 -9.18954219 750.8569535 C-9.18612517 746.86840337 -9.18847549 742.87985618 -9.19011968 738.89130551 C-9.19219947 731.88989487 -9.19053938 724.88849271 -9.18648148 717.88708305 C-9.18046414 707.47612593 -9.18014402 697.06517418 -9.18102346 686.65421563 C-9.18233963 669.14414931 -9.17898739 651.63408676 -9.17300606 634.12402153 C-9.16709599 616.77824319 -9.16324152 599.43246642 -9.16215324 582.08668709 C-9.1620845 581.00956438 -9.16201576 579.93244167 -9.16194494 578.82267888 C-9.16160663 573.35287294 -9.16130524 567.883067 -9.16101807 562.41326106 C-9.15891573 523.63594942 -9.15217302 484.85863983 -9.14271545 446.08132935 C-9.13353618 408.40164196 -9.12645004 370.72195513 -9.12220764 333.04226685 C-9.12207612 331.88151693 -9.12194459 330.72076701 -9.12180908 329.52484285 C-9.1204906 317.86848074 -9.11921478 306.21211862 -9.11797022 294.55575649 C-9.11543377 270.80883336 -9.11261252 247.06191026 -9.10961914 223.31498718 C-9.10948185 222.22305958 -9.10934456 221.13113198 -9.10920311 220.00611566 C-9.0999971 147.04640413 -9.08415128 74.08669375 -9.067276 1.12698364 C-6.14187373 -0.33571749 -3.20609955 -0.01030739 0 0 Z " fill="#000000" transform="translate(1617.0672760009766,956.8730163574219)"/>
<path d="M0 0 C1.01320313 0.00451172 2.02640625 0.00902344 3.0703125 0.01367188 C5.54693827 0.02535407 8.02343657 0.04173418 10.5 0.0625 C11.31010103 64.6254751 0.61130034 120.9121614 -28.5 179.0625 C-28.88478516 179.83996582 -29.26957031 180.61743164 -29.66601562 181.41845703 C-42.58203816 207.38627382 -59.02843323 232.54451508 -78.5 254.0625 C-79.3559375 255.02800781 -80.211875 255.99351562 -81.09375 256.98828125 C-86.61258708 263.13048096 -92.36288875 269.02385294 -98.1875 274.875 C-99.23877075 275.93328003 -99.23877075 275.93328003 -100.3112793 277.01293945 C-137.16682046 313.75575928 -183.85299982 340.99168415 -234.5 353.0625 C-235.17498535 353.22830566 -235.8499707 353.39411133 -236.54541016 353.56494141 C-250.76228088 357.00194651 -280.83758311 363.89370844 -294.5 357.0625 C-295.53194734 271.18331324 -276.40548016 191.82257944 -219.5 125.0625 C-218.55591636 123.94407222 -217.6119106 122.8255787 -216.66796875 121.70703125 C-202.54383635 105.03716377 -187.87284221 88.42099094 -170.5 75.0625 C-169.18982854 74.03550779 -167.87995507 73.00813534 -166.5703125 71.98046875 C-158.16796514 65.42881623 -149.62024767 59.22001732 -140.66113281 53.45361328 C-139.10320849 52.4507831 -137.54822346 51.44338142 -135.99511719 50.43310547 C-123.75678907 42.47486052 -111.41753136 34.870429 -98.5 28.0625 C-97.83339355 27.70994141 -97.16678711 27.35738281 -96.47998047 26.99414062 C-72.17088309 14.23829627 -46.7191622 5.13421342 -19.5 1.0625 C-18.32300537 0.88380371 -17.14601074 0.70510742 -15.93334961 0.52099609 C-10.6293206 -0.13119861 -5.33573604 -0.04551481 0 0 Z " fill="#000000" transform="translate(970.5,329.9375)"/>
<path d="M0 0 C20.19751149 17.08164195 33.88053187 39.82740743 36.8359375 66.3984375 C38.39897132 97.28594339 30.28336755 123.6490751 9.58203125 146.93359375 C-9.49641983 166.83115543 -35.94385574 177.06106991 -63.1640625 178.3984375 C-92.30252792 178.27163366 -118.55470553 166.59774506 -139.3515625 146.5234375 C-157.45866176 127.87962234 -166.58286427 101.73945748 -166.46679688 75.98120117 C-165.89112314 52.13604868 -157.32781098 29.00772446 -141.1640625 11.3984375 C-140.31972656 10.47289062 -139.47539063 9.54734375 -138.60546875 8.59375 C-101.73690733 -30.04064964 -41.56679825 -32.65166726 0 0 Z " fill="#000000" transform="translate(1764.1640625,679.6015625)"/>
</svg>
