<?xml version="1.0" encoding="UTF-8"?>
<svg version="1.1" xmlns="http://www.w3.org/2000/svg" width="1920" height="1920">
<path d="M0 0 C86.13 0 172.26 0 261 0 C261 86.13 261 172.26 261 261 C174.87 261 88.74 261 0 261 C0 174.87 0 88.74 0 0 Z " fill="#FFB902" transform="translate(972,780)"/>
<path d="M0 0 C86.13 0 172.26 0 261 0 C261 86.13 261 172.26 261 261 C174.87 261 88.74 261 0 261 C0 174.87 0 88.74 0 0 Z " fill="#02A4EF" transform="translate(687,780)"/>
<path d="M0 0 C86.13 0 172.26 0 261 0 C261 86.13 261 172.26 261 261 C174.87 261 88.74 261 0 261 C0 174.87 0 88.74 0 0 Z " fill="#80BA01" transform="translate(972,494)"/>
<path d="M0 0 C86.13 0 172.26 0 261 0 C261 86.13 261 172.26 261 261 C174.87 261 88.74 261 0 261 C0 174.87 0 88.74 0 0 Z " fill="#F25022" transform="translate(687,494)"/>
<path d="M0 0 C22.77 0 45.54 0 69 0 C71.041875 5.176875 73.08375 10.35375 75.1875 15.6875 C81.52811301 31.7553761 87.88549407 47.81657433 94.25 63.875 C94.69308502 64.99297974 95.13617004 66.11095947 95.59268188 67.26281738 C97.39538843 71.81133514 99.19810323 76.35984963 101.00083923 80.90835571 C105.62803369 92.58375765 110.25239054 104.26028204 114.875 115.9375 C115.26509247 116.9228775 115.65518494 117.908255 116.05709839 118.92349243 C120.14562725 129.25182992 124.23116962 139.58133551 128.30859375 149.9140625 C128.65098083 150.78170731 128.99336792 151.64935211 129.34613037 152.54328918 C130.93374538 156.56692153 132.52080189 160.59077293 134.10693359 164.61499023 C137.71048492 173.75441437 141.34238683 182.88207512 145 192 C151.1300064 177.70570161 157.11018679 163.35752903 162.9375 148.9375 C163.24621033 148.17357941 163.55492065 147.40965881 163.87298584 146.62258911 C164.18802063 145.84293793 164.50305542 145.06328674 164.82763672 144.26000977 C165.48402963 142.63557141 166.14044279 141.01114123 166.796875 139.38671875 C167.29823471 138.14593315 167.29823471 138.14593315 167.8097229 136.88008118 C172.0769125 126.32636986 176.38322128 115.78862469 180.6875 105.25 C181.53379151 103.17725374 182.3800642 101.10449979 183.22631836 99.03173828 C187.14114725 89.4439565 191.05812322 79.85705491 194.97769165 70.27120972 C197.15252386 64.95193782 199.32634236 59.63225195 201.5 54.3125 C201.91862305 53.28829956 202.33724609 52.26409912 202.76855469 51.2088623 C208.47108554 37.25357629 214.13144001 23.28266838 219.6640625 9.2590332 C220.09847656 8.16292725 220.53289062 7.06682129 220.98046875 5.9375 C221.35067139 4.99777344 221.72087402 4.05804687 222.10229492 3.08984375 C223 1 223 1 224 0 C226.02494231 -0.09409479 228.0531987 -0.11743122 230.08032227 -0.11352539 C232.03223228 -0.11341209 232.03223228 -0.11341209 234.02357483 -0.11329651 C235.45451902 -0.10818909 236.88546282 -0.10297308 238.31640625 -0.09765625 C239.7722926 -0.09579203 241.22817957 -0.09436815 242.68406677 -0.09336853 C246.52279379 -0.08954365 250.36148319 -0.07971364 254.20019531 -0.06866455 C258.11457816 -0.05844978 262.02896706 -0.05387077 265.94335938 -0.04882812 C273.62892343 -0.03809134 281.31445645 -0.02101529 289 0 C289.02286539 33.86980483 289.04049772 67.73960774 289.05106533 101.60941857 C289.05231611 105.60378882 289.05361042 109.59815906 289.05493164 113.5925293 C289.05532511 114.78539113 289.05532511 114.78539113 289.05572652 116.00235117 C289.06008341 128.89593172 289.06797106 141.78950782 289.0771528 154.68308573 C289.08648881 167.90310535 289.0920555 181.12312265 289.09408849 194.34314543 C289.09546383 202.50725935 289.099815 210.67136074 289.10791647 218.8354708 C289.11380392 225.08501907 289.1144591 231.33455769 289.11310768 237.58410835 C289.11338422 240.155718 289.11539208 242.7273281 289.11920547 245.29893494 C289.12413547 248.7930935 289.12300086 252.28719714 289.12025452 255.78135681 C289.12462378 257.32947592 289.12462378 257.32947592 289.12908131 258.90887016 C289.12709026 259.83744443 289.12509921 260.7660187 289.12304783 261.72273159 C289.12342755 262.53039673 289.12380727 263.33806188 289.1241985 264.17020172 C289 266 289 266 288 267 C286.5985474 267.09804125 285.19223055 267.12798179 283.78735352 267.12939453 C282.89295059 267.13254669 281.99854767 267.13569885 281.07704163 267.13894653 C279.61771461 267.13591019 279.61771461 267.13591019 278.12890625 267.1328125 C277.13624252 267.13376923 276.1435788 267.13472595 275.12083435 267.13571167 C273.01667213 267.13639366 270.91250782 267.13453806 268.80834961 267.13037109 C265.5798674 267.12502874 262.35152469 267.13031255 259.12304688 267.13671875 C257.08333302 267.13605786 255.04361926 267.13477648 253.00390625 267.1328125 C252.03304581 267.13483673 251.06218536 267.13686096 250.06190491 267.13894653 C249.16434982 267.13579437 248.26679474 267.13264221 247.34204102 267.12939453 C246.55007828 267.12859894 245.75811554 267.12780334 244.94215393 267.12698364 C243 267 243 267 241 266 C240.67 200.99 240.34 135.98 240 69 C232.74 87.48 225.48 105.96 218 125 C208.9375 147.6875 208.9375 147.6875 204.5625 158.59765625 C199.93945871 170.13040076 195.35722751 181.67923527 190.78192139 193.23098755 C189.45120688 196.59039676 188.11945942 199.9493951 186.78759766 203.30834961 C182.904101 213.10730033 179.02953236 222.90946586 175.19389343 232.7272644 C173.6098567 236.78134612 172.02130759 240.83365342 170.43264771 244.88592529 C169.33403316 247.69494245 168.24299552 250.50682589 167.15209961 253.31884766 C166.49371769 254.99917664 165.83496769 256.67936147 165.17578125 258.359375 C164.8809787 259.12637726 164.58617615 259.89337952 164.28244019 260.68362427 C162.22763252 265.88618374 162.22763252 265.88618374 160 267 C157.59161322 267.08639869 155.21266119 267.11567764 152.8046875 267.09765625 C152.09724396 267.0962413 151.38980042 267.09482635 150.66091919 267.09336853 C148.39890331 267.087766 146.13698602 267.07521318 143.875 267.0625 C142.34244935 267.05748532 140.80989714 267.05292236 139.27734375 267.04882812 C135.51819112 267.03779577 131.75911228 267.02052952 128 267 C124.61203804 260.44056572 121.58353911 253.82794424 118.84765625 246.97265625 C118.28364357 245.57396553 118.28364357 245.57396553 117.70823669 244.14701843 C116.48897658 241.12044305 115.27567779 238.09151794 114.0625 235.0625 C113.2008595 232.92011116 112.338876 230.77786024 111.4765625 228.63574219 C108.97849839 222.42617814 106.48783036 216.21367028 104 210 C103.68504578 209.2134906 103.37009155 208.4269812 103.04559326 207.61663818 C100.66313404 201.66596957 98.28374654 195.71407753 95.90795898 189.76074219 C91.85697457 179.61502291 87.77973101 169.47995116 83.6953125 159.34765625 C83.4091935 158.63785236 83.12307449 157.92804848 82.82828522 157.19673538 C79.94192142 150.03659349 77.05462156 142.87682982 74.16572106 135.71771103 C67.60618707 119.4609234 61.07159101 103.19439051 54.56396484 86.91674805 C53.82494369 85.06864466 53.08590467 83.22054841 52.34684753 81.37245941 C50.56436009 76.91505486 48.78211096 72.45755509 47 68 C46.99576806 69.0195172 46.99153612 70.0390344 46.98717594 71.08944607 C46.88413505 95.85838138 46.77540659 120.62728669 46.66066074 145.39617062 C46.60530396 157.37404832 46.551818 169.351929 46.50268555 181.32983398 C46.45987372 191.76570356 46.41360343 202.20155098 46.36312145 212.63738638 C46.33649626 218.16674296 46.31164267 223.69609508 46.29092598 229.22547722 C46.27139633 234.42348027 46.24726378 239.62144106 46.21950912 244.81940651 C46.21011916 246.73308421 46.20245094 248.64677121 46.19658089 250.56046295 C46.1883526 253.16132209 46.17408549 255.76207774 46.15821838 258.36289978 C46.15724028 259.1303947 46.15626217 259.89788962 46.15525442 260.68864197 C46.11412121 265.88587879 46.11412121 265.88587879 45 267 C43.65985714 267.09784502 42.31465651 267.12797977 40.97094727 267.12939453 C40.11658585 267.13254669 39.26222443 267.13569885 38.38197327 267.13894653 C37.45283615 267.1369223 36.52369904 267.13489807 35.56640625 267.1328125 C34.61813461 267.13376923 33.66986298 267.13472595 32.69285583 267.13571167 C30.68285048 267.13639363 28.67284294 267.13453823 26.6628418 267.13037109 C23.5792141 267.12502896 20.49573247 267.1303125 17.41210938 267.13671875 C15.46354134 267.13605786 13.5149734 267.13477646 11.56640625 267.1328125 C10.17573692 267.13584885 10.17573692 267.13584885 8.75697327 267.13894653 C7.89945969 267.13579437 7.04194611 267.13264221 6.15844727 267.12939453 C5.40201431 267.12859894 4.64558136 267.12780334 3.8662262 267.12698364 C2 267 2 267 0 266 C0 178.22 0 90.44 0 0 Z " fill="#777777" transform="translate(211,1155)"/>
<path d="M0 0 C1.36330444 -0.01546875 1.36330444 -0.01546875 2.75415039 -0.03125 C11.15152573 0.07611234 17.85142249 1.7202845 26.4375 3.4375 C26.4375 16.9675 26.4375 30.4975 26.4375 44.4375 C17.4375 42.4375 17.4375 42.4375 14.125 41.3125 C5.86302871 39.35203224 -2.89801158 39.51063248 -10.5625 43.4375 C-16.86584896 48.48017917 -19.63667872 54.7608749 -21.5625 62.4375 C-21.78454523 65.10051257 -21.93185366 67.67649681 -21.9765625 70.33984375 C-21.99420654 70.98151489 -22.01185059 71.62318604 -22.0300293 72.28430176 C-22.09239504 74.64762788 -22.13906308 77.01134738 -22.1875 79.375 C-22.31125 84.675625 -22.435 89.97625 -22.5625 95.4375 C-1.4425 95.4375 19.6775 95.4375 41.4375 95.4375 C41.4375 80.9175 41.4375 66.3975 41.4375 51.4375 C57.875 46.625 57.875 46.625 63.00561523 45.12573242 C64.37755163 44.7235203 65.74938288 44.32094932 67.12109375 43.91796875 C67.85154404 43.70375778 68.58199432 43.48954681 69.33457947 43.2688446 C73.1836327 42.13211291 76.99449692 40.93484541 80.78515625 39.61328125 C84.4375 38.4375 84.4375 38.4375 88.4375 38.4375 C88.4375 57.2475 88.4375 76.0575 88.4375 95.4375 C103.6175 95.4375 118.7975 95.4375 134.4375 95.4375 C134.4375 107.9775 134.4375 120.5175 134.4375 133.4375 C119.2575 133.4375 104.0775 133.4375 88.4375 133.4375 C88.55769209 149.26962101 88.55769209 149.26962101 88.6953125 165.1015625 C88.75538343 171.56832903 88.81350882 178.03506821 88.859375 184.50195312 C88.89652493 189.72161676 88.94296124 194.94112602 88.99556351 200.16065598 C89.01395096 202.14189289 89.02911517 204.1231627 89.04084396 206.10445023 C88.41753261 226.23675861 88.41753261 226.23675861 94.73046875 244.7890625 C99.2012476 249.10638212 103.48883824 250.92370809 109.59106445 250.99243164 C110.30351318 250.9743042 111.01596191 250.95617676 111.75 250.9375 C112.49403076 250.92904053 113.23806152 250.92058105 114.00463867 250.91186523 C119.30113168 250.74197664 123.66554961 249.77621533 128.45703125 247.41015625 C130.44690808 246.43287947 132.28715548 245.94087928 134.4375 245.4375 C134.53632689 250.79429728 134.60894782 256.15056485 134.65722656 261.50805664 C134.67735059 263.3307418 134.70465296 265.15336234 134.73925781 266.97583008 C134.78774268 269.59472588 134.81046009 272.21276879 134.828125 274.83203125 C134.84877014 275.64775101 134.86941528 276.46347076 134.89068604 277.3039093 C134.89292643 282.94384054 134.89292643 282.94384054 132.62280273 285.40454102 C124.76057827 289.12089357 115.11964511 291.10935593 106.4375 291.4375 C104.66826172 291.51484375 104.66826172 291.51484375 102.86328125 291.59375 C85.98895208 292.09755415 69.36902365 289.06817377 56.5 277.375 C44.12052603 263.8198218 41.25727346 245.57231496 41.32397461 227.890625 C41.32382858 226.86533188 41.32368256 225.84003876 41.3235321 224.78367615 C41.32422489 221.41826205 41.33198747 218.05290434 41.33984375 214.6875 C41.34171018 212.34480825 41.34313302 210.00211611 41.34413147 207.65942383 C41.3479389 201.5109956 41.35775398 195.36259121 41.36883545 189.21417236 C41.38089219 181.82768751 41.38546026 174.44119465 41.39128876 167.05470276 C41.40096672 155.84895195 41.42013571 144.6432534 41.4375 133.4375 C20.3175 133.4375 -0.8025 133.4375 -22.5625 133.4375 C-22.55726318 138.0670874 -22.55202637 142.6966748 -22.54663086 147.46655273 C-22.53009944 162.72165162 -22.51897975 177.97675086 -22.51068783 193.23185635 C-22.50552454 202.4857116 -22.49848122 211.73955838 -22.48706055 220.9934082 C-22.47711471 229.05606198 -22.47064681 237.11870963 -22.46841151 245.18136936 C-22.46710423 249.45318521 -22.4640173 253.72498351 -22.45676994 257.99679375 C-22.45001131 262.01285956 -22.44788272 266.02890051 -22.44939232 270.04497147 C-22.44911592 271.52326785 -22.44710987 273.00156501 -22.44329453 274.47985649 C-22.43835979 276.48948957 -22.44010186 278.49913581 -22.44224548 280.5087738 C-22.44132369 281.63612662 -22.4404019 282.76347944 -22.43945217 283.92499447 C-22.5625 286.4375 -22.5625 286.4375 -23.5625 287.4375 C-24.99990353 287.53563987 -26.44206327 287.5654828 -27.8828125 287.56689453 C-28.80046387 287.57004669 -29.71811523 287.57319885 -30.66357422 287.57644653 C-31.66146973 287.5744223 -32.65936523 287.57239807 -33.6875 287.5703125 C-34.70473145 287.57126923 -35.72196289 287.57222595 -36.77001953 287.57321167 C-38.92545636 287.57389361 -41.08089522 287.57203835 -43.23632812 287.56787109 C-46.54822371 287.56252305 -49.85998367 287.56781563 -53.171875 287.57421875 C-55.26041697 287.57355797 -57.34895885 287.57227681 -59.4375 287.5703125 C-60.93434326 287.57334885 -60.93434326 287.57334885 -62.46142578 287.57644653 C-63.37907715 287.57329437 -64.29672852 287.57014221 -65.2421875 287.56689453 C-66.05413574 287.56609894 -66.86608398 287.56530334 -67.70263672 287.56448364 C-69.5625 287.4375 -69.5625 287.4375 -70.5625 286.4375 C-70.6591888 284.46321766 -70.68437075 282.48542169 -70.68275452 280.5087738 C-70.68412918 279.22003357 -70.68550385 277.93129333 -70.68692017 276.60350037 C-70.68338055 275.16201759 -70.67974573 273.72053505 -70.67602539 272.27905273 C-70.67574353 270.77153526 -70.67590123 269.26401764 -70.6764679 267.75650024 C-70.67675591 263.65130656 -70.67085861 259.54614185 -70.66389394 255.44095492 C-70.65766099 251.1554674 -70.65705665 246.86997928 -70.65586853 242.58448792 C-70.65275504 234.46363348 -70.64454141 226.34279244 -70.63451904 218.22194391 C-70.62335845 208.97905126 -70.61784759 199.73615798 -70.61282361 190.49326026 C-70.60235881 171.47466436 -70.58401312 152.45608683 -70.5625 133.4375 C-80.7925 133.4375 -91.0225 133.4375 -101.5625 133.4375 C-101.8925 120.8975 -102.2225 108.3575 -102.5625 95.4375 C-92.0025 95.4375 -81.4425 95.4375 -70.5625 95.4375 C-70.67999189 85.29759213 -70.67999189 85.29759213 -70.83276367 75.15820312 C-70.95626209 53.73056308 -65.71460541 35.19859497 -51.3203125 18.8984375 C-37.57269829 5.42855287 -18.77890732 0.1723824 0 0 Z " fill="#777777" transform="translate(1574.5625,1134.5625)"/>
<path d="M0 0 C18.69681124 16.2238162 30.47819735 39.15658647 32.421875 63.93847656 C34.18419525 95.37987195 30.44558213 127.21741677 8.8359375 151.76904297 C-10.13000629 172.35673126 -34.88807512 181.24315443 -62.4765625 182.52734375 C-92.12729036 183.3212481 -118.34327079 175.45133939 -140.13671875 154.86328125 C-161.46123931 132.59211141 -165.10529259 103.33022513 -164.62661743 73.89039612 C-164.04551238 48.42900409 -154.23620348 24.43313665 -136.44921875 6.23828125 C-102.79002961 -25.69202498 -36.29763413 -29.95455821 0 0 Z M-101.76171875 34.30078125 C-115.14358215 50.7214428 -117.93961469 72.24022124 -116.140625 92.7578125 C-114.20646175 108.28246797 -108.88907833 123.59049337 -96.4921875 133.859375 C-84.34037365 142.6393342 -70.00819719 144.2118905 -55.38671875 142.73828125 C-44.10754838 140.79887639 -34.51835822 135.81730327 -27.27734375 126.88671875 C-24.26740184 122.52616188 -22.19622384 118.23522963 -20.44921875 113.23828125 C-20.05734375 112.19414063 -19.66546875 111.15 -19.26171875 110.07421875 C-13.67187972 92.25660683 -13.69410258 67.6960346 -20.44921875 50.23828125 C-20.86171875 49.16191406 -21.27421875 48.08554688 -21.69921875 46.9765625 C-26.18252981 36.82542921 -33.59478294 28.69595399 -43.83203125 24.19921875 C-63.6456255 16.92437668 -86.43574218 18.47376313 -101.76171875 34.30078125 Z " fill="#777777" transform="translate(1076.44921875,1243.76171875)"/>
<path d="M0 0 C20.79975429 17.90587544 29.99739456 42.63918784 32.046875 69.46875 C33.9649155 98.87870428 27.65148435 128.48951226 7.89160156 151.10839844 C-9.25998142 170.1966457 -32.43863214 179.6385197 -57.8125 181.625 C-86.18510391 183.11183778 -113.98119717 178.07537215 -135.8125 158.625 C-136.56015625 157.97144531 -137.3078125 157.31789063 -138.078125 156.64453125 C-148.91467015 146.54684145 -156.41956085 133.69352665 -160.8125 119.625 C-161.02132813 118.98304688 -161.23015625 118.34109375 -161.4453125 117.6796875 C-169.95355017 90.2163887 -167.01562037 54.52529336 -153.99609375 29.07421875 C-142.64499636 8.01096757 -125.54949889 -6.786967 -102.8125 -14.375 C-68.71028028 -24.0092229 -28.77941335 -22.75397144 0 0 Z M-103.8125 35.625 C-106.15823519 38.80998711 -108.04497153 42.08994306 -109.8125 45.625 C-110.19148438 46.38296875 -110.57046875 47.1409375 -110.9609375 47.921875 C-119.90334289 67.95824196 -119.30943839 93.78750943 -111.5625 114.0625 C-106.14679088 125.99322635 -97.34869321 134.95026188 -85.078125 139.62109375 C-70.75031473 144.02569571 -54.52387689 144.09970374 -41 137.1875 C-29.20327276 130.26333401 -22.48913658 119.59700038 -19.0625 106.5 C-14.10793555 85.70235157 -14.64840725 60.74448258 -24.8125 41.625 C-32.05946112 30.39047654 -41.56773255 23.36311259 -54.6875 20.3125 C-73.39238327 17.23934382 -90.77652581 21.58058253 -103.8125 35.625 Z " fill="#777777" transform="translate(1438.8125,1244.375)"/>
<path d="M0 0 C0 14.52 0 29.04 0 44 C-4.00352889 42.39858844 -7.53437119 40.65835252 -11.3125 38.625 C-25.35581681 31.47205213 -41.68788872 28.26234862 -57.28515625 31.73046875 C-62.05543318 33.4517027 -65.59162204 35.38394224 -68 40 C-70.0678098 45.9228723 -70.61380378 51.08277336 -68.22265625 56.97265625 C-62.99799132 65.63591855 -50.51399229 69.53573625 -41.60546875 73.28515625 C-22.81631892 81.20595042 -2.49049612 90.08963754 6.2890625 109.91015625 C11.86771615 124.82001114 12.14496801 142.09401633 5.78125 156.8203125 C-1.86362988 172.06760071 -15.27445428 182.5950034 -31.25 188.125 C-59.04970691 196.56419674 -91.7782216 195.1108892 -118 182 C-118 166.82 -118 151.64 -118 136 C-114.81196835 137.59401583 -111.78394219 139.30880797 -108.72119141 141.12280273 C-100.38153296 146.00145287 -92.32418798 149.43153155 -83 152 C-82.154375 152.24492188 -81.30875 152.48984375 -80.4375 152.7421875 C-69.5112416 155.43683907 -55.3564712 155.6669197 -45 151 C-41.30682677 148.13590647 -39.16160989 145.54083867 -38 141 C-37.38219692 134.719002 -38.05895759 130.05615985 -42 125 C-48.92676438 119.70905455 -56.74847526 116.05109441 -64.6875 112.5625 C-66.79895149 111.61109176 -68.90962772 110.65796117 -71.01953125 109.703125 C-72.54827881 109.01379883 -72.54827881 109.01379883 -74.10791016 108.31054688 C-91.41430997 100.46817357 -107.74281337 91.66133704 -115 73 C-120.13571181 57.53098854 -119.50815107 40.93324845 -113 26 C-104.58946347 10.31548592 -89.37348357 0.70137679 -73 -5 C-49.07115104 -12.13578952 -22.98823761 -8.35935913 0 0 Z " fill="#777777" transform="translate(1246,1233)"/>
<path d="M0 0 C0.87132568 0.30784424 1.74265137 0.61568848 2.64038086 0.93286133 C5 3 5 3 5.43624878 5.01083374 C5.5815736 7.73264446 5.56086073 10.4119079 5.48828125 13.13671875 C5.47766914 14.62858452 5.47766914 14.62858452 5.46684265 16.15058899 C5.43883158 19.33032133 5.37607922 22.50829906 5.3125 25.6875 C5.28742588 27.84177146 5.26461117 29.9960705 5.24414062 32.15039062 C5.1889834 37.43419341 5.10529098 42.71697138 5 48 C1.1794521 46.52255064 -2.13588484 44.77865869 -5.625 42.625 C-21.77474019 33.11701342 -39.32111664 30.60344731 -57.578125 34.96484375 C-72.17309877 39.37998993 -81.69694159 47.80491796 -89 61 C-89.40089844 61.70640625 -89.80179688 62.4128125 -90.21484375 63.140625 C-98.41782251 79.3608547 -98.23798575 101.89040958 -93 119 C-88.26343496 132.12782444 -80.38258104 141.57021299 -68.3828125 148.52734375 C-59.94139034 152.20218919 -51.85386946 153.5362303 -42.6875 153.4375 C-41.18038452 153.42505249 -41.18038452 153.42505249 -39.64282227 153.41235352 C-24.93135258 153.07964342 -11.88012253 148.00465428 0.28125 139.78125 C3 138 3 138 5 138 C5 152.19 5 166.38 5 181 C-21.97915809 194.48957905 -53.99242013 198.92701143 -83.32421875 189.7109375 C-95.95773911 185.39213968 -106.93999458 178.77612361 -117 170 C-117.61359375 169.47019531 -118.2271875 168.94039062 -118.859375 168.39453125 C-137.24681495 151.31445515 -144.88125436 125.83663761 -146.1875 101.5078125 C-146.70335938 73.58692341 -139.45167245 45.54536604 -121 24 C-118.47795255 21.45748969 -115.80062677 19.22694158 -113 17 C-112.29746094 16.37738281 -111.59492187 15.75476562 -110.87109375 15.11328125 C-98.76019694 4.68274575 -84.43483123 -1.41457178 -69 -5 C-67.99582031 -5.24492188 -66.99164062 -5.48984375 -65.95703125 -5.7421875 C-44.68087643 -9.93425039 -20.22031062 -7.85703498 0 0 Z " fill="#777777" transform="translate(762,1232)"/>
<path d="M0 0 C0 15.51 0 31.02 0 47 C-4.25949877 45.93512531 -8.23647931 44.47208466 -12.34375 42.9375 C-21.56174532 39.68408989 -32.79446916 39.3570599 -41.73046875 43.625 C-53.2301839 50.59212519 -59.42075241 60.99561865 -62.68726158 73.86453438 C-65.09015394 84.57503129 -64.56339925 95.64253372 -64.5390625 106.5546875 C-64.5489846 108.99326452 -64.56093155 111.43183406 -64.57479858 113.87039185 C-64.60693882 120.23825317 -64.61753563 126.60594251 -64.62164307 132.97387695 C-64.63045452 143.21375027 -64.66576454 153.4534844 -64.7138176 163.69324112 C-64.72642739 167.26640287 -64.72564423 170.83938761 -64.72354126 174.41256714 C-64.73011591 176.58477926 -64.73712103 178.75699013 -64.74462891 180.92919922 C-64.74050491 181.92545319 -64.73638092 182.92170715 -64.73213196 183.94815063 C-64.74020622 185.30592621 -64.74020622 185.30592621 -64.7484436 186.69113159 C-64.74894683 187.87396131 -64.74894683 187.87396131 -64.74946022 189.08068657 C-65 191 -65 191 -67 193 C-68.90419006 193.24723816 -68.90419006 193.24723816 -71.25024414 193.24291992 C-72.12777847 193.24599655 -73.00531281 193.24907318 -73.90943909 193.25224304 C-75.33291908 193.24146477 -75.33291908 193.24146477 -76.78515625 193.23046875 C-77.75658066 193.23001053 -78.72800507 193.22955231 -79.72886658 193.2290802 C-81.78418193 193.22605624 -83.83949495 193.21816566 -85.89477539 193.20581055 C-89.05297905 193.18755503 -92.21088973 193.18530081 -95.36914062 193.18554688 C-97.36198172 193.18063182 -99.35482082 193.17480355 -101.34765625 193.16796875 C-102.29866714 193.16685593 -103.24967804 193.1657431 -104.22950745 193.16459656 C-105.10388962 193.15821671 -105.97827179 193.15183685 -106.87915039 193.14526367 C-107.65255264 193.14145187 -108.4259549 193.13764008 -109.22279358 193.13371277 C-111 193 -111 193 -112 192 C-112.11229476 189.54899001 -112.1594138 187.12545575 -112.16494751 184.67333984 C-112.17341282 183.50930413 -112.17341282 183.50930413 -112.18204916 182.32175255 C-112.19985673 179.70148728 -112.21049504 177.08124077 -112.22119141 174.4609375 C-112.23239975 172.59051261 -112.24403166 170.72009022 -112.25605774 168.84967041 C-112.28746948 163.75480177 -112.31254598 158.65991969 -112.3362546 153.56501007 C-112.36178068 148.24563507 -112.39213262 142.92628725 -112.42172241 137.60693359 C-112.47060776 128.67221628 -112.51527923 119.73748494 -112.55761719 110.80273438 C-112.60670518 100.45703268 -112.66300194 90.11138868 -112.72303832 79.76574516 C-112.77429437 70.90040771 -112.82165199 62.03505572 -112.86572587 53.16967964 C-112.89209238 47.86723545 -112.91984079 42.56480795 -112.9510994 37.26239014 C-112.98026356 32.2786373 -113.00455326 27.29488455 -113.02499962 22.31108856 C-113.0333377 20.47640871 -113.04340819 18.64173584 -113.05528831 16.8070755 C-113.07115936 14.3135983 -113.08091109 11.82017285 -113.08901978 9.32666016 C-113.09514145 8.59097494 -113.10126312 7.85528973 -113.10757029 7.09731102 C-113.10981411 5.39783052 -113.06063181 3.69840007 -113 2 C-111.42699672 0.42699672 -109.86315955 0.87274496 -107.6796875 0.87060547 C-106.76203613 0.86745331 -105.84438477 0.86430115 -104.89892578 0.86105347 C-103.40208252 0.86408981 -103.40208252 0.86408981 -101.875 0.8671875 C-100.85776855 0.86623077 -99.84053711 0.86527405 -98.79248047 0.86428833 C-96.63704364 0.86360639 -94.48160478 0.86546165 -92.32617188 0.86962891 C-89.01427629 0.87497695 -85.70251633 0.86968437 -82.390625 0.86328125 C-80.30208303 0.86394203 -78.21354115 0.86522319 -76.125 0.8671875 C-75.12710449 0.86516327 -74.12920898 0.86313904 -73.10107422 0.86105347 C-72.18342285 0.86420563 -71.26577148 0.86735779 -70.3203125 0.87060547 C-69.50836426 0.87140106 -68.69641602 0.87219666 -67.85986328 0.87301636 C-66 1 -66 1 -65 2 C-64.84259395 3.70563778 -64.74906608 5.41727244 -64.68359375 7.12890625 C-64.64169922 8.16337891 -64.59980469 9.19785156 -64.55664062 10.26367188 C-64.51732422 11.35228516 -64.47800781 12.44089844 -64.4375 13.5625 C-64.39431641 14.65498047 -64.35113281 15.74746094 -64.30664062 16.87304688 C-64.20017932 19.58189564 -64.09816484 22.29083992 -64 25 C-63.443125 24.14277344 -62.88625 23.28554687 -62.3125 22.40234375 C-54.19504642 10.13377689 -45.03824029 1.13255487 -30.125 -2.375 C-19.23546451 -4.07048145 -10.72759335 -2.92570728 0 0 Z " fill="#777777" transform="translate(911,1229)"/>
<path d="M0 0 C15.51 0 31.02 0 47 0 C47.02254453 24.88603708 47.04097771 49.77206593 47.05181217 74.65811062 C47.05697576 86.212263 47.06401965 97.76640861 47.07543945 109.32055664 C47.08538437 119.38724349 47.09185297 129.45392544 47.09408849 139.52061707 C47.09539593 144.85436711 47.09848384 150.18810312 47.10573006 155.52184868 C47.11248725 160.53597659 47.11461758 165.55008459 47.11310768 170.56421661 C47.11338415 172.41017579 47.11539104 174.25613558 47.11920547 176.10209084 C47.12413803 178.6109678 47.12299992 181.11976833 47.12025452 183.62864685 C47.12316736 184.36890513 47.1260802 185.10916342 47.12908131 185.87185377 C47.11412121 190.88587879 47.11412121 190.88587879 46 192 C44.5932478 192.09804851 43.18164864 192.12798186 41.77148438 192.12939453 C40.42503845 192.13412277 40.42503845 192.13412277 39.0513916 192.13894653 C37.58735901 192.13591019 37.58735901 192.13591019 36.09375 192.1328125 C34.6011969 192.13424759 34.6011969 192.13424759 33.07849121 192.13571167 C30.97013282 192.1363936 28.86177235 192.13453844 26.75341797 192.13037109 C23.51394973 192.12502303 20.27462015 192.13031567 17.03515625 192.13671875 C14.99218719 192.13605797 12.94921822 192.13477681 10.90625 192.1328125 C9.93022827 192.13483673 8.95420654 192.13686096 7.9486084 192.13894653 C7.05097778 192.13579437 6.15334717 192.13264221 5.22851562 192.12939453 C4.43433228 192.12859894 3.64014893 192.12780334 2.82189941 192.12698364 C1 192 1 192 0 191 C-0.09770695 188.53368729 -0.12996098 186.09541002 -0.12025452 183.62864685 C-0.12110894 182.84783392 -0.12196337 182.067021 -0.12284368 181.26254708 C-0.12450086 178.6260991 -0.11897326 175.98971368 -0.11352539 173.35327148 C-0.11324354 171.47137453 -0.1134012 169.58947746 -0.1139679 167.70758057 C-0.11425597 162.58176065 -0.10835767 157.45596392 -0.10139394 152.33014941 C-0.09516202 146.97962736 -0.09455673 141.62910483 -0.09336853 136.27857971 C-0.09025474 126.13901642 -0.0820407 115.99946386 -0.07201904 105.8599053 C-0.06085939 94.31959526 -0.05534783 82.77928472 -0.05032361 71.23897064 C-0.03985812 47.49263977 -0.02151205 23.74632361 0 0 Z " fill="#777777" transform="translate(541,1230)"/>
<path d="M0 0 C6.67204104 5.51168607 9.52534775 11.84467419 10.8125 20.22265625 C11.38091341 28.64227986 8.14703488 34.20504617 2.875 40.5625 C-4.16937924 46.53490849 -11.7445121 49.38888605 -21 49 C-30.97311587 47.91049995 -37.33095612 42.79106217 -43.51171875 35.125 C-47.2213921 29.08539146 -46.86598915 21.81295887 -46 15 C-43.62262835 6.92570088 -38.41632233 1.0264399 -31.10546875 -3.05859375 C-20.36001862 -7.9514022 -9.74950541 -6.25240021 0 0 Z " fill="#777777" transform="translate(583,1154)"/>
</svg>
